{"glyphs":{"0":{"ha":606,"x_min":31,"x_max":581,"o":"m 581 1003 l 571 1003 l 567 997 l 567 914 l 532 864 q 533 858 533 861 q 515 842 533 842 q 499 863 499 842 q 519 875 499 879 l 544 914 l 544 997 l 538 1003 l 531 1003 l 531 1050 l 538 1056 l 575 1056 l 581 1050 l 581 1003 m 525 1003 l 515 1003 l 511 997 l 511 914 l 488 864 q 489 858 489 861 q 471 842 489 842 q 454 863 454 842 q 475 875 454 879 l 489 914 l 489 997 l 482 1003 l 475 1003 l 475 1050 l 482 1056 l 519 1056 l 525 1050 l 525 1003 m 469 1003 l 460 1003 l 456 997 q 444 867 463 913 q 446 861 446 865 q 429 842 446 842 q 411 863 411 842 q 431 875 411 879 q 433 997 433 914 l 426 1003 l 419 1003 l 419 1050 l 426 1056 l 464 1056 l 469 1050 l 469 1003 m 247 1003 l 240 1003 l 233 997 l 233 875 q 242 863 242 872 q 233 847 242 850 q 219 843 225 843 q 207 858 207 843 q 211 875 207 868 l 211 997 l 207 1003 l 197 1003 l 197 1050 l 203 1056 l 240 1056 l 247 1050 l 247 1003 m 140 842 q 124 864 115 842 l 100 914 l 100 997 l 96 1003 l 86 1003 l 86 1050 l 92 1056 l 129 1056 l 136 1050 l 136 1003 l 129 1003 l 122 997 l 122 914 q 136 875 129 896 q 143 876 140 876 q 157 863 157 876 q 140 842 157 842 m 96 842 q 79 864 71 842 l 44 914 l 44 997 l 40 1003 l 31 1003 l 31 1050 l 36 1056 l 74 1056 l 81 1050 l 81 1003 l 74 1003 l 67 997 l 67 914 l 92 875 q 99 876 96 876 q 113 863 113 876 q 96 842 113 842 m 561 44 q 542 -17 561 0 q 478 -35 524 -35 l 118 -35 q 72 -17 92 -35 q 51 25 51 0 l 51 760 q 69 827 51 810 q 136 844 86 844 l 483 844 q 547 826 533 844 q 561 756 561 807 l 561 44 m 529 860 q 517 871 529 871 q 506 860 506 871 q 517 849 506 849 q 529 860 529 849 m 485 860 q 472 871 485 871 q 461 860 461 871 q 472 849 461 849 q 485 860 485 849 m 442 860 q 431 871 442 871 q 419 860 419 871 q 431 849 419 849 q 442 860 442 849 m 235 860 q 224 871 235 871 q 213 860 213 871 q 224 849 213 849 q 235 860 235 849 m 151 860 q 139 871 151 871 q 128 860 128 871 q 139 849 128 849 q 151 860 151 849 m 107 860 q 94 871 107 871 q 83 860 83 871 q 94 849 83 849 q 107 860 107 849 m 383 250 l 383 700 q 328 750 383 750 l 192 750 q 129 700 129 750 l 129 242 q 203 181 129 181 l 322 181 q 372 199 360 181 q 383 250 383 213 m 517 78 q 479 114 517 114 l 136 114 q 99 78 99 114 q 136 43 99 43 l 479 43 q 517 78 517 43 m 333 540 q 294 503 333 503 q 267 514 279 503 q 256 540 256 525 l 256 640 q 294 678 256 678 q 333 640 333 678 l 333 540 z "},"1":{"ha":372,"x_min":19,"x_max":333,"o":"m 174 842 q 154 858 154 842 q 157 867 154 863 q 144 914 151 883 l 144 997 l 140 1003 l 131 1003 l 131 1050 l 136 1056 l 174 1056 l 181 1050 l 181 1003 l 174 1003 l 167 997 l 167 914 l 171 875 q 176 876 174 875 q 190 863 190 876 q 174 842 190 842 m 129 842 q 113 864 104 842 l 89 914 l 89 997 l 85 1003 l 75 1003 l 75 1050 l 81 1056 l 118 1056 l 125 1050 l 125 1003 l 118 1003 l 111 997 l 111 914 q 125 875 118 896 q 132 876 129 876 q 146 863 146 876 q 129 842 146 842 m 85 842 q 68 864 60 842 l 33 914 l 33 997 l 29 1003 l 19 1003 l 19 1050 l 25 1056 l 63 1056 l 69 1050 l 69 1003 l 63 1003 l 56 997 l 56 914 l 81 875 q 88 876 85 876 q 101 863 101 876 q 85 842 101 842 m 333 35 q 320 -19 333 -4 q 268 -35 307 -35 l 94 -35 q 50 17 50 -35 l 50 154 q 65 186 50 176 q 111 236 111 215 l 111 714 q 83 747 111 733 q 49 763 65 754 q 33 799 33 771 q 44 837 33 829 q 79 844 54 844 l 165 844 q 204 806 204 844 l 204 240 q 249 189 204 189 q 261 189 251 189 q 274 190 269 190 q 319 172 306 190 q 333 132 333 154 l 333 35 m 307 261 q 268 222 307 222 q 241 234 253 222 q 229 261 229 246 l 229 361 q 268 399 229 399 q 307 361 307 399 l 307 261 m 183 860 q 172 872 183 872 q 158 860 158 872 q 172 847 158 847 q 183 860 183 847 m 140 860 q 128 871 140 871 q 117 860 117 871 q 128 849 117 849 q 140 860 140 849 m 96 860 q 83 871 96 871 q 72 860 72 871 q 83 849 72 849 q 96 860 96 849 m 294 78 q 257 114 294 114 l 136 114 q 99 78 99 114 q 136 43 99 43 l 257 43 q 294 78 294 43 z "},"2":{"ha":417,"x_min":19,"x_max":403,"o":"m 403 1003 l 393 1003 l 389 997 l 389 914 l 354 864 q 356 858 356 861 q 338 842 356 842 q 321 863 321 842 q 342 875 321 879 l 367 914 l 367 997 l 360 1003 l 353 1003 l 353 1050 l 360 1056 l 397 1056 l 403 1050 l 403 1003 m 236 1003 l 229 1003 l 222 997 l 222 875 q 231 863 231 872 q 222 847 231 850 q 208 843 214 843 q 196 858 196 843 q 200 875 196 868 l 200 997 l 196 1003 l 186 1003 l 186 1050 l 192 1056 l 229 1056 l 236 1050 l 236 1003 m 174 842 q 154 858 154 842 q 157 867 154 863 q 144 914 151 883 l 144 997 l 140 1003 l 131 1003 l 131 1050 l 136 1056 l 174 1056 l 181 1050 l 181 1003 l 174 1003 l 167 997 l 167 914 l 171 875 q 176 876 174 875 q 190 863 190 876 q 174 842 190 842 m 85 842 q 68 864 60 842 l 33 914 l 33 997 l 29 1003 l 19 1003 l 19 1050 l 25 1056 l 63 1056 l 69 1050 l 69 1003 l 63 1003 l 56 997 l 56 914 l 81 875 q 88 876 85 876 q 101 863 101 876 q 85 842 101 842 m 144 554 q 106 517 144 517 q 67 554 67 517 l 67 654 q 106 692 67 692 q 144 654 144 692 l 144 554 m 375 11 q 336 -35 375 -35 l 89 -35 q 50 11 50 -35 l 50 333 q 103 378 50 378 q 124 378 110 378 q 144 376 138 376 q 197 421 197 376 l 197 715 q 125 750 197 750 l 119 750 q 33 797 33 750 q 97 844 33 844 l 290 844 q 357 824 340 844 q 369 757 369 806 l 369 340 q 313 283 369 283 l 158 283 q 106 232 106 283 q 147 181 106 181 l 336 181 q 375 143 375 181 l 375 11 m 351 860 q 339 871 351 871 q 328 860 328 871 q 339 849 328 849 q 351 860 351 849 m 224 860 q 213 871 224 871 q 201 860 201 871 q 213 849 201 849 q 224 860 224 849 m 183 860 q 172 872 183 872 q 158 860 158 872 q 172 847 158 847 q 183 860 183 847 m 96 860 q 83 871 96 871 q 72 860 72 871 q 83 849 72 849 q 96 860 96 849 m 350 78 q 313 114 350 114 l 114 114 q 76 78 76 114 q 114 43 76 43 l 313 43 q 350 78 350 43 z "},"3":{"ha":467,"x_min":19,"x_max":425,"o":"m 403 1003 l 393 1003 l 389 997 l 389 914 l 354 864 q 356 858 356 861 q 338 842 356 842 q 321 863 321 842 q 342 875 321 879 l 367 914 l 367 997 l 360 1003 l 353 1003 l 353 1050 l 360 1056 l 397 1056 l 403 1050 l 403 1003 m 347 1003 l 338 1003 l 333 997 l 333 914 l 310 864 q 311 858 311 861 q 293 842 311 842 q 276 863 276 842 q 297 875 276 879 l 311 914 l 311 997 l 304 1003 l 297 1003 l 297 1050 l 304 1056 l 342 1056 l 347 1050 l 347 1003 m 292 1003 l 282 1003 l 278 997 q 267 867 285 913 q 268 861 268 865 q 251 842 268 842 q 233 863 233 842 q 253 875 233 879 q 256 997 256 914 l 249 1003 l 242 1003 l 242 1050 l 249 1056 l 286 1056 l 292 1050 l 292 1003 m 236 1003 l 229 1003 l 222 997 l 222 875 q 231 863 231 872 q 222 847 231 850 q 208 843 214 843 q 196 858 196 843 q 200 875 196 868 l 200 997 l 196 1003 l 186 1003 l 186 1050 l 192 1056 l 229 1056 l 236 1050 l 236 1003 m 85 842 q 68 864 60 842 l 33 914 l 33 997 l 29 1003 l 19 1003 l 19 1050 l 25 1056 l 63 1056 l 69 1050 l 69 1003 l 63 1003 l 56 997 l 56 914 l 81 875 q 88 876 85 876 q 101 863 101 876 q 85 842 101 842 m 131 564 q 92 526 131 526 q 53 564 53 526 l 53 664 q 92 701 53 701 q 131 664 131 701 l 131 564 m 425 32 q 372 -35 425 -35 l 97 -35 q 40 11 40 -35 l 40 143 q 71 181 53 181 l 281 181 q 325 242 325 181 q 292 283 325 283 l 93 283 q 58 298 75 283 q 40 331 40 313 q 96 378 40 378 q 107 376 99 378 q 117 376 114 376 q 181 436 181 376 l 181 718 q 143 750 181 750 l 79 750 q 40 796 40 750 q 57 829 40 814 q 92 844 74 844 l 303 844 q 342 831 325 844 q 358 796 358 817 l 358 339 q 392 306 358 326 q 425 233 425 285 l 425 32 m 351 860 q 339 871 351 871 q 328 860 328 871 q 339 849 328 849 q 351 860 351 849 m 307 860 q 294 871 307 871 q 283 860 283 871 q 294 849 283 849 q 307 860 307 849 m 264 860 q 253 871 264 871 q 242 860 242 871 q 253 849 242 849 q 264 860 264 849 m 224 860 q 213 871 224 871 q 201 860 201 871 q 213 849 201 849 q 224 860 224 849 m 96 860 q 83 871 96 871 q 72 860 72 871 q 83 849 72 849 q 96 860 96 849 m 372 78 q 335 114 372 114 l 114 114 q 76 78 76 114 q 114 43 76 43 l 335 43 q 372 78 372 43 z "},"4":{"ha":544,"x_min":19,"x_max":499,"o":"m 174 842 q 154 858 154 842 q 157 867 154 863 q 144 914 151 883 l 144 997 l 140 1003 l 131 1003 l 131 1050 l 136 1056 l 174 1056 l 181 1050 l 181 1003 l 174 1003 l 167 997 l 167 914 l 171 875 q 176 876 174 875 q 190 863 190 876 q 174 842 190 842 m 129 842 q 113 864 104 842 l 89 914 l 89 997 l 85 1003 l 75 1003 l 75 1050 l 81 1056 l 118 1056 l 125 1050 l 125 1003 l 118 1003 l 111 997 l 111 914 q 125 875 118 896 q 132 876 129 876 q 146 863 146 876 q 129 842 146 842 m 85 842 q 68 864 60 842 l 33 914 l 33 997 l 29 1003 l 19 1003 l 19 1050 l 25 1056 l 63 1056 l 69 1050 l 69 1003 l 63 1003 l 56 997 l 56 914 l 81 875 q 88 876 85 876 q 101 863 101 876 q 85 842 101 842 m 360 328 q 321 289 360 289 q 294 301 306 289 q 282 328 282 313 l 282 428 q 321 465 282 465 q 360 428 360 465 l 360 328 m 499 3 q 468 -35 499 -35 l 371 -35 q 336 -1 336 -35 l 336 157 q 308 189 336 189 l 92 189 q 47 236 47 189 l 47 807 q 85 844 47 844 l 164 844 q 208 806 208 844 l 208 289 q 244 239 208 239 l 390 239 q 421 267 421 239 l 421 488 q 464 524 421 524 q 499 488 499 524 l 499 3 m 183 860 q 172 872 183 872 q 158 860 158 872 q 172 847 158 847 q 183 860 183 847 m 140 860 q 128 871 140 871 q 117 860 117 871 q 128 849 117 849 q 140 860 140 849 m 96 860 q 83 871 96 871 q 72 860 72 871 q 83 849 72 849 q 96 860 96 849 m 472 78 q 435 114 472 114 l 414 114 q 376 78 376 114 q 414 43 376 43 l 435 43 q 472 78 472 43 z "},"5":{"ha":467,"x_min":19,"x_max":424,"o":"m 292 1003 l 282 1003 l 278 997 q 267 867 285 913 q 268 861 268 865 q 251 842 268 842 q 233 863 233 842 q 253 875 233 879 q 256 997 256 914 l 249 1003 l 242 1003 l 242 1050 l 249 1056 l 286 1056 l 292 1050 l 292 1003 m 236 1003 l 229 1003 l 222 997 l 222 875 q 231 863 231 872 q 222 847 231 850 q 208 843 214 843 q 196 858 196 843 q 200 875 196 868 l 200 997 l 196 1003 l 186 1003 l 186 1050 l 192 1056 l 229 1056 l 236 1050 l 236 1003 m 174 842 q 154 858 154 842 q 157 867 154 863 q 144 914 151 883 l 144 997 l 140 1003 l 131 1003 l 131 1050 l 136 1056 l 174 1056 l 181 1050 l 181 1003 l 174 1003 l 167 997 l 167 914 l 171 875 q 176 876 174 875 q 190 863 190 876 q 174 842 190 842 m 85 842 q 68 864 60 842 l 33 914 l 33 997 l 29 1003 l 19 1003 l 19 1050 l 25 1056 l 63 1056 l 69 1050 l 69 1003 l 63 1003 l 56 997 l 56 914 l 81 875 q 88 876 85 876 q 101 863 101 876 q 85 842 101 842 m 286 524 q 247 486 286 486 q 221 498 233 486 q 208 524 208 510 l 208 624 q 247 661 208 661 q 286 624 286 661 l 286 524 m 424 31 q 414 -18 424 -6 q 365 -35 401 -35 l 81 -35 q 32 11 32 -35 l 32 144 q 47 169 32 157 q 74 181 61 181 l 290 181 q 331 239 331 181 q 278 294 331 294 l 129 294 q 65 315 82 294 q 47 383 47 335 l 47 796 q 94 844 47 844 l 218 844 q 254 831 239 844 q 269 797 269 817 q 211 750 269 750 q 197 750 207 750 q 183 750 188 750 q 158 744 164 750 q 147 706 147 733 l 147 421 q 181 389 147 389 l 368 389 q 408 370 392 389 q 424 328 424 351 l 424 31 m 264 860 q 253 871 264 871 q 242 860 242 871 q 253 849 242 849 q 264 860 264 849 m 224 860 q 213 871 224 871 q 201 860 201 871 q 213 849 201 849 q 224 860 224 849 m 183 860 q 172 872 183 872 q 158 860 158 872 q 172 847 158 847 q 183 860 183 847 m 96 860 q 83 871 96 871 q 72 860 72 871 q 83 849 72 849 q 96 860 96 849 m 350 78 q 313 114 350 114 l 114 114 q 76 78 76 114 q 114 43 76 43 l 313 43 q 350 78 350 43 z "},"6":{"ha":550,"x_min":19,"x_max":515,"o":"m 347 1003 l 338 1003 l 333 997 l 333 914 l 310 864 q 311 858 311 861 q 293 842 311 842 q 276 863 276 842 q 297 875 276 879 l 311 914 l 311 997 l 304 1003 l 297 1003 l 297 1050 l 304 1056 l 342 1056 l 347 1050 l 347 1003 m 236 1003 l 229 1003 l 222 997 l 222 875 q 231 863 231 872 q 222 847 231 850 q 208 843 214 843 q 196 858 196 843 q 200 875 196 868 l 200 997 l 196 1003 l 186 1003 l 186 1050 l 192 1056 l 229 1056 l 236 1050 l 236 1003 m 129 842 q 113 864 104 842 l 89 914 l 89 997 l 85 1003 l 75 1003 l 75 1050 l 81 1056 l 118 1056 l 125 1050 l 125 1003 l 118 1003 l 111 997 l 111 914 q 125 875 118 896 q 132 876 129 876 q 146 863 146 876 q 129 842 146 842 m 85 842 q 68 864 60 842 l 33 914 l 33 997 l 29 1003 l 19 1003 l 19 1050 l 25 1056 l 63 1056 l 69 1050 l 69 1003 l 63 1003 l 56 997 l 56 914 l 81 875 q 88 876 85 876 q 101 863 101 876 q 85 842 101 842 m 515 14 q 467 -35 515 -35 l 83 -35 q 47 4 47 -35 l 47 803 q 92 844 47 844 l 272 844 q 318 818 308 844 q 322 758 322 806 l 322 669 q 281 621 322 621 q 239 654 246 621 q 238 715 238 660 q 186 750 238 750 q 147 708 147 750 l 147 561 q 204 507 147 507 l 464 507 q 515 456 515 507 l 515 14 m 307 860 q 294 871 307 871 q 283 860 283 871 q 294 849 283 849 q 307 860 307 849 m 224 860 q 213 871 224 871 q 201 860 201 871 q 213 849 201 849 q 224 860 224 849 m 140 860 q 128 871 140 871 q 117 860 117 871 q 128 849 117 849 q 140 860 140 849 m 96 860 q 83 871 96 871 q 72 860 72 871 q 83 849 72 849 q 96 860 96 849 m 467 228 l 467 365 q 422 414 467 414 l 401 414 q 358 365 358 414 l 358 228 q 403 181 358 181 l 431 181 q 467 228 467 181 m 461 78 q 424 114 461 114 l 125 114 q 88 78 88 114 q 125 43 88 43 l 424 43 q 461 78 461 43 z "},"7":{"ha":467,"x_min":31,"x_max":421,"o":"m 414 1003 l 404 1003 l 400 997 l 400 914 l 365 864 q 367 858 367 861 q 349 842 367 842 q 332 863 332 842 q 353 875 332 879 l 378 914 l 378 997 l 371 1003 l 364 1003 l 364 1050 l 371 1056 l 408 1056 l 414 1050 l 414 1003 m 303 1003 l 293 1003 l 289 997 q 278 867 296 913 q 279 861 279 865 q 263 842 279 842 q 244 863 244 842 q 264 875 244 879 q 267 997 267 914 l 260 1003 l 253 1003 l 253 1050 l 260 1056 l 297 1056 l 303 1050 l 303 1003 m 185 842 q 165 858 165 842 q 168 867 165 863 q 156 914 163 883 l 156 997 l 151 1003 l 142 1003 l 142 1050 l 147 1056 l 185 1056 l 192 1050 l 192 1003 l 185 1003 l 178 997 l 178 914 l 182 875 q 188 876 185 875 q 201 863 201 876 q 185 842 201 842 m 140 842 q 124 864 115 842 l 100 914 l 100 997 l 96 1003 l 86 1003 l 86 1050 l 92 1056 l 129 1056 l 136 1050 l 136 1003 l 129 1003 l 122 997 l 122 914 q 136 875 129 896 q 143 876 140 876 q 157 863 157 876 q 140 842 157 842 m 96 842 q 79 864 71 842 l 44 914 l 44 997 l 40 1003 l 31 1003 l 31 1050 l 36 1056 l 74 1056 l 81 1050 l 81 1003 l 74 1003 l 67 997 l 67 914 l 92 875 q 99 876 96 876 q 113 863 113 876 q 96 842 113 842 m 421 344 q 397 293 421 311 l 303 222 q 276 146 276 203 l 276 14 q 231 -31 276 -31 q 198 -17 213 -31 q 183 14 183 -4 l 183 210 q 213 265 183 244 l 292 322 q 328 386 328 349 l 328 625 q 275 672 328 672 l 192 672 q 145 643 150 672 q 139 585 140 614 q 93 554 132 554 q 47 600 47 554 l 47 783 q 81 839 47 839 l 378 839 q 409 819 397 839 q 421 781 421 800 l 421 344 m 363 860 q 350 871 363 871 q 339 860 339 871 q 350 849 339 849 q 363 860 363 849 m 275 860 q 264 871 275 871 q 253 860 253 871 q 264 849 253 849 q 275 860 275 849 m 194 860 q 183 872 194 872 q 169 860 169 872 q 183 847 169 847 q 194 860 194 847 m 151 860 q 139 871 151 871 q 128 860 128 871 q 139 849 128 849 q 151 860 151 849 m 107 860 q 94 871 107 871 q 83 860 83 871 q 94 849 83 849 q 107 860 107 849 z "},"8":{"ha":574,"x_min":44,"x_max":522,"o":"m 469 1003 l 460 1003 l 456 997 l 456 914 l 421 864 q 422 858 422 861 q 404 842 422 842 q 388 863 388 842 q 408 875 388 879 l 433 914 l 433 997 l 426 1003 l 419 1003 l 419 1050 l 426 1056 l 464 1056 l 469 1050 l 469 1003 m 358 1003 l 349 1003 l 344 997 q 333 867 351 913 q 335 861 335 865 q 318 842 335 842 q 300 863 300 842 q 319 875 300 879 q 322 997 322 914 l 315 1003 l 308 1003 l 308 1050 l 315 1056 l 353 1056 l 358 1050 l 358 1003 m 303 1003 l 296 1003 l 289 997 l 289 875 q 297 863 297 872 q 289 847 297 850 q 275 843 281 843 q 263 858 263 843 q 267 875 263 868 l 267 997 l 263 1003 l 253 1003 l 253 1050 l 258 1056 l 296 1056 l 303 1050 l 303 1003 m 151 842 q 135 864 126 842 l 100 914 l 100 997 l 96 1003 l 86 1003 l 86 1050 l 92 1056 l 129 1056 l 136 1050 l 136 1003 l 129 1003 l 122 997 l 122 914 l 147 875 q 154 876 151 876 q 168 863 168 876 q 151 842 168 842 m 522 63 q 510 -8 522 13 q 443 -35 493 -35 l 136 -35 q 44 60 44 -35 l 44 494 q 71 543 44 518 q 108 586 104 575 q 118 631 118 604 l 118 801 q 169 844 118 844 l 386 844 q 449 782 449 844 l 449 614 q 485 560 449 593 q 522 500 522 526 l 522 63 m 418 860 q 406 871 418 871 q 394 860 394 871 q 406 849 394 849 q 418 860 418 849 m 331 860 q 319 871 331 871 q 308 860 308 871 q 319 849 308 849 q 331 860 331 849 m 290 860 q 279 871 290 871 q 268 860 268 871 q 279 849 268 849 q 290 860 290 849 m 163 860 q 150 871 163 871 q 139 860 139 871 q 150 849 139 849 q 163 860 163 849 m 311 644 l 311 706 q 251 771 311 771 l 222 771 q 167 711 167 771 l 167 646 q 218 586 167 586 l 256 586 q 301 599 290 586 q 311 644 311 611 m 469 239 l 469 264 q 410 328 469 328 l 158 328 q 103 268 103 328 l 103 240 q 154 181 103 181 l 414 181 q 459 193 449 181 q 469 239 469 206 m 472 78 q 435 114 472 114 l 136 114 q 99 78 99 114 q 136 43 99 43 l 435 43 q 472 78 472 43 z "},"9":{"ha":547,"x_min":42,"x_max":500,"o":"m 458 1003 l 449 1003 l 444 997 l 444 914 l 410 864 q 411 858 411 861 q 393 842 411 842 q 376 863 376 842 q 397 875 376 879 l 422 914 l 422 997 l 415 1003 l 408 1003 l 408 1050 l 415 1056 l 453 1056 l 458 1050 l 458 1003 m 347 1003 l 338 1003 l 333 997 q 322 867 340 913 q 324 861 324 865 q 307 842 324 842 q 289 863 289 842 q 308 875 289 879 q 311 997 311 914 l 304 1003 l 297 1003 l 297 1050 l 304 1056 l 342 1056 l 347 1050 l 347 1003 m 229 842 q 210 858 210 842 q 213 867 210 863 q 200 914 207 883 l 200 997 l 196 1003 l 186 1003 l 186 1050 l 192 1056 l 229 1056 l 236 1050 l 236 1003 l 229 1003 l 222 997 l 222 914 l 226 875 q 232 876 229 875 q 246 863 246 876 q 229 842 246 842 m 185 842 q 168 864 160 842 l 144 914 l 144 997 l 140 1003 l 131 1003 l 131 1050 l 136 1056 l 174 1056 l 181 1050 l 181 1003 l 174 1003 l 167 997 l 167 914 q 181 875 174 896 q 188 876 185 876 q 201 863 201 876 q 185 842 201 842 m 140 842 q 124 864 115 842 l 89 914 l 89 997 l 85 1003 l 75 1003 l 75 1050 l 81 1056 l 118 1056 l 125 1050 l 125 1003 l 118 1003 l 111 997 l 111 914 l 136 875 q 143 876 140 876 q 157 863 157 876 q 140 842 157 842 m 500 33 q 474 -24 500 -10 q 408 -35 456 -35 q 351 -19 367 -35 q 335 36 335 -4 l 335 133 q 293 183 335 183 l 90 183 q 42 239 42 183 l 42 779 q 101 833 42 833 l 451 833 q 483 819 467 833 q 500 789 500 804 l 500 33 m 407 860 q 394 871 407 871 q 383 860 383 871 q 394 849 383 849 q 407 860 407 849 m 319 860 q 308 871 319 871 q 297 860 297 871 q 308 849 297 849 q 319 860 319 849 m 239 860 q 228 872 239 872 q 214 860 214 872 q 228 847 214 847 q 239 860 239 847 m 196 860 q 183 871 196 871 q 172 860 172 871 q 183 849 172 849 q 196 860 196 849 m 151 860 q 139 871 151 871 q 128 860 128 871 q 139 849 128 849 q 151 860 151 849 m 457 381 l 457 719 q 397 783 457 783 l 319 783 q 264 724 264 783 l 264 383 q 314 322 264 322 l 401 322 q 446 335 435 322 q 457 381 457 347 m 472 78 q 435 114 472 114 l 403 114 q 365 78 365 114 q 403 43 365 43 l 435 43 q 472 78 472 43 m 374 611 q 335 572 374 572 q 308 584 319 572 q 296 611 296 596 l 296 711 q 335 749 296 749 q 374 711 374 749 l 374 611 z "},"!":{"ha":229,"x_min":56,"x_max":189,"o":"m 189 418 q 176 375 189 401 q 163 333 163 349 l 163 232 q 122 183 163 183 q 82 231 82 183 l 82 333 q 69 380 82 354 q 56 418 56 406 l 56 890 q 122 956 56 956 q 189 890 189 956 l 189 418 m 174 68 q 158 35 174 50 q 125 21 143 21 q 92 35 106 21 q 78 68 78 50 q 92 101 78 86 q 125 117 107 117 q 158 101 143 117 q 174 68 174 86 z "},"\"":{"ha":283,"x_min":38,"x_max":226,"o":"m 226 817 q 188 779 226 779 q 160 790 172 779 q 149 817 149 801 l 149 917 q 160 944 149 932 q 188 956 172 956 q 215 944 203 956 q 226 917 226 932 l 226 817 m 115 817 q 76 779 115 779 q 49 790 61 779 q 38 817 38 801 l 38 917 q 49 944 38 932 q 76 956 61 956 q 103 944 92 956 q 115 917 115 932 l 115 817 z "},"#":{"ha":686,"x_min":39,"x_max":647,"o":"m 247 279 l 401 279 l 447 494 l 290 494 l 247 279 m 468 281 l 597 281 l 597 193 l 453 193 l 411 0 l 346 0 l 385 193 l 231 193 l 190 0 l 124 0 l 163 193 l 39 193 l 39 281 l 181 281 l 222 493 l 90 493 l 90 581 l 242 581 l 276 769 l 346 769 l 310 581 l 463 581 l 501 769 l 568 769 l 531 581 l 647 581 l 647 493 l 513 493 l 468 281 z "},"$":{"ha":517,"x_min":46,"x_max":481,"o":"m 481 118 q 458 59 481 85 q 403 33 435 33 l 272 33 l 247 -14 q 224 -31 239 -31 q 199 -14 207 -31 l 175 33 l 110 33 q 77 45 93 33 q 61 72 61 57 l 64 147 q 92 181 65 181 l 250 181 q 283 201 269 181 q 296 243 296 222 q 247 299 296 299 l 104 299 q 63 321 81 299 q 46 367 46 343 l 46 885 q 64 933 46 906 q 100 956 78 956 l 169 956 q 195 972 178 956 q 225 989 213 989 q 253 972 236 989 q 281 956 271 956 q 325 951 314 956 q 347 918 347 944 q 311 875 347 875 l 164 875 q 131 811 131 875 l 131 436 q 181 378 131 378 l 417 378 q 463 356 444 378 q 481 304 481 333 l 481 118 z "},"%":{"ha":957,"x_min":19,"x_max":925,"o":"m 658 1003 l 649 1003 l 644 997 l 644 914 l 621 864 q 622 858 622 861 q 604 842 622 842 q 588 863 588 842 q 608 875 588 879 l 622 914 l 622 997 l 615 1003 l 608 1003 l 608 1050 l 615 1056 l 653 1056 l 658 1050 l 658 1003 m 292 1003 l 282 1003 l 278 997 q 267 867 285 913 q 268 861 268 865 q 251 842 268 842 q 233 863 233 842 q 253 875 233 879 q 256 997 256 914 l 249 1003 l 242 1003 l 242 1050 l 249 1056 l 286 1056 l 292 1050 l 292 1003 m 236 1003 l 229 1003 l 222 997 l 222 875 q 231 863 231 872 q 222 847 231 850 q 208 843 214 843 q 196 858 196 843 q 200 875 196 868 l 200 997 l 196 1003 l 186 1003 l 186 1050 l 192 1056 l 229 1056 l 236 1050 l 236 1003 m 174 842 q 154 858 154 842 q 157 867 154 863 q 144 914 151 883 l 144 997 l 140 1003 l 131 1003 l 131 1050 l 136 1056 l 174 1056 l 181 1050 l 181 1003 l 174 1003 l 167 997 l 167 914 l 171 875 q 176 876 174 875 q 190 863 190 876 q 174 842 190 842 m 129 842 q 113 864 104 842 l 89 914 l 89 997 l 85 1003 l 75 1003 l 75 1050 l 81 1056 l 118 1056 l 125 1050 l 125 1003 l 118 1003 l 111 997 l 111 914 q 125 875 118 896 q 132 876 129 876 q 146 863 146 876 q 129 842 146 842 m 85 842 q 68 864 60 842 l 33 914 l 33 997 l 29 1003 l 19 1003 l 19 1050 l 25 1056 l 63 1056 l 69 1050 l 69 1003 l 63 1003 l 56 997 l 56 914 l 81 875 q 88 876 85 876 q 101 863 101 876 q 85 842 101 842 m 925 17 q 874 -40 925 -40 l 635 -40 q 592 17 592 -40 l 592 328 q 636 361 592 361 l 886 361 q 925 325 925 361 l 925 17 m 319 -39 q 289 -6 289 -39 q 299 26 289 -3 l 563 804 q 603 828 571 828 q 638 814 638 828 q 635 797 636 803 l 357 -15 q 319 -39 349 -39 m 357 493 q 304 435 357 435 l 65 435 q 22 493 22 435 l 22 803 q 68 838 22 838 l 317 838 q 357 800 357 838 l 357 493 m 300 250 q 261 213 300 213 q 234 224 246 213 q 222 250 222 235 l 222 350 q 234 377 222 365 q 261 389 246 389 q 300 350 300 389 l 300 250 m 167 250 q 128 213 167 213 q 101 224 113 213 q 89 250 89 235 l 89 350 q 101 377 89 365 q 128 389 113 389 q 167 350 167 389 l 167 250 m 618 860 q 606 871 618 871 q 594 860 594 871 q 606 849 594 849 q 618 860 618 849 m 264 860 q 253 871 264 871 q 242 860 242 871 q 253 849 242 849 q 264 860 264 849 m 224 860 q 213 871 224 871 q 201 860 201 871 q 213 849 201 849 q 224 860 224 849 m 183 860 q 172 872 183 872 q 158 860 158 872 q 172 847 158 847 q 183 860 183 847 m 140 860 q 128 871 140 871 q 117 860 117 871 q 128 849 117 849 q 140 860 140 849 m 788 228 l 788 264 q 744 306 788 306 l 685 306 q 640 265 640 306 l 640 228 q 681 179 640 179 l 740 179 q 788 228 788 179 m 96 860 q 83 871 96 871 q 72 860 72 871 q 83 849 72 849 q 96 860 96 849 m 219 711 l 219 746 q 175 789 219 789 l 115 789 q 71 747 71 789 l 71 710 q 113 661 71 661 l 171 661 q 219 711 219 661 m 894 78 q 857 114 894 114 l 669 114 q 642 103 654 114 q 629 78 629 93 q 669 43 629 43 l 857 43 q 894 78 894 43 z "},"&":{"ha":567,"x_min":19,"x_max":557,"o":"m 403 1003 l 393 1003 l 389 997 l 389 914 l 354 864 q 356 858 356 861 q 338 842 356 842 q 321 863 321 842 q 342 875 321 879 l 367 914 l 367 997 l 360 1003 l 353 1003 l 353 1050 l 360 1056 l 397 1056 l 403 1050 l 403 1003 m 347 1003 l 338 1003 l 333 997 l 333 914 l 310 864 q 311 858 311 861 q 293 842 311 842 q 276 863 276 842 q 297 875 276 879 l 311 914 l 311 997 l 304 1003 l 297 1003 l 297 1050 l 304 1056 l 342 1056 l 347 1050 l 347 1003 m 236 1003 l 229 1003 l 222 997 l 222 875 q 231 863 231 872 q 222 847 231 850 q 208 843 214 843 q 196 858 196 843 q 200 875 196 868 l 200 997 l 196 1003 l 186 1003 l 186 1050 l 192 1056 l 229 1056 l 236 1050 l 236 1003 m 129 842 q 113 864 104 842 l 89 914 l 89 997 l 85 1003 l 75 1003 l 75 1050 l 81 1056 l 118 1056 l 125 1050 l 125 1003 l 118 1003 l 111 997 l 111 914 q 125 875 118 896 q 132 876 129 876 q 146 863 146 876 q 129 842 146 842 m 85 842 q 68 864 60 842 l 33 914 l 33 997 l 29 1003 l 19 1003 l 19 1050 l 25 1056 l 63 1056 l 69 1050 l 69 1003 l 63 1003 l 56 997 l 56 914 l 81 875 q 88 876 85 876 q 101 863 101 876 q 85 842 101 842 m 557 326 q 496 279 557 279 l 419 279 q 390 244 390 279 l 390 17 q 325 -42 390 -42 l 86 -42 q 29 17 29 -42 l 29 774 q 42 824 29 810 q 92 838 56 838 l 349 838 q 397 803 397 838 q 343 757 397 757 q 330 757 339 757 q 315 757 321 757 q 263 743 279 757 q 247 711 247 729 l 247 622 q 293 572 247 572 l 417 572 q 467 533 467 572 q 417 492 467 492 l 142 492 q 103 444 103 492 l 103 247 q 117 189 103 199 q 182 183 125 183 q 228 222 228 183 l 228 322 q 236 362 228 351 q 278 372 244 372 l 496 372 q 557 326 557 372 m 351 860 q 339 871 351 871 q 328 860 328 871 q 339 849 328 849 q 351 860 351 849 m 307 860 q 294 871 307 871 q 283 860 283 871 q 294 849 283 849 q 307 860 307 849 m 224 860 q 213 871 224 871 q 201 860 201 871 q 213 849 201 849 q 224 860 224 849 m 140 860 q 128 871 140 871 q 117 860 117 871 q 128 849 117 849 q 140 860 140 849 m 96 860 q 83 871 96 871 q 72 860 72 871 q 83 849 72 849 q 96 860 96 849 m 350 78 q 313 114 350 114 l 114 114 q 76 78 76 114 q 114 43 76 43 l 313 43 q 350 78 350 43 z "},"'":{"ha":219,"x_min":53,"x_max":131,"o":"m 131 817 q 92 779 131 779 q 65 790 76 779 q 53 817 53 801 l 53 917 q 92 956 53 956 q 131 917 131 956 l 131 817 z "},"(":{"ha":339,"x_min":58,"x_max":282,"o":"m 282 -7 q 256 -35 282 -35 l 131 -35 q 80 -16 101 -35 q 58 32 58 3 l 58 917 q 94 956 58 956 l 249 956 q 270 947 258 956 q 282 928 282 938 q 250 900 282 900 l 181 900 q 151 863 151 900 l 151 236 q 192 188 151 188 q 239 189 257 188 q 282 169 282 186 l 282 -7 z "},")":{"ha":317,"x_min":33,"x_max":258,"o":"m 258 4 q 221 -35 258 -35 l 67 -35 q 33 -7 33 -35 l 33 171 q 65 188 33 188 l 135 188 q 164 224 164 188 l 164 850 q 113 901 164 901 q 90 900 106 901 q 68 899 75 899 q 33 928 33 899 q 60 956 33 956 l 185 956 q 235 936 213 956 q 258 889 258 917 l 258 4 z "},"*":{"ha":481,"x_min":53,"x_max":436,"o":"m 436 1003 l 426 1003 l 422 997 l 422 914 l 388 864 q 389 858 389 861 q 371 842 389 842 q 354 863 354 842 q 375 875 354 879 l 400 914 l 400 997 l 393 1003 l 386 1003 l 386 1050 l 393 1056 l 431 1056 l 436 1050 l 436 1003 m 381 1003 l 371 1003 l 367 997 l 367 914 l 343 864 q 344 858 344 861 q 326 842 344 842 q 310 863 310 842 q 331 875 310 879 l 344 914 l 344 997 l 338 1003 l 331 1003 l 331 1050 l 338 1056 l 375 1056 l 381 1050 l 381 1003 m 325 1003 l 315 1003 l 311 997 q 300 867 318 913 q 301 861 301 865 q 285 842 301 842 q 267 863 267 842 q 286 875 267 879 q 289 997 289 914 l 282 1003 l 275 1003 l 275 1050 l 282 1056 l 319 1056 l 325 1050 l 325 1003 m 118 842 q 101 864 93 842 l 67 914 l 67 997 l 63 1003 l 53 1003 l 53 1050 l 58 1056 l 96 1056 l 103 1050 l 103 1003 l 96 1003 l 89 997 l 89 914 l 114 875 q 121 876 118 876 q 135 863 135 876 q 118 842 135 842 m 385 860 q 372 871 385 871 q 361 860 361 871 q 372 849 361 849 q 385 860 385 849 m 340 860 q 328 871 340 871 q 317 860 317 871 q 328 849 317 849 q 340 860 340 849 m 297 860 q 286 871 297 871 q 275 860 275 871 q 286 849 275 849 q 297 860 297 849 m 129 860 q 117 871 129 871 q 106 860 106 871 q 117 849 106 849 q 129 860 129 849 m 363 604 q 349 544 363 563 q 294 526 336 526 l 174 526 q 118 604 118 526 l 118 738 q 174 813 118 813 l 294 813 q 363 738 363 813 l 363 604 z "},"+":{"ha":519,"x_min":33,"x_max":489,"o":"m 489 629 q 476 576 489 600 q 433 547 460 547 l 338 547 q 293 506 293 547 l 293 372 q 251 322 293 322 q 208 372 208 322 l 208 506 q 169 547 208 547 l 83 547 q 33 628 33 547 q 96 724 33 724 l 210 724 l 210 881 q 254 928 210 928 q 292 872 292 928 l 292 724 l 397 724 q 489 629 489 724 z "},",":{"ha":125,"x_min":25,"x_max":103,"o":"m 92 1003 l 85 1003 l 78 997 l 78 186 q 86 174 86 183 q 78 158 86 161 q 64 154 69 154 q 51 169 51 154 q 56 186 51 179 l 51 1003 l 42 1003 l 42 1050 l 47 1056 l 85 1056 l 92 1050 l 92 1003 m 103 -1 q 64 -39 103 -39 q 25 -1 25 -39 l 25 99 q 64 136 25 136 q 103 99 103 136 l 103 -1 m 81 169 q 68 183 81 183 q 56 169 56 183 q 68 158 56 158 q 81 169 81 158 z "},"-":{"ha":496,"x_min":36,"x_max":450,"o":"m 157 610 q 142 628 142 610 q 147 644 142 636 l 111 997 l 107 1003 l 97 1003 l 97 1050 l 103 1056 l 140 1056 l 147 1050 l 147 1003 l 140 1003 l 133 997 l 169 644 q 176 631 176 640 q 157 610 176 610 m 106 610 q 90 626 90 610 q 96 644 90 636 l 51 1003 l 42 1003 l 42 1050 l 47 1056 l 85 1056 l 92 1050 l 92 1003 l 85 1003 l 78 997 l 118 644 q 125 631 125 640 q 106 610 125 610 m 450 560 q 413 521 450 521 l 75 521 q 36 560 36 521 q 48 587 36 575 q 75 599 60 599 l 413 599 q 450 560 450 599 m 171 629 q 160 640 171 640 q 149 629 149 640 q 160 618 149 618 q 171 629 171 618 m 119 629 q 108 640 119 640 q 97 629 97 640 q 108 618 97 618 q 119 629 119 618 z "},".":{"ha":126,"x_min":14,"x_max":108,"o":"m 92 1003 l 85 1003 l 78 997 l 78 164 q 86 151 86 161 q 78 135 86 139 q 64 132 69 132 q 51 147 51 132 q 56 164 51 157 l 51 1003 l 42 1003 l 42 1050 l 47 1056 l 85 1056 l 92 1050 l 92 1003 m 108 61 q 93 29 108 44 q 61 14 78 14 q 28 28 42 14 q 14 61 14 42 q 28 94 14 79 q 61 110 43 110 q 94 95 81 110 q 108 61 108 81 m 81 147 q 68 161 81 161 q 56 147 56 161 q 68 136 56 136 q 81 147 81 136 z "},"/":{"ha":358,"x_min":13,"x_max":347,"o":"m 347 831 q 64 -18 347 824 q 36 -37 57 -37 q 13 -12 13 -37 q 288 815 13 -8 q 321 844 297 844 q 347 831 347 844 z "},":":{"ha":171,"x_min":39,"x_max":135,"o":"m 114 1003 l 107 1003 l 100 997 l 96 379 q 103 367 103 378 q 83 346 103 346 q 68 363 68 346 q 74 379 68 371 l 74 1003 l 64 1003 l 64 1050 l 69 1056 l 107 1056 l 114 1050 l 114 1003 m 135 274 q 119 241 135 256 q 86 226 104 226 q 53 241 67 226 q 39 274 39 256 q 53 307 39 292 q 86 322 68 322 q 119 307 104 322 q 135 274 135 292 m 135 68 q 119 35 135 50 q 86 21 104 21 q 53 35 67 21 q 39 68 39 50 q 53 101 39 86 q 86 117 68 117 q 119 101 104 117 q 135 68 135 86 m 97 364 q 86 376 97 376 q 75 364 75 376 q 86 353 75 353 q 97 364 97 353 z "},";":{"ha":193,"x_min":39,"x_max":135,"o":"m 114 1003 l 107 1003 l 100 997 l 97 397 q 104 385 104 396 q 85 364 104 364 q 69 381 69 364 q 75 397 69 389 l 74 1003 l 64 1003 l 64 1050 l 69 1056 l 107 1056 l 114 1050 l 114 1003 m 135 296 q 119 263 135 278 q 86 249 104 249 q 53 263 67 249 q 39 296 39 276 q 86 344 39 344 q 119 329 104 344 q 135 296 135 314 m 133 -6 q 94 -44 133 -44 q 67 -33 79 -44 q 56 -6 56 -21 l 56 94 q 94 132 56 132 q 133 94 133 132 l 133 -6 m 99 382 q 88 393 99 393 q 76 382 76 393 q 88 371 76 371 q 99 382 99 371 z "},"<":{"ha":125,"x_min":0,"x_max":0,"o":""},"=":{"ha":496,"x_min":36,"x_max":450,"o":"m 157 665 q 142 683 142 665 q 147 700 142 692 l 111 997 l 107 1003 l 97 1003 l 97 1050 l 103 1056 l 140 1056 l 147 1050 l 147 1003 l 140 1003 l 133 997 l 169 700 q 176 686 176 696 q 157 665 176 665 m 106 665 q 90 682 90 665 q 96 700 90 692 l 56 997 l 51 1003 l 42 1003 l 42 1050 l 47 1056 l 85 1056 l 92 1050 l 92 1003 l 85 1003 l 78 997 l 118 700 q 125 686 125 696 q 106 665 125 665 m 450 615 q 413 576 450 576 l 75 576 q 36 615 36 576 q 48 642 36 631 q 75 654 60 654 l 413 654 q 450 615 450 654 m 450 504 q 413 465 450 465 l 75 465 q 36 504 36 465 q 48 531 36 519 q 75 543 60 543 l 413 543 q 450 504 450 543 m 171 685 q 160 696 171 696 q 149 685 149 696 q 160 674 149 674 q 171 685 171 674 m 119 685 q 108 696 119 696 q 97 685 97 696 q 108 674 97 674 q 119 685 119 674 z "},">":{"ha":126,"x_min":0,"x_max":0,"o":""},"?":{"ha":439,"x_min":19,"x_max":403,"o":"m 403 1003 l 393 1003 l 389 997 l 389 914 l 354 864 q 356 858 356 861 q 338 842 356 842 q 321 863 321 842 q 342 875 321 879 l 367 914 l 367 997 l 360 1003 l 353 1003 l 353 1050 l 360 1056 l 397 1056 l 403 1050 l 403 1003 m 347 1003 l 338 1003 l 333 997 l 333 914 l 310 864 q 311 858 311 861 q 293 842 311 842 q 276 863 276 842 q 297 875 276 879 l 311 914 l 311 997 l 304 1003 l 297 1003 l 297 1050 l 304 1056 l 342 1056 l 347 1050 l 347 1003 m 292 1003 l 282 1003 l 278 997 q 267 867 285 913 q 268 861 268 865 q 251 842 268 842 q 233 863 233 842 q 253 875 233 879 q 256 997 256 914 l 249 1003 l 242 1003 l 242 1050 l 249 1056 l 286 1056 l 292 1050 l 292 1003 m 236 1003 l 229 1003 l 222 997 l 222 875 q 231 863 231 872 q 222 847 231 850 q 208 843 214 843 q 196 858 196 843 q 200 875 196 868 l 200 997 l 196 1003 l 186 1003 l 186 1050 l 192 1056 l 229 1056 l 236 1050 l 236 1003 m 174 842 q 154 858 154 842 q 157 867 154 863 q 144 914 151 883 l 144 997 l 140 1003 l 131 1003 l 131 1050 l 136 1056 l 174 1056 l 181 1050 l 181 1003 l 174 1003 l 167 997 l 167 914 l 171 875 q 176 876 174 875 q 190 863 190 876 q 174 842 190 842 m 129 842 q 113 864 104 842 l 89 914 l 89 997 l 85 1003 l 75 1003 l 75 1050 l 81 1056 l 118 1056 l 125 1050 l 125 1003 l 118 1003 l 111 997 l 111 914 q 125 875 118 896 q 132 876 129 876 q 146 863 146 876 q 129 842 146 842 m 85 842 q 68 864 60 842 l 33 914 l 33 997 l 29 1003 l 19 1003 l 19 1050 l 25 1056 l 63 1056 l 69 1050 l 69 1003 l 63 1003 l 56 997 l 56 914 l 81 875 q 88 876 85 876 q 101 863 101 876 q 85 842 101 842 m 401 256 q 346 185 401 185 l 236 185 q 213 156 213 185 q 213 140 213 151 q 214 125 214 131 q 199 86 214 96 q 172 76 183 76 q 132 129 132 76 l 132 486 q 183 543 132 543 l 282 543 q 311 551 306 543 q 317 583 317 558 l 317 663 q 243 700 317 700 l 97 700 q 44 714 58 700 q 31 767 31 728 q 97 833 31 833 l 324 833 q 378 816 356 833 q 401 767 401 799 l 401 256 m 219 1 q 204 -31 219 -17 q 171 -46 189 -46 q 138 -32 151 -46 q 124 1 124 -18 q 171 50 124 50 q 204 35 189 50 q 219 1 219 19 m 351 860 q 339 871 351 871 q 328 860 328 871 q 339 849 328 849 q 351 860 351 849 m 307 860 q 294 871 307 871 q 283 860 283 871 q 294 849 283 849 q 307 860 307 849 m 264 860 q 253 871 264 871 q 242 860 242 871 q 253 849 242 849 q 264 860 264 849 m 224 860 q 213 871 224 871 q 201 860 201 871 q 213 849 201 849 q 224 860 224 849 m 183 860 q 172 872 183 872 q 158 860 158 872 q 172 847 158 847 q 183 860 183 847 m 140 860 q 128 871 140 871 q 117 860 117 871 q 128 849 117 849 q 140 860 140 849 m 96 860 q 83 871 96 871 q 72 860 72 871 q 83 849 72 849 q 96 860 96 849 z "},"@":{"ha":810,"x_min":31,"x_max":774,"o":"m 544 594 l 544 410 q 600 347 544 347 q 661 385 633 347 q 689 493 689 422 q 674 619 689 561 q 624 720 658 678 q 536 786 590 763 q 404 810 482 810 q 291 789 343 810 q 200 726 239 768 q 139 622 161 685 q 117 476 117 560 q 187 226 117 311 q 374 121 257 140 l 365 36 q 217 87 281 49 q 113 183 154 125 q 51 317 71 242 q 31 478 31 392 q 62 653 31 576 q 144 783 93 731 q 263 864 196 836 q 404 892 331 892 q 677 797 581 892 q 774 501 774 703 q 768 433 774 472 q 744 359 763 394 q 690 299 725 324 q 599 275 656 275 q 488 338 514 275 q 392 306 440 306 q 294 342 336 306 q 253 450 253 379 q 289 559 253 521 q 389 597 325 597 q 475 574 443 597 l 483 594 l 544 594 m 475 499 q 403 528 447 528 q 321 450 321 528 q 399 376 321 376 q 475 411 449 376 l 475 499 z "},"A":{"ha":556,"x_min":29,"x_max":517,"o":"m 353 78 q 390 43 353 43 l 433 43 q 471 78 471 43 q 433 114 471 114 l 390 114 q 353 78 353 114 m 64 78 q 101 43 64 43 l 178 43 q 215 78 215 43 q 178 114 215 114 l 101 114 q 64 78 64 114 m 419 756 q 343 689 378 756 l 289 585 q 278 551 278 564 q 300 532 278 532 l 392 532 q 441 540 429 532 q 453 585 453 549 l 453 728 q 442 747 453 739 q 419 756 431 756 m 418 860 q 431 849 418 849 q 442 860 442 849 q 431 871 442 871 q 418 860 418 871 m 331 860 q 342 847 331 847 q 356 860 356 847 q 342 872 356 872 q 331 860 331 872 m 229 771 q 242 760 229 760 q 253 771 253 760 q 242 782 253 782 q 229 771 229 782 m 29 317 q 49 393 29 363 l 301 792 q 400 838 331 838 q 517 739 517 838 l 517 18 q 502 -23 517 -4 q 465 -42 488 -42 l 356 -42 q 308 4 308 -42 l 308 128 q 339 179 308 179 q 397 188 393 179 q 400 215 400 196 l 400 411 q 364 456 400 456 l 226 456 q 144 400 144 456 l 144 215 q 185 179 144 179 q 198 179 189 179 q 211 179 207 179 q 261 128 261 179 l 261 10 q 218 -42 261 -42 l 93 -42 q 39 -21 53 -42 q 29 38 29 -6 l 29 317 m 429 842 q 413 863 413 842 q 426 876 413 876 q 433 875 429 876 l 458 914 l 458 997 l 451 1003 l 444 1003 l 444 1050 l 451 1056 l 489 1056 l 494 1050 l 494 1003 l 485 1003 l 481 997 l 481 914 l 446 864 q 429 842 454 842 m 340 842 q 324 863 324 842 q 338 876 324 876 q 343 875 340 875 l 347 914 l 347 997 l 340 1003 l 333 1003 l 333 1050 l 340 1056 l 378 1056 l 383 1050 l 383 1003 l 374 1003 l 369 997 l 369 914 q 357 867 363 883 q 360 858 360 863 q 340 842 360 842 m 54 811 q 93 849 54 849 q 132 811 132 849 l 132 711 q 120 684 132 696 q 93 672 108 672 q 54 711 54 672 l 54 811 m 111 1050 l 117 1056 l 154 1056 l 161 1050 l 161 1003 l 154 1003 l 147 997 l 147 914 l 239 786 q 260 774 260 790 q 243 753 260 753 q 225 769 225 753 q 226 775 225 772 l 125 914 l 125 997 l 121 1003 l 111 1003 l 111 1050 z "},"B":{"ha":503,"x_min":33,"x_max":469,"o":"m 436 1003 l 426 1003 l 422 997 l 422 914 l 388 864 q 389 858 389 861 q 371 842 389 842 q 354 863 354 842 q 375 875 354 879 l 400 914 l 400 997 l 393 1003 l 386 1003 l 386 1050 l 393 1056 l 431 1056 l 436 1050 l 436 1003 m 325 1003 l 315 1003 l 311 997 q 300 867 318 913 q 301 861 301 865 q 285 842 301 842 q 267 863 267 842 q 286 875 267 879 q 289 997 289 914 l 282 1003 l 275 1003 l 275 1050 l 282 1056 l 319 1056 l 325 1050 l 325 1003 m 207 842 q 188 858 188 842 q 190 867 188 863 q 178 914 185 883 l 178 997 l 174 1003 l 164 1003 l 164 1050 l 169 1056 l 207 1056 l 214 1050 l 214 1003 l 207 1003 l 200 997 l 200 914 l 204 875 q 210 876 207 875 q 224 863 224 876 q 207 842 224 842 m 118 842 q 101 864 93 842 l 67 914 l 67 997 l 63 1003 l 53 1003 l 53 1050 l 58 1056 l 96 1056 l 103 1050 l 103 1003 l 96 1003 l 89 997 l 89 914 l 114 875 q 121 876 118 876 q 135 863 135 876 q 118 842 135 842 m 469 56 q 392 -42 469 -42 l 119 -42 q 33 60 33 -42 l 33 768 q 108 838 33 838 l 311 838 q 371 816 344 838 q 397 763 397 794 l 397 585 q 433 538 397 571 q 469 479 469 506 l 469 56 m 385 860 q 372 871 385 871 q 361 860 361 871 q 372 849 361 849 q 385 860 385 849 m 297 860 q 286 871 297 871 q 275 860 275 871 q 286 849 275 849 q 297 860 297 849 m 217 860 q 206 872 217 872 q 192 860 192 872 q 206 847 192 847 q 217 860 217 847 m 129 860 q 117 871 129 871 q 106 860 106 871 q 117 849 106 849 q 129 860 129 849 m 258 601 l 258 701 q 206 757 258 757 l 168 757 q 118 701 118 757 l 118 601 q 169 542 118 542 l 206 542 q 258 601 258 542 m 385 243 l 385 411 q 332 469 385 469 l 299 469 q 253 411 253 469 l 253 243 q 300 183 253 183 l 332 183 q 376 199 365 183 q 385 243 385 210 m 406 78 q 368 114 406 114 l 125 114 q 88 78 88 114 q 125 43 88 43 l 368 43 q 406 78 406 43 z "},"C":{"ha":508,"x_min":33,"x_max":468,"o":"m 436 1003 l 426 1003 l 422 997 l 422 914 l 388 864 q 389 858 389 861 q 371 842 389 842 q 354 863 354 842 q 375 875 354 879 l 400 914 l 400 997 l 393 1003 l 386 1003 l 386 1050 l 393 1056 l 431 1056 l 436 1050 l 436 1003 m 325 1003 l 315 1003 l 311 997 q 300 867 318 913 q 301 861 301 865 q 285 842 301 842 q 267 863 267 842 q 286 875 267 879 q 289 997 289 914 l 282 1003 l 275 1003 l 275 1050 l 282 1056 l 319 1056 l 325 1050 l 325 1003 m 269 1003 l 263 1003 l 256 997 l 256 875 q 264 863 264 872 q 256 847 264 850 q 242 843 247 843 q 229 858 229 843 q 233 875 229 868 l 233 997 l 229 1003 l 219 1003 l 219 1050 l 225 1056 l 263 1056 l 269 1050 l 269 1003 m 207 842 q 188 858 188 842 q 190 867 188 863 q 178 914 185 883 l 178 997 l 174 1003 l 164 1003 l 164 1050 l 169 1056 l 207 1056 l 214 1050 l 214 1003 l 207 1003 l 200 997 l 200 914 l 204 875 q 210 876 207 875 q 224 863 224 876 q 207 842 224 842 m 163 842 q 146 864 138 842 l 122 914 l 122 997 l 118 1003 l 108 1003 l 108 1050 l 114 1056 l 151 1056 l 158 1050 l 158 1003 l 151 1003 l 144 997 l 144 914 q 158 875 151 896 q 165 876 163 876 q 179 863 179 876 q 163 842 179 842 m 118 842 q 101 864 93 842 l 67 914 l 67 997 l 63 1003 l 53 1003 l 53 1050 l 58 1056 l 96 1056 l 103 1050 l 103 1003 l 96 1003 l 89 997 l 89 914 l 114 875 q 121 876 118 876 q 135 863 135 876 q 118 842 135 842 m 236 578 q 197 539 236 539 q 158 578 158 539 l 158 678 q 170 704 158 693 q 197 715 182 715 q 236 678 236 715 l 236 578 m 367 -39 l 131 -39 q 33 36 33 -39 l 33 767 q 53 818 33 796 q 103 840 74 840 l 303 840 q 392 799 392 840 q 360 761 392 761 l 147 761 q 127 751 136 761 q 118 729 118 740 l 118 417 q 121 378 118 386 q 153 361 128 361 l 407 361 q 467 278 467 361 l 467 190 q 468 132 467 171 q 468 74 468 93 q 447 -10 468 15 q 367 -39 425 -39 m 385 860 q 372 871 385 871 q 361 860 361 871 q 372 849 361 849 q 385 860 385 849 m 297 860 q 286 871 297 871 q 275 860 275 871 q 286 849 275 849 q 297 860 297 849 m 257 860 q 246 871 257 871 q 235 860 235 871 q 246 849 235 849 q 257 860 257 849 m 217 860 q 206 872 217 872 q 192 860 192 872 q 206 847 192 847 q 217 860 217 847 m 174 860 q 161 871 174 871 q 150 860 150 871 q 161 849 150 849 q 174 860 174 849 m 129 860 q 117 871 129 871 q 106 860 106 871 q 117 849 106 849 q 129 860 129 849 m 406 78 q 368 114 406 114 l 114 114 q 76 78 76 114 q 114 43 76 43 l 368 43 q 406 78 406 43 z "},"D":{"ha":526,"x_min":33,"x_max":500,"o":"m 436 1003 l 426 1003 l 422 997 l 422 914 l 388 864 q 389 858 389 861 q 371 842 389 842 q 354 863 354 842 q 375 875 354 879 l 400 914 l 400 997 l 393 1003 l 386 1003 l 386 1050 l 393 1056 l 431 1056 l 436 1050 l 436 1003 m 381 1003 l 371 1003 l 367 997 l 367 914 l 343 864 q 344 858 344 861 q 326 842 344 842 q 310 863 310 842 q 331 875 310 879 l 344 914 l 344 997 l 338 1003 l 331 1003 l 331 1050 l 338 1056 l 375 1056 l 381 1050 l 381 1003 m 325 1003 l 315 1003 l 311 997 q 300 867 318 913 q 301 861 301 865 q 285 842 301 842 q 267 863 267 842 q 286 875 267 879 q 289 997 289 914 l 282 1003 l 275 1003 l 275 1050 l 282 1056 l 319 1056 l 325 1050 l 325 1003 m 269 1003 l 263 1003 l 256 997 l 256 875 q 264 863 264 872 q 256 847 264 850 q 242 843 247 843 q 229 858 229 843 q 233 875 229 868 l 233 997 l 229 1003 l 219 1003 l 219 1050 l 225 1056 l 263 1056 l 269 1050 l 269 1003 m 207 842 q 188 858 188 842 q 190 867 188 863 q 178 914 185 883 l 178 997 l 174 1003 l 164 1003 l 164 1050 l 169 1056 l 207 1056 l 214 1050 l 214 1003 l 207 1003 l 200 997 l 200 914 l 204 875 q 210 876 207 875 q 224 863 224 876 q 207 842 224 842 m 163 842 q 146 864 138 842 l 122 914 l 122 997 l 118 1003 l 108 1003 l 108 1050 l 114 1056 l 151 1056 l 158 1050 l 158 1003 l 151 1003 l 144 997 l 144 914 q 158 875 151 896 q 165 876 163 876 q 179 863 179 876 q 163 842 179 842 m 118 842 q 101 864 93 842 l 67 914 l 67 997 l 63 1003 l 53 1003 l 53 1050 l 58 1056 l 96 1056 l 103 1050 l 103 1003 l 96 1003 l 89 997 l 89 914 l 114 875 q 121 876 118 876 q 135 863 135 876 q 118 842 135 842 m 368 -42 l 139 -42 q 33 58 33 -42 l 33 789 q 110 838 33 838 l 274 838 q 368 815 344 838 q 408 722 392 793 l 497 339 q 499 236 497 296 q 500 135 500 156 q 497 58 500 89 q 492 17 494 28 q 469 -19 485 -7 q 368 -42 442 -42 m 385 860 q 372 871 385 871 q 361 860 361 871 q 372 849 361 849 q 385 860 385 849 m 340 860 q 328 871 340 871 q 317 860 317 871 q 328 849 317 849 q 340 860 340 849 m 297 860 q 286 871 297 871 q 275 860 275 871 q 286 849 275 849 q 297 860 297 849 m 257 860 q 246 871 257 871 q 235 860 235 871 q 246 849 235 849 q 257 860 257 849 m 217 860 q 206 872 217 872 q 192 860 192 872 q 206 847 192 847 q 217 860 217 847 m 174 860 q 161 871 174 871 q 150 860 150 871 q 161 849 150 849 q 174 860 174 849 m 129 860 q 117 871 129 871 q 106 860 106 871 q 117 849 106 849 q 129 860 129 849 m 258 757 l 174 757 q 118 711 118 757 l 118 383 q 156 346 118 346 q 164 346 158 346 q 172 346 169 346 q 219 290 219 346 q 224 211 219 222 q 289 183 235 183 l 353 183 q 415 285 415 183 q 408 339 415 310 l 314 728 q 258 757 307 757 m 439 78 q 401 114 439 114 l 114 114 q 76 78 76 114 q 114 43 76 43 l 401 43 q 439 78 439 43 m 353 274 q 314 236 353 236 q 287 247 299 236 q 275 274 275 258 l 275 374 q 314 411 275 411 q 353 374 353 411 l 353 274 z "},"E":{"ha":419,"x_min":32,"x_max":403,"o":"m 403 1003 l 393 1003 l 389 997 l 389 914 l 354 864 q 356 858 356 861 q 338 842 356 842 q 321 863 321 842 q 342 875 321 879 l 367 914 l 367 997 l 360 1003 l 353 1003 l 353 1050 l 360 1056 l 397 1056 l 403 1050 l 403 1003 m 292 1003 l 282 1003 l 278 997 q 267 867 285 913 q 268 861 268 865 q 251 842 268 842 q 233 863 233 842 q 253 875 233 879 q 256 997 256 914 l 249 1003 l 242 1003 l 242 1050 l 249 1056 l 286 1056 l 292 1050 l 292 1003 m 236 1003 l 229 1003 l 222 997 l 222 875 q 231 863 231 872 q 222 847 231 850 q 208 843 214 843 q 196 858 196 843 q 200 875 196 868 l 200 997 l 196 1003 l 186 1003 l 186 1050 l 192 1056 l 229 1056 l 236 1050 l 236 1003 m 174 842 q 154 858 154 842 q 157 867 154 863 q 144 914 151 883 l 144 997 l 140 1003 l 131 1003 l 131 1050 l 136 1056 l 174 1056 l 181 1050 l 181 1003 l 174 1003 l 167 997 l 167 914 l 171 875 q 176 876 174 875 q 190 863 190 876 q 174 842 190 842 m 392 -4 q 351 -42 392 -42 l 115 -42 q 47 -14 65 -42 q 32 60 32 8 l 32 158 q 33 314 32 210 q 33 469 33 418 q 53 518 33 506 l 108 554 q 118 589 118 561 l 118 763 q 185 838 118 838 l 333 838 q 392 797 392 838 q 381 769 392 781 q 347 757 371 757 q 334 757 343 757 q 321 757 325 757 q 289 728 289 757 l 289 582 q 324 550 289 551 q 379 539 368 549 q 392 510 392 525 q 380 482 392 494 q 353 469 368 469 l 138 469 q 96 417 96 469 l 96 229 q 138 183 96 183 l 351 183 q 376 172 360 183 q 392 151 392 160 l 392 -4 m 224 267 q 185 229 224 229 q 158 240 169 229 q 146 267 146 251 l 146 367 q 185 406 146 406 q 224 367 224 406 l 224 267 m 351 860 q 339 871 351 871 q 328 860 328 871 q 339 849 328 849 q 351 860 351 849 m 264 860 q 253 871 264 871 q 242 860 242 871 q 253 849 242 849 q 264 860 264 849 m 224 860 q 213 871 224 871 q 201 860 201 871 q 213 849 201 849 q 224 860 224 849 m 183 860 q 172 872 183 872 q 158 860 158 872 q 172 847 158 847 q 183 860 183 847 m 350 78 q 313 114 350 114 l 114 114 q 76 78 76 114 q 114 43 76 43 l 313 43 q 350 78 350 43 z "},"F":{"ha":403,"x_min":33,"x_max":392,"o":"m 392 1003 l 382 1003 l 378 997 l 378 914 l 343 864 q 344 858 344 861 q 326 842 344 842 q 310 863 310 842 q 331 875 310 879 l 356 914 l 356 997 l 349 1003 l 342 1003 l 342 1050 l 349 1056 l 386 1056 l 392 1050 l 392 1003 m 336 1003 l 326 1003 l 322 997 l 322 914 l 299 864 q 300 858 300 861 q 282 842 300 842 q 265 863 265 842 q 286 875 265 879 l 300 914 l 300 997 l 293 1003 l 286 1003 l 286 1050 l 293 1056 l 331 1056 l 336 1050 l 336 1003 m 281 1003 l 271 1003 l 267 997 q 256 867 274 913 q 257 861 257 865 q 240 842 257 842 q 222 863 222 842 q 242 875 222 879 q 244 997 244 914 l 238 1003 l 231 1003 l 231 1050 l 238 1056 l 275 1056 l 281 1050 l 281 1003 m 225 1003 l 218 1003 l 211 997 l 211 875 q 219 863 219 872 q 211 847 219 850 q 197 843 203 843 q 185 858 185 843 q 189 875 185 868 l 189 997 l 185 1003 l 175 1003 l 175 1050 l 181 1056 l 218 1056 l 225 1050 l 225 1003 m 163 842 q 143 858 143 842 q 146 867 143 863 q 133 914 140 883 l 133 997 l 129 1003 l 119 1003 l 119 1050 l 125 1056 l 163 1056 l 169 1050 l 169 1003 l 163 1003 l 156 997 l 156 914 l 160 875 q 165 876 163 875 q 179 863 179 876 q 163 842 179 842 m 118 842 q 101 864 93 842 l 78 914 l 78 997 l 74 1003 l 64 1003 l 64 1050 l 69 1056 l 107 1056 l 114 1050 l 114 1003 l 107 1003 l 100 997 l 100 914 q 114 875 107 896 q 121 876 118 876 q 135 863 135 876 q 118 842 135 842 m 354 271 q 315 233 354 233 q 276 271 276 233 l 276 371 q 315 408 276 408 q 354 371 354 408 l 354 271 m 388 800 q 336 757 388 757 l 161 757 q 118 706 118 757 l 118 594 q 164 553 118 553 l 315 553 q 358 513 358 553 q 329 474 358 481 q 274 472 301 472 q 219 431 219 469 l 219 93 q 206 -24 219 -4 q 135 -43 192 -43 q 33 17 33 -43 l 33 749 q 117 838 33 838 l 336 838 q 388 800 388 838 m 340 860 q 328 871 340 871 q 317 860 317 871 q 328 849 317 849 q 340 860 340 849 m 296 860 q 283 871 296 871 q 272 860 272 871 q 283 849 272 849 q 296 860 296 849 m 253 860 q 242 871 253 871 q 231 860 231 871 q 242 849 231 849 q 253 860 253 849 m 213 860 q 201 871 213 871 q 190 860 190 871 q 201 849 190 849 q 213 860 213 849 m 172 860 q 161 872 172 872 q 147 860 147 872 q 161 847 147 847 q 172 860 172 847 m 129 860 q 117 871 129 871 q 106 860 106 871 q 117 849 106 849 q 129 860 129 849 m 172 78 q 135 114 172 114 l 114 114 q 76 78 76 114 q 114 43 76 43 l 135 43 q 172 78 172 43 z "},"G":{"ha":496,"x_min":33,"x_max":464,"o":"m 269 1003 l 263 1003 l 256 997 l 256 875 q 264 863 264 872 q 256 847 264 850 q 242 843 247 843 q 229 858 229 843 q 233 875 229 868 l 233 997 l 229 1003 l 219 1003 l 219 1050 l 225 1056 l 263 1056 l 269 1050 l 269 1003 m 207 842 q 188 858 188 842 q 190 867 188 863 q 178 914 185 883 l 178 997 l 174 1003 l 164 1003 l 164 1050 l 169 1056 l 207 1056 l 214 1050 l 214 1003 l 207 1003 l 200 997 l 200 914 l 204 875 q 210 876 207 875 q 224 863 224 876 q 207 842 224 842 m 118 842 q 101 864 93 842 l 67 914 l 67 997 l 63 1003 l 53 1003 l 53 1050 l 58 1056 l 96 1056 l 103 1050 l 103 1003 l 96 1003 l 89 997 l 89 914 l 114 875 q 121 876 118 876 q 135 863 135 876 q 118 842 135 842 m 464 56 q 438 -22 464 -1 q 353 -42 411 -42 l 113 -42 q 57 -17 81 -42 q 33 39 33 7 l 33 774 q 118 838 33 838 l 219 838 q 307 756 307 838 q 247 661 307 661 l 171 661 q 118 600 118 661 l 118 256 q 189 183 118 183 l 271 183 q 315 197 304 183 q 326 244 326 211 l 326 407 q 303 457 326 446 q 251 465 292 463 q 200 481 217 467 q 183 517 183 494 q 189 543 183 532 q 213 572 201 568 q 253 574 218 574 l 401 574 q 464 510 464 574 l 464 56 m 258 283 q 219 246 258 246 q 193 258 206 246 q 181 283 181 269 l 181 383 q 192 410 181 399 q 219 422 204 422 q 247 410 235 422 q 258 383 258 399 l 258 283 m 257 860 q 246 871 257 871 q 235 860 235 871 q 246 849 235 849 q 257 860 257 849 m 217 860 q 206 872 217 872 q 192 860 192 872 q 206 847 192 847 q 217 860 217 847 m 129 860 q 117 871 129 871 q 106 860 106 871 q 117 849 106 849 q 129 860 129 849 m 406 78 q 368 114 406 114 l 114 114 q 76 78 76 114 q 114 43 76 43 l 368 43 q 406 78 406 43 z "},"H":{"ha":481,"x_min":33,"x_max":444,"o":"m 207 842 q 188 858 188 842 q 190 867 188 863 q 178 914 185 883 l 178 997 l 174 1003 l 164 1003 l 164 1050 l 169 1056 l 207 1056 l 214 1050 l 214 1003 l 207 1003 l 200 997 l 200 914 l 204 875 q 210 876 207 875 q 224 863 224 876 q 207 842 224 842 m 163 842 q 146 864 138 842 l 122 914 l 122 997 l 118 1003 l 108 1003 l 108 1050 l 114 1056 l 151 1056 l 158 1050 l 158 1003 l 151 1003 l 144 997 l 144 914 q 158 875 151 896 q 165 876 163 876 q 179 863 179 876 q 163 842 179 842 m 118 842 q 101 864 93 842 l 67 914 l 67 997 l 63 1003 l 53 1003 l 53 1050 l 58 1056 l 96 1056 l 103 1050 l 103 1003 l 96 1003 l 89 997 l 89 914 l 114 875 q 121 876 118 876 q 135 863 135 876 q 118 842 135 842 m 444 14 q 401 -42 444 -31 q 322 -47 383 -47 q 260 -43 275 -47 q 226 14 226 -32 l 226 139 q 206 176 226 169 q 158 181 196 181 q 118 139 118 181 l 118 14 q 75 -42 118 -42 q 33 14 33 -42 l 33 799 q 72 838 33 838 l 207 838 q 240 799 240 838 l 240 569 q 264 526 240 535 q 318 524 272 524 q 360 569 360 524 l 360 799 q 400 838 360 838 q 444 799 444 838 l 444 14 m 217 860 q 206 872 217 872 q 192 860 192 872 q 206 847 192 847 q 217 860 217 847 m 174 860 q 161 871 174 871 q 150 860 150 871 q 161 849 150 849 q 174 860 174 849 m 129 860 q 117 871 129 871 q 106 860 106 871 q 117 849 106 849 q 129 860 129 849 m 406 78 q 368 114 406 114 l 314 114 q 276 78 276 114 q 314 43 276 43 l 368 43 q 406 78 406 43 z "},"I":{"ha":310,"x_min":22,"x_max":283,"o":"m 174 842 q 157 864 149 842 l 122 914 l 122 997 l 118 1003 l 108 1003 l 108 1050 l 114 1056 l 151 1056 l 158 1050 l 158 1003 l 151 1003 l 144 997 l 144 914 l 169 875 q 176 876 174 876 q 190 863 190 876 q 174 842 190 842 m 282 40 q 196 -42 282 -42 l 104 -42 q 32 0 49 -42 q 22 92 22 24 q 74 192 22 178 q 113 203 93 196 q 133 228 133 210 l 133 796 q 143 823 133 803 q 179 843 153 843 q 204 825 190 843 q 218 796 218 807 l 218 233 q 233 203 218 214 q 264 180 247 192 q 283 111 281 168 q 282 40 282 133 m 185 860 q 172 871 185 871 q 161 860 161 871 q 172 849 161 849 q 185 860 185 849 m 250 78 q 213 114 250 114 l 103 114 q 65 78 65 114 q 103 43 65 43 l 213 43 q 250 78 250 43 z "},"J":{"ha":486,"x_min":33,"x_max":469,"o":"m 469 1003 l 460 1003 l 456 997 l 456 914 l 421 864 q 422 858 422 861 q 404 842 422 842 q 388 863 388 842 q 408 875 388 879 l 433 914 l 433 997 l 426 1003 l 419 1003 l 419 1050 l 426 1056 l 464 1056 l 469 1050 l 469 1003 m 292 1003 l 285 1003 l 278 997 l 278 475 q 286 463 286 472 q 278 447 286 450 q 264 443 269 443 q 251 458 251 443 q 256 475 251 468 l 251 1003 l 242 1003 l 242 1050 l 247 1056 l 285 1056 l 292 1050 l 292 1003 m 442 40 q 417 -19 442 4 q 357 -42 393 -42 l 125 -42 q 62 -18 90 -42 q 33 40 33 6 l 33 353 q 46 386 33 371 q 75 401 58 401 q 118 353 118 401 l 118 203 q 140 179 118 179 l 303 179 q 341 195 325 179 q 357 233 357 211 l 357 807 q 369 836 357 824 q 399 849 382 849 q 442 796 442 849 l 442 40 m 307 288 q 268 250 307 250 q 229 288 229 250 l 229 388 q 268 425 229 425 q 307 388 307 425 l 307 288 m 418 860 q 406 871 418 871 q 394 860 394 871 q 406 849 394 849 q 418 860 418 849 m 279 460 q 268 471 279 471 q 257 460 257 471 q 268 449 257 449 q 279 460 279 449 m 383 78 q 346 114 383 114 l 114 114 q 76 78 76 114 q 114 43 76 43 l 346 43 q 383 78 383 43 z "},"K":{"ha":511,"x_min":8,"x_max":476,"o":"m 403 1003 l 393 1003 l 389 997 l 389 914 l 167 633 q 168 626 168 629 q 150 611 168 611 q 133 632 133 611 q 143 644 133 639 l 154 644 l 367 914 l 367 997 l 360 1003 l 353 1003 l 353 1050 l 360 1056 l 397 1056 l 403 1050 l 403 1003 m 118 842 q 101 864 93 842 l 78 914 l 78 997 l 74 1003 l 64 1003 l 64 1050 l 69 1056 l 107 1056 l 114 1050 l 114 1003 l 107 1003 l 100 997 l 100 914 q 114 875 107 896 q 121 876 118 876 q 135 863 135 876 q 118 842 135 842 m 74 842 q 57 864 49 842 l 22 914 l 22 997 l 18 1003 l 8 1003 l 8 1050 l 14 1056 l 51 1056 l 58 1050 l 58 1003 l 51 1003 l 44 997 l 44 914 l 69 875 q 76 876 74 876 q 90 863 90 876 q 74 842 90 842 m 476 6 q 431 -42 476 -42 q 392 6 392 -42 l 392 131 q 376 165 392 150 q 342 181 361 181 l 319 181 q 275 131 275 181 l 275 17 q 158 -42 275 -42 q 79 -26 113 -42 q 33 33 33 -6 l 33 797 q 76 838 33 838 q 118 797 118 838 l 118 619 q 149 578 118 578 q 265 685 179 578 q 374 792 350 792 q 407 746 407 792 q 396 722 407 733 q 375 700 385 710 q 296 594 296 601 q 317 575 296 575 l 401 575 q 457 542 435 575 q 476 478 476 514 l 476 6 m 129 860 q 117 871 129 871 q 106 860 106 871 q 117 849 106 849 q 129 860 129 849 m 85 860 q 72 871 85 871 q 61 860 61 871 q 72 849 61 849 q 85 860 85 849 m 163 629 q 151 640 163 640 q 140 629 140 640 q 151 618 140 618 q 163 629 163 618 m 250 78 q 213 114 250 114 l 114 114 q 76 78 76 114 q 114 43 76 43 l 213 43 q 250 78 250 43 z "},"L":{"ha":404,"x_min":8,"x_max":375,"o":"m 118 842 q 101 864 93 842 l 78 914 l 78 997 l 74 1003 l 64 1003 l 64 1050 l 69 1056 l 107 1056 l 114 1050 l 114 1003 l 107 1003 l 100 997 l 100 914 q 114 875 107 896 q 121 876 118 876 q 135 863 135 876 q 118 842 135 842 m 74 842 q 57 864 49 842 l 22 914 l 22 997 l 18 1003 l 8 1003 l 8 1050 l 14 1056 l 51 1056 l 58 1050 l 58 1003 l 51 1003 l 44 997 l 44 914 l 69 875 q 76 876 74 876 q 90 863 90 876 q 74 842 90 842 m 375 22 q 353 -32 375 -19 q 290 -42 336 -42 l 118 -42 q 57 -19 81 -42 q 33 40 33 3 l 33 806 q 47 828 33 818 q 75 838 61 838 q 103 828 89 838 q 118 806 118 819 l 118 217 q 153 179 118 179 l 319 179 q 375 124 375 179 l 375 22 m 240 278 q 201 239 240 239 q 174 251 186 239 q 163 278 163 263 l 163 378 q 201 415 163 415 q 240 378 240 415 l 240 278 m 129 860 q 117 871 129 871 q 106 860 106 871 q 117 849 106 849 q 129 860 129 849 m 85 860 q 72 871 85 871 q 61 860 61 871 q 72 849 61 849 q 85 860 85 849 m 328 78 q 290 114 328 114 l 114 114 q 76 78 76 114 q 114 43 76 43 l 290 43 q 328 78 328 43 z "},"M":{"ha":763,"x_min":19,"x_max":733,"o":"m 569 1003 l 560 1003 l 556 997 l 556 914 l 488 864 q 489 858 489 861 q 471 842 489 842 q 454 863 454 842 q 475 875 454 879 l 533 914 l 533 997 l 526 1003 l 519 1003 l 519 1050 l 526 1056 l 564 1056 l 569 1050 l 569 1003 m 514 1003 l 504 1003 l 500 997 l 500 914 l 443 864 q 444 858 444 861 q 426 842 444 842 q 410 863 410 842 q 431 875 410 879 l 478 914 l 478 997 l 471 1003 l 464 1003 l 464 1050 l 471 1056 l 508 1056 l 514 1050 l 514 1003 m 458 1003 l 449 1003 l 444 997 l 444 914 l 400 867 q 401 861 401 865 q 385 842 401 842 q 367 863 367 842 q 386 875 367 879 l 422 914 l 422 997 l 415 1003 l 408 1003 l 408 1050 l 415 1056 l 453 1056 l 458 1050 l 458 1003 m 403 1003 l 393 1003 l 389 997 l 389 914 l 354 864 q 356 858 356 861 q 338 842 356 842 q 321 863 321 842 q 342 875 321 879 l 367 914 l 367 997 l 360 1003 l 353 1003 l 353 1050 l 360 1056 l 397 1056 l 403 1050 l 403 1003 m 347 1003 l 338 1003 l 333 997 l 333 914 l 310 864 q 311 858 311 861 q 293 842 311 842 q 276 863 276 842 q 297 875 276 879 l 311 914 l 311 997 l 304 1003 l 297 1003 l 297 1050 l 304 1056 l 342 1056 l 347 1050 l 347 1003 m 292 1003 l 282 1003 l 278 997 q 267 867 285 913 q 268 861 268 865 q 251 842 268 842 q 233 863 233 842 q 253 875 233 879 q 256 997 256 914 l 249 1003 l 242 1003 l 242 1050 l 249 1056 l 286 1056 l 292 1050 l 292 1003 m 236 1003 l 229 1003 l 222 997 l 222 875 q 231 863 231 872 q 222 847 231 850 q 208 843 214 843 q 196 858 196 843 q 200 875 196 868 l 200 997 l 196 1003 l 186 1003 l 186 1050 l 192 1056 l 229 1056 l 236 1050 l 236 1003 m 174 842 q 154 858 154 842 q 157 867 154 863 q 144 914 151 883 l 144 997 l 140 1003 l 131 1003 l 131 1050 l 136 1056 l 174 1056 l 181 1050 l 181 1003 l 174 1003 l 167 997 l 167 914 l 171 875 q 176 876 174 875 q 190 863 190 876 q 174 842 190 842 m 129 842 q 113 864 104 842 l 89 914 l 89 997 l 85 1003 l 75 1003 l 75 1050 l 81 1056 l 118 1056 l 125 1050 l 125 1003 l 118 1003 l 111 997 l 111 914 q 125 875 118 896 q 132 876 129 876 q 146 863 146 876 q 129 842 146 842 m 85 842 q 68 864 60 842 l 33 914 l 33 997 l 29 1003 l 19 1003 l 19 1050 l 25 1056 l 63 1056 l 69 1050 l 69 1003 l 63 1003 l 56 997 l 56 914 l 81 875 q 88 876 85 876 q 101 863 101 876 q 85 842 101 842 m 733 18 q 686 -42 733 -42 l 526 -42 q 492 -1 492 -42 l 492 144 q 524 185 492 181 q 556 222 556 190 q 549 265 556 233 l 457 689 q 449 706 456 692 q 375 757 421 757 q 353 714 353 757 l 353 215 q 386 183 353 183 q 400 185 390 183 q 413 185 408 185 q 451 144 451 185 l 451 -1 q 415 -42 451 -42 l 269 -42 q 232 -26 238 -42 q 229 -1 229 -19 l 229 144 q 249 185 229 172 q 269 215 269 197 l 269 365 q 244 421 269 413 q 175 424 238 424 q 122 365 122 424 l 122 215 q 159 185 122 193 q 196 144 196 178 l 196 -1 q 189 -35 196 -28 q 154 -42 182 -42 l 78 -42 q 38 -1 38 -42 l 38 751 q 164 838 38 838 l 390 838 q 471 819 443 838 q 514 757 504 796 l 640 256 q 668 204 649 219 q 708 172 688 189 q 733 126 733 147 l 733 18 m 485 860 q 472 871 485 871 q 461 860 461 871 q 472 849 461 849 q 485 860 485 849 m 440 860 q 428 871 440 871 q 417 860 417 871 q 428 849 417 849 q 440 860 440 849 m 397 860 q 386 871 397 871 q 375 860 375 871 q 386 849 375 849 q 397 860 397 849 m 351 860 q 339 871 351 871 q 328 860 328 871 q 339 849 328 849 q 351 860 351 849 m 307 860 q 294 871 307 871 q 283 860 283 871 q 294 849 283 849 q 307 860 307 849 m 264 860 q 253 871 264 871 q 242 860 242 871 q 253 849 242 849 q 264 860 264 849 m 224 860 q 213 871 224 871 q 201 860 201 871 q 213 849 201 849 q 224 860 224 849 m 183 860 q 172 872 183 872 q 158 860 158 872 q 172 847 158 847 q 183 860 183 847 m 140 860 q 128 871 140 871 q 117 860 117 871 q 128 849 117 849 q 140 860 140 849 m 96 860 q 83 871 96 871 q 72 860 72 871 q 83 849 72 849 q 96 860 96 849 m 203 531 l 203 708 q 164 746 203 746 q 125 708 125 746 l 125 531 q 164 493 125 493 q 203 531 203 493 m 694 78 q 657 114 694 114 l 569 114 q 532 78 532 114 q 569 43 532 43 l 657 43 q 694 78 694 43 m 428 78 q 390 114 428 114 l 303 114 q 265 78 265 114 q 303 43 265 43 l 390 43 q 428 78 428 43 m 161 78 q 124 114 161 114 l 114 114 q 76 78 76 114 q 114 43 76 43 l 124 43 q 161 78 161 43 z "},"N":{"ha":557,"x_min":31,"x_max":547,"o":"m 547 1003 l 538 1003 l 533 997 l 533 914 l 499 864 q 500 858 500 861 q 482 842 500 842 q 465 863 465 842 q 486 875 465 879 l 511 914 l 511 997 l 504 1003 l 497 1003 l 497 1050 l 504 1056 l 542 1056 l 547 1050 l 547 1003 m 185 842 q 165 858 165 842 q 168 867 165 863 q 156 914 163 883 l 156 997 l 151 1003 l 142 1003 l 142 1050 l 147 1056 l 185 1056 l 192 1050 l 192 1003 l 185 1003 l 178 997 l 178 914 l 182 875 q 188 876 185 875 q 201 863 201 876 q 185 842 201 842 m 140 842 q 124 864 115 842 l 100 914 l 100 997 l 96 1003 l 86 1003 l 86 1050 l 92 1056 l 129 1056 l 136 1050 l 136 1003 l 129 1003 l 122 997 l 122 914 q 136 875 129 896 q 143 876 140 876 q 157 863 157 876 q 140 842 157 842 m 96 842 q 79 864 71 842 l 44 914 l 44 997 l 40 1003 l 31 1003 l 31 1050 l 36 1056 l 74 1056 l 81 1050 l 81 1003 l 74 1003 l 67 997 l 67 914 l 92 875 q 99 876 96 876 q 113 863 113 876 q 96 842 113 842 m 522 51 q 453 -43 522 -43 l 310 -43 q 262 -28 285 -43 q 235 11 239 -12 l 190 235 q 157 261 185 261 q 119 228 119 261 l 119 1 q 75 -54 119 -54 q 36 1 36 -54 l 36 772 q 106 836 36 836 l 186 836 q 258 772 253 836 l 306 236 q 381 188 310 188 q 429 211 418 188 q 438 269 438 228 l 438 786 q 481 836 438 836 q 522 786 522 836 l 522 51 m 496 860 q 483 871 496 871 q 472 860 472 871 q 483 849 472 849 q 496 860 496 849 m 194 860 q 183 872 194 872 q 169 860 169 872 q 183 847 169 847 q 194 860 194 847 m 151 860 q 139 871 151 871 q 128 860 128 871 q 139 849 128 849 q 151 860 151 849 m 107 860 q 94 871 107 871 q 83 860 83 871 q 94 849 83 849 q 107 860 107 849 m 494 78 q 457 114 494 114 l 303 114 q 265 78 265 114 q 303 43 265 43 l 457 43 q 494 78 494 43 z "},"O":{"ha":481,"x_min":33,"x_max":447,"o":"m 436 1003 l 426 1003 l 422 997 l 422 914 l 388 864 q 389 858 389 861 q 371 842 389 842 q 354 863 354 842 q 375 875 354 879 l 400 914 l 400 997 l 393 1003 l 386 1003 l 386 1050 l 393 1056 l 431 1056 l 436 1050 l 436 1003 m 381 1003 l 371 1003 l 367 997 l 367 914 l 343 864 q 344 858 344 861 q 326 842 344 842 q 310 863 310 842 q 331 875 310 879 l 344 914 l 344 997 l 338 1003 l 331 1003 l 331 1050 l 338 1056 l 375 1056 l 381 1050 l 381 1003 m 325 1003 l 315 1003 l 311 997 q 300 867 318 913 q 301 861 301 865 q 285 842 301 842 q 267 863 267 842 q 286 875 267 879 q 289 997 289 914 l 282 1003 l 275 1003 l 275 1050 l 282 1056 l 319 1056 l 325 1050 l 325 1003 m 118 842 q 101 864 93 842 l 67 914 l 67 997 l 63 1003 l 53 1003 l 53 1050 l 58 1056 l 96 1056 l 103 1050 l 103 1003 l 96 1003 l 89 997 l 89 914 l 114 875 q 121 876 118 876 q 135 863 135 876 q 118 842 135 842 m 447 56 q 358 -42 447 -42 l 142 -42 q 33 44 33 -42 l 33 744 q 126 838 33 838 l 375 838 q 429 810 411 838 q 447 744 447 782 l 447 56 m 385 860 q 372 871 385 871 q 361 860 361 871 q 372 849 361 849 q 385 860 385 849 m 340 860 q 328 871 340 871 q 317 860 317 871 q 328 849 317 849 q 340 860 340 849 m 297 860 q 286 871 297 871 q 275 860 275 871 q 286 849 275 849 q 297 860 297 849 m 129 860 q 117 871 129 871 q 106 860 106 871 q 117 849 106 849 q 129 860 129 849 m 363 257 l 363 682 q 294 757 363 757 l 174 757 q 118 682 118 757 l 118 257 q 174 179 118 179 l 294 179 q 349 197 336 179 q 363 257 363 215 m 394 78 q 357 114 394 114 l 125 114 q 88 78 88 114 q 125 43 88 43 l 357 43 q 394 78 394 43 m 306 349 q 272 308 306 308 l 211 308 q 183 349 183 308 l 183 428 q 211 465 183 465 l 272 465 q 306 428 306 465 l 306 349 z "},"P":{"ha":499,"x_min":33,"x_max":474,"o":"m 436 1003 l 426 1003 l 422 997 l 422 914 l 388 864 q 389 858 389 861 q 371 842 389 842 q 354 863 354 842 q 375 875 354 879 l 400 914 l 400 997 l 393 1003 l 386 1003 l 386 1050 l 393 1056 l 431 1056 l 436 1050 l 436 1003 m 381 1003 l 371 1003 l 367 997 l 367 914 l 343 864 q 344 858 344 861 q 326 842 344 842 q 310 863 310 842 q 331 875 310 879 l 344 914 l 344 997 l 338 1003 l 331 1003 l 331 1050 l 338 1056 l 375 1056 l 381 1050 l 381 1003 m 269 1003 l 263 1003 l 256 997 l 256 875 q 264 863 264 872 q 256 847 264 850 q 242 843 247 843 q 229 858 229 843 q 233 875 229 868 l 233 997 l 229 1003 l 219 1003 l 219 1050 l 225 1056 l 263 1056 l 269 1050 l 269 1003 m 207 842 q 188 858 188 842 q 190 867 188 863 q 178 914 185 883 l 178 997 l 174 1003 l 164 1003 l 164 1050 l 169 1056 l 207 1056 l 214 1050 l 214 1003 l 207 1003 l 200 997 l 200 914 l 204 875 q 210 876 207 875 q 224 863 224 876 q 207 842 224 842 m 163 842 q 146 864 138 842 l 122 914 l 122 997 l 118 1003 l 108 1003 l 108 1050 l 114 1056 l 151 1056 l 158 1050 l 158 1003 l 151 1003 l 144 997 l 144 914 q 158 875 151 896 q 165 876 163 876 q 179 863 179 876 q 163 842 179 842 m 474 510 q 425 454 474 454 l 261 454 q 219 418 219 454 l 219 32 q 142 -42 219 -42 q 33 0 33 -42 l 33 776 q 108 838 33 838 l 400 838 q 474 733 474 838 l 474 510 m 347 -6 q 308 -44 347 -44 q 281 -33 293 -44 q 269 -6 269 -21 l 269 94 q 308 132 269 132 q 347 94 347 132 l 347 -6 m 385 860 q 372 871 385 871 q 361 860 361 871 q 372 849 361 849 q 385 860 385 849 m 340 860 q 328 871 340 871 q 317 860 317 871 q 328 849 317 849 q 340 860 340 849 m 257 860 q 246 871 257 871 q 235 860 235 871 q 246 849 235 849 q 257 860 257 849 m 217 860 q 206 872 217 872 q 192 860 192 872 q 206 847 192 847 q 217 860 217 847 m 174 860 q 161 871 174 871 q 150 860 150 871 q 161 849 150 849 q 174 860 174 849 m 256 571 l 256 693 q 229 750 256 739 q 161 757 215 757 q 96 693 96 757 l 96 599 q 161 528 96 528 l 197 528 q 239 533 228 528 q 256 571 256 543 m 172 78 q 135 114 172 114 l 114 114 q 76 78 76 114 q 114 43 76 43 l 135 43 q 172 78 172 43 z "},"Q":{"ha":525,"x_min":33,"x_max":526,"o":"m 436 1003 l 426 1003 l 422 997 l 422 914 l 388 864 q 389 858 389 861 q 371 842 389 842 q 354 863 354 842 q 375 875 354 879 l 400 914 l 400 997 l 393 1003 l 386 1003 l 386 1050 l 393 1056 l 431 1056 l 436 1050 l 436 1003 m 381 1003 l 371 1003 l 367 997 l 367 914 l 343 864 q 344 858 344 861 q 326 842 344 842 q 310 863 310 842 q 331 875 310 879 l 344 914 l 344 997 l 338 1003 l 331 1003 l 331 1050 l 338 1056 l 375 1056 l 381 1050 l 381 1003 m 325 1003 l 315 1003 l 311 997 q 300 867 318 913 q 301 861 301 865 q 285 842 301 842 q 267 863 267 842 q 286 875 267 879 q 289 997 289 914 l 282 1003 l 275 1003 l 275 1050 l 282 1056 l 319 1056 l 325 1050 l 325 1003 m 269 1003 l 263 1003 l 256 997 l 256 875 q 264 863 264 872 q 256 847 264 850 q 242 843 247 843 q 229 858 229 843 q 233 875 229 868 l 233 997 l 229 1003 l 219 1003 l 219 1050 l 225 1056 l 263 1056 l 269 1050 l 269 1003 m 163 842 q 146 864 138 842 l 122 914 l 122 997 l 118 1003 l 108 1003 l 108 1050 l 114 1056 l 151 1056 l 158 1050 l 158 1003 l 151 1003 l 144 997 l 144 914 q 158 875 151 896 q 165 876 163 876 q 179 863 179 876 q 163 842 179 842 m 118 842 q 101 864 93 842 l 67 914 l 67 997 l 63 1003 l 53 1003 l 53 1050 l 58 1056 l 96 1056 l 103 1050 l 103 1003 l 96 1003 l 89 997 l 89 914 l 114 875 q 121 876 118 876 q 135 863 135 876 q 118 842 135 842 m 526 10 q 496 -11 526 -11 l 442 -11 q 394 -26 424 -11 q 340 -42 365 -42 l 104 -42 q 53 -15 74 -42 q 33 44 33 13 l 33 776 q 45 824 33 811 q 92 838 57 838 l 353 838 q 415 811 390 838 q 440 747 440 785 l 440 215 q 471 179 440 179 q 483 179 475 179 q 496 181 492 181 q 526 143 526 181 l 526 10 m 385 860 q 372 871 385 871 q 361 860 361 871 q 372 849 361 849 q 385 860 385 849 m 340 860 q 328 871 340 871 q 317 860 317 871 q 328 849 317 849 q 340 860 340 849 m 297 860 q 286 871 297 871 q 275 860 275 871 q 286 849 275 849 q 297 860 297 849 m 257 860 q 246 871 257 871 q 235 860 235 871 q 246 849 235 849 q 257 860 257 849 m 174 860 q 161 871 174 871 q 150 860 150 871 q 161 849 150 849 q 174 860 174 849 m 129 860 q 117 871 129 871 q 106 860 106 871 q 117 849 106 849 q 129 860 129 849 m 371 315 l 371 699 q 357 754 371 743 q 297 765 343 765 l 251 765 q 200 690 200 765 l 200 229 q 247 183 200 183 l 272 183 q 303 213 299 183 q 303 261 303 210 q 329 279 303 279 q 366 285 361 279 q 371 315 371 292 m 494 78 q 457 114 494 114 l 114 114 q 76 78 76 114 q 114 43 76 43 l 457 43 q 494 78 494 43 m 336 581 q 297 543 336 543 q 258 581 258 543 l 258 681 q 270 707 258 696 q 297 718 282 718 q 336 681 336 718 l 336 581 z "},"R":{"ha":503,"x_min":19,"x_max":475,"o":"m 403 1003 l 393 1003 l 389 997 l 389 914 l 354 864 q 356 858 356 861 q 338 842 356 842 q 321 863 321 842 q 342 875 321 879 l 367 914 l 367 997 l 360 1003 l 353 1003 l 353 1050 l 360 1056 l 397 1056 l 403 1050 l 403 1003 m 292 1003 l 282 1003 l 278 997 q 267 867 285 913 q 268 861 268 865 q 251 842 268 842 q 233 863 233 842 q 253 875 233 879 q 256 997 256 914 l 249 1003 l 242 1003 l 242 1050 l 249 1056 l 286 1056 l 292 1050 l 292 1003 m 174 842 q 154 858 154 842 q 157 867 154 863 q 144 914 151 883 l 144 997 l 140 1003 l 131 1003 l 131 1050 l 136 1056 l 174 1056 l 181 1050 l 181 1003 l 174 1003 l 167 997 l 167 914 l 171 875 q 176 876 174 875 q 190 863 190 876 q 174 842 190 842 m 129 842 q 113 864 104 842 l 89 914 l 89 997 l 85 1003 l 75 1003 l 75 1050 l 81 1056 l 118 1056 l 125 1050 l 125 1003 l 118 1003 l 111 997 l 111 914 q 125 875 118 896 q 132 876 129 876 q 146 863 146 876 q 129 842 146 842 m 85 842 q 68 864 60 842 l 33 914 l 33 997 l 29 1003 l 19 1003 l 19 1050 l 25 1056 l 63 1056 l 69 1050 l 69 1003 l 63 1003 l 56 997 l 56 914 l 81 875 q 88 876 85 876 q 101 863 101 876 q 85 842 101 842 m 475 11 q 432 -42 475 -42 q 390 11 390 -42 l 390 450 q 315 488 390 488 q 242 450 242 488 l 242 11 q 129 -42 242 -42 q 33 11 33 -42 l 33 774 q 107 838 33 838 l 308 838 q 392 757 392 838 l 392 596 q 449 522 392 581 q 475 471 475 496 l 475 11 m 354 4 q 315 -33 354 -33 q 276 4 276 -33 l 276 104 q 315 142 276 142 q 354 104 354 142 l 354 4 m 351 860 q 339 871 351 871 q 328 860 328 871 q 339 849 328 849 q 351 860 351 849 m 264 860 q 253 871 264 871 q 242 860 242 871 q 253 849 242 849 q 264 860 264 849 m 183 860 q 172 872 183 872 q 158 860 158 872 q 172 847 158 847 q 183 860 183 847 m 140 860 q 128 871 140 871 q 117 860 117 871 q 128 849 117 849 q 140 860 140 849 m 96 860 q 83 871 96 871 q 72 860 72 871 q 83 849 72 849 q 96 860 96 849 m 204 608 l 204 711 q 153 757 204 757 l 136 757 q 85 711 85 757 l 85 608 q 132 558 85 558 l 153 558 q 204 608 204 558 m 206 78 q 168 114 206 114 l 114 114 q 76 78 76 114 q 114 43 76 43 l 168 43 q 206 78 206 43 z "},"S":{"ha":489,"x_min":22,"x_max":481,"o":"m 481 1003 l 471 1003 l 467 997 l 467 914 l 432 864 q 433 858 433 861 q 415 842 433 842 q 399 863 399 842 q 419 875 399 879 l 444 914 l 444 997 l 438 1003 l 431 1003 l 431 1050 l 438 1056 l 475 1056 l 481 1050 l 481 1003 m 450 700 q 411 661 450 661 q 384 673 396 661 q 372 700 372 685 l 372 800 q 411 838 372 838 q 450 800 450 838 l 450 700 m 196 842 q 176 858 176 842 q 179 867 176 863 q 167 914 174 883 l 167 997 l 163 1003 l 153 1003 l 153 1050 l 158 1056 l 196 1056 l 203 1050 l 203 1003 l 196 1003 l 189 997 l 189 914 l 193 875 q 199 876 196 875 q 213 863 213 876 q 196 842 213 842 m 151 842 q 135 864 126 842 l 111 914 l 111 997 l 107 1003 l 97 1003 l 97 1050 l 103 1056 l 140 1056 l 147 1050 l 147 1003 l 140 1003 l 133 997 l 133 914 q 147 875 140 896 q 154 876 151 876 q 168 863 168 876 q 151 842 168 842 m 107 842 q 90 864 82 842 l 56 914 l 56 997 l 51 1003 l 42 1003 l 42 1050 l 47 1056 l 85 1056 l 92 1050 l 92 1003 l 85 1003 l 78 997 l 78 914 l 103 875 q 110 876 107 876 q 124 863 124 876 q 107 842 124 842 m 461 65 q 446 -17 461 3 q 361 -42 425 -42 l 63 -42 q 22 -12 40 -42 l 22 143 q 63 181 22 178 q 143 188 103 185 q 185 247 185 199 l 185 403 q 163 479 185 460 q 113 493 147 493 q 106 493 110 493 q 100 493 101 493 q 54 504 67 493 q 33 568 33 519 l 33 758 q 110 838 33 838 l 197 838 q 247 796 247 838 q 236 769 247 782 q 169 757 225 757 q 119 715 128 757 q 118 640 118 710 q 134 585 118 599 q 192 572 150 572 l 374 572 q 461 494 461 572 l 461 65 m 429 860 q 417 871 429 871 q 406 860 406 871 q 417 849 406 849 q 429 860 429 849 m 206 860 q 194 872 206 872 q 181 860 181 872 q 194 847 181 847 q 206 860 206 847 m 163 860 q 150 871 163 871 q 139 860 139 871 q 150 849 139 849 q 163 860 163 849 m 118 860 q 106 871 118 871 q 94 860 94 871 q 106 849 94 849 q 118 860 118 849 m 394 78 q 357 114 394 114 l 114 114 q 76 78 76 114 q 114 43 76 43 l 357 43 q 394 78 394 43 z "},"T":{"ha":463,"x_min":13,"x_max":435,"o":"m 425 1003 l 415 1003 l 411 997 l 411 914 l 376 864 q 378 858 378 861 q 360 842 378 842 q 343 863 343 842 q 364 875 343 879 l 389 914 l 389 997 l 382 1003 l 375 1003 l 375 1050 l 382 1056 l 419 1056 l 425 1050 l 425 1003 m 369 1003 l 360 1003 l 356 997 l 356 914 l 332 864 q 333 858 333 861 q 315 842 333 842 q 299 863 299 842 q 319 875 299 879 l 333 914 l 333 997 l 326 1003 l 319 1003 l 319 1050 l 326 1056 l 364 1056 l 369 1050 l 369 1003 m 258 1003 l 251 1003 l 244 997 l 244 875 q 253 863 253 872 q 244 847 253 850 q 231 843 236 843 q 218 858 218 843 q 222 875 218 868 l 222 997 l 218 1003 l 208 1003 l 208 1050 l 214 1056 l 251 1056 l 258 1050 l 258 1003 m 196 842 q 176 858 176 842 q 179 867 176 863 q 167 914 174 883 l 167 997 l 163 1003 l 153 1003 l 153 1050 l 158 1056 l 196 1056 l 203 1050 l 203 1003 l 196 1003 l 189 997 l 189 914 l 193 875 q 199 876 196 875 q 213 863 213 876 q 196 842 213 842 m 107 842 q 90 864 82 842 l 56 914 l 56 997 l 51 1003 l 42 1003 l 42 1050 l 47 1056 l 85 1056 l 92 1050 l 92 1003 l 85 1003 l 78 997 l 78 914 l 103 875 q 110 876 107 876 q 124 863 124 876 q 107 842 124 842 m 403 454 q 364 417 403 417 q 325 454 325 417 l 325 554 q 337 581 325 569 q 364 592 349 592 q 403 554 403 592 l 403 454 m 435 743 q 422 690 435 714 q 379 661 406 661 l 317 661 q 272 618 272 661 l 272 11 q 231 -40 272 -40 q 188 11 188 -40 l 188 618 q 149 661 188 661 l 63 661 q 13 740 13 661 q 75 838 13 838 l 342 838 q 435 743 435 838 m 374 860 q 361 871 374 871 q 350 860 350 871 q 361 849 350 849 q 374 860 374 849 m 329 860 q 317 871 329 871 q 306 860 306 871 q 317 849 306 849 q 329 860 329 849 m 246 860 q 235 871 246 871 q 224 860 224 871 q 235 849 224 849 q 246 860 246 849 m 206 860 q 194 872 206 872 q 181 860 181 872 q 194 847 181 847 q 206 860 206 847 m 118 860 q 106 871 118 871 q 94 860 94 871 q 106 849 94 849 q 118 860 118 849 z "},"U":{"ha":486,"x_min":8,"x_max":469,"o":"m 469 1003 l 460 1003 l 456 997 q 444 867 463 913 q 446 861 446 865 q 429 842 446 842 q 411 863 411 842 q 431 875 411 879 q 433 997 433 914 l 426 1003 l 419 1003 l 419 1050 l 426 1056 l 464 1056 l 469 1050 l 469 1003 m 414 1003 l 407 1003 l 400 997 l 400 875 q 408 863 408 872 q 400 847 408 850 q 386 843 392 843 q 374 858 374 843 q 378 875 374 868 l 378 997 l 374 1003 l 364 1003 l 364 1050 l 369 1056 l 407 1056 l 414 1050 l 414 1003 m 118 842 q 101 864 93 842 l 78 914 l 78 997 l 74 1003 l 64 1003 l 64 1050 l 69 1056 l 107 1056 l 114 1050 l 114 1003 l 107 1003 l 100 997 l 100 914 q 114 875 107 896 q 121 876 118 876 q 135 863 135 876 q 118 842 135 842 m 74 842 q 57 864 49 842 l 22 914 l 22 997 l 18 1003 l 8 1003 l 8 1050 l 14 1056 l 51 1056 l 58 1050 l 58 1003 l 51 1003 l 44 997 l 44 914 l 69 875 q 76 876 74 876 q 90 863 90 876 q 74 842 90 842 m 449 47 q 428 -22 449 -1 q 358 -42 408 -42 l 125 -42 q 33 47 33 -42 l 33 789 q 75 847 33 847 q 104 835 90 847 q 118 807 118 822 l 118 222 q 171 179 118 179 l 319 179 q 358 196 349 179 q 364 240 364 207 l 364 789 q 408 844 364 844 q 449 807 449 844 l 449 47 m 331 267 q 292 229 331 229 q 265 240 276 229 q 253 267 253 251 l 253 367 q 292 406 253 406 q 331 367 331 406 l 331 267 m 442 860 q 431 871 442 871 q 419 860 419 871 q 431 849 419 849 q 442 860 442 849 m 401 860 q 390 871 401 871 q 379 860 379 871 q 390 849 379 849 q 401 860 401 849 m 129 860 q 117 871 129 871 q 106 860 106 871 q 117 849 106 849 q 129 860 129 849 m 85 860 q 72 871 85 871 q 61 860 61 871 q 72 849 61 849 q 85 860 85 849 m 406 78 q 368 114 406 114 l 114 114 q 76 78 76 114 q 114 43 76 43 l 368 43 q 406 78 406 43 z "},"V":{"ha":571,"x_min":8,"x_max":531,"o":"m 525 1003 l 515 1003 l 511 997 l 511 914 l 476 864 q 478 858 478 861 q 460 842 478 842 q 443 863 443 842 q 464 875 443 879 l 489 914 l 489 997 l 482 1003 l 475 1003 l 475 1050 l 482 1056 l 519 1056 l 525 1050 l 525 1003 m 469 1003 l 460 1003 l 456 997 l 456 914 l 432 864 q 433 858 433 861 q 415 842 433 842 q 399 863 399 842 q 419 875 399 879 l 433 914 l 433 997 l 426 1003 l 419 1003 l 419 1050 l 426 1056 l 464 1056 l 469 1050 l 469 1003 m 358 1003 l 351 1003 l 344 997 l 344 875 q 353 863 353 872 q 344 847 353 850 q 331 843 336 843 q 318 858 318 843 q 322 875 318 868 l 322 997 l 318 1003 l 308 1003 l 308 1050 l 314 1056 l 351 1056 l 358 1050 l 358 1003 m 163 842 q 143 858 143 842 q 146 867 143 863 q 133 914 140 883 l 133 997 l 129 1003 l 119 1003 l 119 1050 l 125 1056 l 163 1056 l 169 1050 l 169 1003 l 163 1003 l 156 997 l 156 914 l 160 875 q 165 876 163 875 q 179 863 179 876 q 163 842 179 842 m 118 842 q 101 864 93 842 l 78 914 l 78 997 l 74 1003 l 64 1003 l 64 1050 l 69 1056 l 107 1056 l 114 1050 l 114 1003 l 107 1003 l 100 997 l 100 914 q 114 875 107 896 q 121 876 118 876 q 135 863 135 876 q 118 842 135 842 m 74 842 q 57 864 49 842 l 22 914 l 22 997 l 18 1003 l 8 1003 l 8 1050 l 14 1056 l 51 1056 l 58 1050 l 58 1003 l 51 1003 l 44 997 l 44 914 l 69 875 q 76 876 74 876 q 90 863 90 876 q 74 842 90 842 m 531 489 q 508 432 531 471 q 486 381 486 393 l 486 25 q 468 -21 486 0 q 425 -42 450 -42 l 369 -42 q 244 15 279 -42 q 233 39 235 31 l 110 574 q 83 622 104 597 l 42 656 q 17 703 17 674 l 17 778 q 75 838 17 838 l 194 838 q 235 822 215 838 q 256 786 256 807 l 256 683 q 224 644 256 649 q 193 606 193 640 q 201 564 196 590 l 269 239 q 279 219 271 233 q 364 172 306 172 q 403 215 403 172 l 403 392 q 383 422 403 422 l 326 422 q 290 461 290 422 l 290 786 q 306 821 290 804 q 339 838 321 838 l 475 838 q 515 819 499 838 q 531 778 531 801 l 531 489 m 133 7 q 94 -31 133 -31 q 67 -19 79 -31 q 56 7 56 -8 l 56 107 q 94 144 56 144 q 133 107 133 144 l 133 7 m 474 860 q 461 871 474 871 q 450 860 450 871 q 461 849 450 849 q 474 860 474 849 m 429 860 q 417 871 429 871 q 406 860 406 871 q 417 849 406 849 q 429 860 429 849 m 346 860 q 335 871 346 871 q 324 860 324 871 q 335 849 324 849 q 346 860 346 849 m 172 860 q 161 872 172 872 q 147 860 147 872 q 161 847 147 847 q 172 860 172 847 m 129 860 q 117 871 129 871 q 106 860 106 871 q 117 849 106 849 q 129 860 129 849 m 85 860 q 72 871 85 871 q 61 860 61 871 q 72 849 61 849 q 85 860 85 849 m 461 78 q 424 114 461 114 l 314 114 q 276 78 276 114 q 314 43 276 43 l 424 43 q 461 78 461 43 z "},"W":{"ha":746,"x_min":31,"x_max":718,"o":"m 703 1003 l 693 1003 l 689 997 l 689 914 l 654 864 q 656 858 656 861 q 638 842 656 842 q 621 863 621 842 q 642 875 621 879 l 667 914 l 667 997 l 660 1003 l 653 1003 l 653 1050 l 660 1056 l 697 1056 l 703 1050 l 703 1003 m 647 1003 l 638 1003 l 633 997 l 633 914 l 610 864 q 611 858 611 861 q 593 842 611 842 q 576 863 576 842 q 597 875 576 879 l 611 914 l 611 997 l 604 1003 l 597 1003 l 597 1050 l 604 1056 l 642 1056 l 647 1050 l 647 1003 m 592 1003 l 582 1003 l 578 997 q 567 867 585 913 q 568 861 568 865 q 551 842 568 842 q 533 863 533 842 q 553 875 533 879 q 556 997 556 914 l 549 1003 l 542 1003 l 542 1050 l 549 1056 l 586 1056 l 592 1050 l 592 1003 m 536 1003 l 529 1003 l 522 997 l 522 875 q 531 863 531 872 q 522 847 531 850 q 508 843 514 843 q 496 858 496 843 q 500 875 496 868 l 500 997 l 496 1003 l 486 1003 l 486 1050 l 492 1056 l 529 1056 l 536 1050 l 536 1003 m 407 842 q 388 858 388 842 q 390 867 388 863 q 378 914 385 883 l 378 997 l 374 1003 l 364 1003 l 364 1050 l 369 1056 l 407 1056 l 414 1050 l 414 1003 l 407 1003 l 400 997 l 400 914 l 404 875 q 410 876 407 875 q 424 863 424 876 q 407 842 424 842 m 363 842 q 346 864 338 842 l 322 914 l 322 997 l 318 1003 l 308 1003 l 308 1050 l 314 1056 l 351 1056 l 358 1050 l 358 1003 l 351 1003 l 344 997 l 344 914 q 358 875 351 896 q 365 876 363 876 q 379 863 379 876 q 363 842 379 842 m 303 1003 l 293 1003 l 289 997 q 278 867 296 913 q 279 861 279 865 q 263 842 279 842 q 244 863 244 842 q 264 875 244 879 q 267 997 267 914 l 260 1003 l 253 1003 l 253 1050 l 260 1056 l 297 1056 l 303 1050 l 303 1003 m 247 1003 l 240 1003 l 233 997 l 233 875 q 242 863 242 872 q 233 847 242 850 q 219 843 225 843 q 207 858 207 843 q 211 875 207 868 l 211 997 l 207 1003 l 197 1003 l 197 1050 l 203 1056 l 240 1056 l 247 1050 l 247 1003 m 185 842 q 165 858 165 842 q 168 867 165 863 q 156 914 163 883 l 156 997 l 151 1003 l 142 1003 l 142 1050 l 147 1056 l 185 1056 l 192 1050 l 192 1003 l 185 1003 l 178 997 l 178 914 l 182 875 q 188 876 185 875 q 201 863 201 876 q 185 842 201 842 m 140 842 q 124 864 115 842 l 100 914 l 100 997 l 96 1003 l 86 1003 l 86 1050 l 92 1056 l 129 1056 l 136 1050 l 136 1003 l 129 1003 l 122 997 l 122 914 q 136 875 129 896 q 143 876 140 876 q 157 863 157 876 q 140 842 157 842 m 96 842 q 79 864 71 842 l 44 914 l 44 997 l 40 1003 l 31 1003 l 31 1050 l 36 1056 l 74 1056 l 81 1050 l 81 1003 l 74 1003 l 67 997 l 67 914 l 92 875 q 99 876 96 876 q 113 863 113 876 q 96 842 113 842 m 718 703 q 678 643 718 674 q 625 574 632 608 l 510 39 q 465 -25 500 -4 q 386 -42 436 -42 l 160 -42 q 33 44 33 -42 l 33 768 q 49 817 33 796 q 86 838 64 838 l 150 838 q 192 797 192 838 l 192 683 q 155 644 192 651 q 118 614 118 636 l 118 242 q 146 188 118 197 q 214 183 158 183 q 264 242 264 183 l 264 614 q 244 645 264 632 q 225 683 225 658 l 225 797 q 231 827 225 817 q 264 838 236 838 l 411 838 q 447 797 447 838 l 447 683 q 410 644 447 644 q 396 646 404 644 q 382 646 386 646 q 349 614 349 646 l 349 349 q 359 316 349 332 q 386 300 369 300 q 483 367 467 300 l 533 564 q 540 606 540 592 q 508 644 540 639 q 475 683 475 649 l 475 797 q 511 838 475 838 l 658 838 q 718 778 718 838 l 718 703 m 664 4 q 625 -33 664 -33 q 586 4 586 -33 l 586 104 q 625 142 586 142 q 664 104 664 142 l 664 4 m 651 860 q 639 871 651 871 q 628 860 628 871 q 639 849 628 849 q 651 860 651 849 m 607 860 q 594 871 607 871 q 583 860 583 871 q 594 849 583 849 q 607 860 607 849 m 564 860 q 553 871 564 871 q 542 860 542 871 q 553 849 542 849 q 564 860 564 849 m 524 860 q 513 871 524 871 q 501 860 501 871 q 513 849 501 849 q 524 860 524 849 m 417 860 q 406 872 417 872 q 392 860 392 872 q 406 847 392 847 q 417 860 417 847 m 374 860 q 361 871 374 871 q 350 860 350 871 q 361 849 350 849 q 374 860 374 849 m 275 860 q 264 871 275 871 q 253 860 253 871 q 264 849 253 849 q 275 860 275 849 m 235 860 q 224 871 235 871 q 213 860 213 871 q 224 849 213 849 q 235 860 235 849 m 194 860 q 183 872 194 872 q 169 860 169 872 q 183 847 169 847 q 194 860 194 847 m 151 860 q 139 871 151 871 q 128 860 128 871 q 139 849 128 849 q 151 860 151 849 m 107 860 q 94 871 107 871 q 83 860 83 871 q 94 849 83 849 q 107 860 107 849 m 461 78 q 424 114 461 114 l 125 114 q 88 78 88 114 q 125 43 88 43 l 424 43 q 461 78 461 43 z "},"X":{"ha":474,"x_min":1,"x_max":468,"o":"m 458 1003 l 449 1003 l 444 997 l 444 914 l 410 864 q 411 858 411 861 q 393 842 411 842 q 376 863 376 842 q 397 875 376 879 l 422 914 l 422 997 l 415 1003 l 408 1003 l 408 1050 l 415 1056 l 453 1056 l 458 1050 l 458 1003 m 118 842 q 101 864 93 842 l 78 914 l 78 997 l 74 1003 l 64 1003 l 64 1050 l 69 1056 l 107 1056 l 114 1050 l 114 1003 l 107 1003 l 100 997 l 100 914 q 114 875 107 896 q 121 876 118 876 q 135 863 135 876 q 118 842 135 842 m 74 842 q 57 864 49 842 l 22 914 l 22 997 l 18 1003 l 8 1003 l 8 1050 l 14 1056 l 51 1056 l 58 1050 l 58 1003 l 51 1003 l 44 997 l 44 914 l 69 875 q 76 876 74 876 q 90 863 90 876 q 74 842 90 842 m 468 0 q 424 -42 468 -42 l 372 -42 q 308 33 324 -42 l 236 374 q 221 400 231 400 q 203 365 214 400 l 90 0 q 39 -44 76 -44 q 1 -15 1 -44 q 17 28 1 -17 q 188 535 188 529 q 157 621 188 540 q 99 661 142 661 q 88 660 96 661 q 75 660 79 660 q 36 677 47 660 q 25 717 25 694 l 25 796 q 32 831 25 824 q 67 838 39 838 l 115 838 q 156 821 143 838 q 175 779 163 814 l 219 661 q 236 633 231 633 q 265 661 253 633 l 331 811 q 379 849 347 849 q 419 810 419 849 q 349 661 419 803 q 281 514 279 519 l 383 192 q 444 186 442 188 q 468 140 468 178 l 468 0 m 106 421 q 67 383 106 383 q 28 421 28 383 l 28 521 q 67 558 28 558 q 106 521 106 558 l 106 421 m 407 860 q 394 871 407 871 q 383 860 383 871 q 394 849 383 849 q 407 860 407 849 m 129 860 q 117 871 129 871 q 106 860 106 871 q 117 849 106 849 q 129 860 129 849 m 85 860 q 72 871 85 871 q 61 860 61 871 q 72 849 61 849 q 85 860 85 849 m 439 78 q 401 114 439 114 l 381 114 q 343 78 343 114 q 381 43 343 43 l 401 43 q 439 78 439 43 z "},"Y":{"ha":521,"x_min":8,"x_max":503,"o":"m 503 1003 l 493 1003 l 489 997 l 489 914 l 454 864 q 456 858 456 861 q 438 842 456 842 q 421 863 421 842 q 442 875 421 879 l 467 914 l 467 997 l 460 1003 l 453 1003 l 453 1050 l 460 1056 l 497 1056 l 503 1050 l 503 1003 m 447 1003 l 438 1003 l 433 997 l 433 914 l 410 864 q 411 858 411 861 q 393 842 411 842 q 376 863 376 842 q 397 875 376 879 l 411 914 l 411 997 l 404 1003 l 397 1003 l 397 1050 l 404 1056 l 442 1056 l 447 1050 l 447 1003 m 392 1003 l 382 1003 l 378 997 q 367 867 385 913 q 368 861 368 865 q 351 842 368 842 q 333 863 333 842 q 353 875 333 879 q 356 997 356 914 l 349 1003 l 342 1003 l 342 1050 l 349 1056 l 386 1056 l 392 1050 l 392 1003 m 118 842 q 101 864 93 842 l 78 914 l 78 997 l 74 1003 l 64 1003 l 64 1050 l 69 1056 l 107 1056 l 114 1050 l 114 1003 l 107 1003 l 100 997 l 100 914 q 114 875 107 896 q 121 876 118 876 q 135 863 135 876 q 118 842 135 842 m 74 842 q 57 864 49 842 l 22 914 l 22 997 l 18 1003 l 8 1003 l 8 1050 l 14 1056 l 51 1056 l 58 1050 l 58 1003 l 51 1003 l 44 997 l 44 914 l 69 875 q 76 876 74 876 q 90 863 90 876 q 74 842 90 842 m 214 1003 l 207 1003 l 200 997 l 200 408 q 208 396 208 406 q 200 380 208 383 q 186 376 192 376 q 174 392 174 376 q 178 408 174 401 l 174 1003 l 164 1003 l 164 1050 l 169 1056 l 207 1056 l 214 1050 l 214 1003 m 485 272 q 382 181 485 181 q 371 161 371 181 l 371 0 q 329 -42 371 -42 q 286 0 286 -42 l 286 188 q 249 222 286 207 l 75 296 q 33 375 33 314 l 33 789 q 75 838 33 838 q 118 807 118 838 l 118 389 q 144 358 118 371 q 261 304 258 304 q 271 318 271 304 l 271 769 q 321 832 271 822 q 374 838 349 838 q 429 833 400 838 q 485 769 485 822 l 485 272 m 126 11 q 88 -28 126 -28 q 60 -16 72 -28 q 49 11 49 -4 l 49 111 q 88 149 49 149 q 126 111 126 149 l 126 11 m 451 860 q 439 871 451 871 q 428 860 428 871 q 439 849 428 849 q 451 860 451 849 m 407 860 q 394 871 407 871 q 383 860 383 871 q 394 849 383 849 q 407 860 407 849 m 364 860 q 353 871 364 871 q 342 860 342 871 q 353 849 342 849 q 364 860 364 849 m 129 860 q 117 871 129 871 q 106 860 106 871 q 117 849 106 849 q 129 860 129 849 m 85 860 q 72 871 85 871 q 61 860 61 871 q 72 849 61 849 q 85 860 85 849 m 201 393 q 190 404 201 404 q 179 393 179 404 q 190 382 179 382 q 201 393 201 382 z "},"Z":{"ha":482,"x_min":19,"x_max":453,"o":"m 436 1003 l 426 1003 l 422 997 l 422 914 l 388 864 q 389 858 389 861 q 371 842 389 842 q 354 863 354 842 q 375 875 354 879 l 400 914 l 400 997 l 393 1003 l 386 1003 l 386 1050 l 393 1056 l 431 1056 l 436 1050 l 436 1003 m 325 1003 l 315 1003 l 311 997 q 300 867 318 913 q 301 861 301 865 q 285 842 301 842 q 267 863 267 842 q 286 875 267 879 q 289 997 289 914 l 282 1003 l 275 1003 l 275 1050 l 282 1056 l 319 1056 l 325 1050 l 325 1003 m 269 1003 l 263 1003 l 256 997 l 256 875 q 264 863 264 872 q 256 847 264 850 q 242 843 247 843 q 229 858 229 843 q 233 875 229 868 l 233 997 l 229 1003 l 219 1003 l 219 1050 l 225 1056 l 263 1056 l 269 1050 l 269 1003 m 163 842 q 146 864 138 842 l 122 914 l 122 997 l 118 1003 l 108 1003 l 108 1050 l 114 1056 l 151 1056 l 158 1050 l 158 1003 l 151 1003 l 144 997 l 144 914 q 158 875 151 896 q 165 876 163 876 q 179 863 179 876 q 163 842 179 842 m 118 842 q 101 864 93 842 l 67 914 l 67 997 l 63 1003 l 53 1003 l 53 1050 l 58 1056 l 96 1056 l 103 1050 l 103 1003 l 96 1003 l 89 997 l 89 914 l 114 875 q 121 876 118 876 q 135 863 135 876 q 118 842 135 842 m 124 533 q 85 496 124 496 q 58 507 69 496 q 46 533 46 518 l 46 633 q 85 672 46 672 q 124 633 124 672 l 124 533 m 453 78 q 396 -42 453 -42 l 56 -42 q 29 -24 39 -42 q 19 8 19 -10 q 29 43 19 25 q 47 74 47 72 q 324 735 324 731 q 282 757 324 757 l 103 757 q 38 797 38 757 q 103 838 38 838 l 378 838 q 444 794 438 838 l 207 207 q 225 185 207 185 l 381 185 q 430 176 417 185 q 448 135 443 167 q 453 78 453 104 m 385 860 q 372 871 385 871 q 361 860 361 871 q 372 849 361 849 q 385 860 385 849 m 297 860 q 286 871 297 871 q 275 860 275 871 q 286 849 275 849 q 297 860 297 849 m 257 860 q 246 871 257 871 q 235 860 235 871 q 246 849 235 849 q 257 860 257 849 m 174 860 q 161 871 174 871 q 150 860 150 871 q 161 849 150 849 q 174 860 174 849 m 129 860 q 117 871 129 871 q 106 860 106 871 q 117 849 106 849 q 129 860 129 849 m 417 78 q 379 114 417 114 l 158 114 q 121 78 121 114 q 158 43 121 43 l 379 43 q 417 78 417 43 z "},"[":{"ha":283,"x_min":19,"x_max":257,"o":"m 236 1003 l 229 1003 l 222 997 l 222 875 q 231 863 231 872 q 222 847 231 850 q 208 843 214 843 q 196 858 196 843 q 200 875 196 868 l 200 997 l 196 1003 l 186 1003 l 186 1050 l 192 1056 l 229 1056 l 236 1050 l 236 1003 m 174 842 q 154 858 154 842 q 157 867 154 863 q 144 914 151 883 l 144 997 l 140 1003 l 131 1003 l 131 1050 l 136 1056 l 174 1056 l 181 1050 l 181 1003 l 174 1003 l 167 997 l 167 914 l 171 875 q 176 876 174 875 q 190 863 190 876 q 174 842 190 842 m 129 842 q 113 864 104 842 l 89 914 l 89 997 l 85 1003 l 75 1003 l 75 1050 l 81 1056 l 118 1056 l 125 1050 l 125 1003 l 118 1003 l 111 997 l 111 914 q 125 875 118 896 q 132 876 129 876 q 146 863 146 876 q 129 842 146 842 m 85 842 q 68 864 60 842 l 33 914 l 33 997 l 29 1003 l 19 1003 l 19 1050 l 25 1056 l 63 1056 l 69 1050 l 69 1003 l 63 1003 l 56 997 l 56 914 l 81 875 q 88 876 85 876 q 101 863 101 876 q 85 842 101 842 m 257 -22 q 231 -42 257 -42 l 106 -42 q 53 -22 75 -42 q 32 14 32 -3 l 32 799 q 69 838 32 838 l 224 838 q 246 828 235 838 q 257 810 257 819 q 225 782 257 782 l 156 782 q 125 744 125 782 l 125 229 q 176 179 125 179 q 199 181 185 179 q 221 182 214 182 q 257 153 257 182 l 257 -22 m 224 860 q 213 871 224 871 q 201 860 201 871 q 213 849 201 849 q 224 860 224 849 m 183 860 q 172 872 183 872 q 158 860 158 872 q 172 847 158 847 q 183 860 183 847 m 140 860 q 128 871 140 871 q 117 860 117 871 q 128 849 117 849 q 140 860 140 849 m 96 860 q 83 871 96 871 q 72 860 72 871 q 83 849 72 849 q 96 860 96 849 m 217 78 q 179 114 217 114 l 114 114 q 76 78 76 114 q 114 43 76 43 l 179 43 q 217 78 217 43 z "},"\\":{"ha":351,"x_min":6,"x_max":346,"o":"m 329 842 q 313 864 304 842 l 289 914 l 289 997 l 285 1003 l 275 1003 l 275 1050 l 281 1056 l 318 1056 l 325 1050 l 325 1003 l 318 1003 l 311 997 l 311 914 q 325 875 318 896 q 332 876 329 876 q 346 863 346 876 q 329 842 346 842 m 285 842 q 268 864 260 842 l 233 914 l 233 997 l 229 1003 l 219 1003 l 219 1050 l 225 1056 l 263 1056 l 269 1050 l 269 1003 l 263 1003 l 256 997 l 256 914 l 281 875 q 288 876 285 876 q 301 863 301 876 q 285 842 301 842 m 336 828 l 333 811 l 57 -18 q 29 -37 50 -37 q 6 -12 6 -37 q 14 17 11 8 l 276 811 q 310 842 286 842 q 336 828 336 842 m 340 860 q 328 871 340 871 q 317 860 317 871 q 328 849 317 849 q 340 860 340 849 m 296 860 q 283 871 296 871 q 272 860 272 871 q 283 849 272 849 q 296 860 296 849 z "},"]":{"ha":283,"x_min":8,"x_max":236,"o":"m 225 1003 l 218 1003 l 211 997 l 211 875 q 219 863 219 872 q 211 847 219 850 q 197 843 203 843 q 185 858 185 843 q 189 875 185 868 l 189 997 l 185 1003 l 175 1003 l 175 1050 l 181 1056 l 218 1056 l 225 1050 l 225 1003 m 163 842 q 143 858 143 842 q 146 867 143 863 q 133 914 140 883 l 133 997 l 129 1003 l 119 1003 l 119 1050 l 125 1056 l 163 1056 l 169 1050 l 169 1003 l 163 1003 l 156 997 l 156 914 l 160 875 q 165 876 163 875 q 179 863 179 876 q 163 842 179 842 m 118 842 q 101 864 93 842 l 78 914 l 78 997 l 74 1003 l 64 1003 l 64 1050 l 69 1056 l 107 1056 l 114 1050 l 114 1003 l 107 1003 l 100 997 l 100 914 q 114 875 107 896 q 121 876 118 876 q 135 863 135 876 q 118 842 135 842 m 74 842 q 57 864 49 842 l 22 914 l 22 997 l 18 1003 l 8 1003 l 8 1050 l 14 1056 l 51 1056 l 58 1050 l 58 1003 l 51 1003 l 44 997 l 44 914 l 69 875 q 76 876 74 876 q 90 863 90 876 q 74 842 90 842 m 236 14 q 210 -24 236 -6 q 164 -42 185 -42 l 39 -42 q 13 -22 13 -42 l 13 153 q 49 182 13 182 q 69 181 54 182 q 92 179 85 179 q 143 229 143 179 l 143 744 q 114 782 143 782 l 44 782 q 13 810 13 782 q 24 828 13 819 q 46 838 36 838 l 200 838 q 236 799 236 838 l 236 14 m 213 860 q 201 871 213 871 q 190 860 190 871 q 201 849 190 849 q 213 860 213 849 m 172 860 q 161 872 172 872 q 147 860 147 872 q 161 847 147 847 q 172 860 172 847 m 129 860 q 117 871 129 871 q 106 860 106 871 q 117 849 106 849 q 129 860 129 849 m 85 860 q 72 871 85 871 q 61 860 61 871 q 72 849 61 849 q 85 860 85 849 m 194 78 q 157 114 194 114 l 81 114 q 43 78 43 114 q 81 43 43 43 l 157 43 q 194 78 194 43 z "},"^":{"ha":219,"x_min":17,"x_max":217,"o":"m 17 892 l 117 992 l 217 892 l 17 892 z "},"_":{"ha":613,"x_min":0,"x_max":613,"o":"m 0 -122 l 613 -122 l 613 -169 l 0 -169 l 0 -122 z "},"`":{"ha":217,"x_min":-36,"x_max":135,"o":"m -36 1235 l 58 1235 l 135 1100 l 82 1100 l -36 1235 z "},"a":{"ha":556,"x_min":31,"x_max":518,"o":"m 436 1003 l 426 1003 l 422 997 l 422 914 l 321 775 q 322 769 322 772 q 304 753 322 753 q 288 774 288 753 q 308 786 288 790 l 400 914 l 400 997 l 393 1003 l 386 1003 l 386 1050 l 393 1056 l 431 1056 l 436 1050 l 436 1003 m 493 711 q 454 672 493 672 q 427 684 439 672 q 415 711 415 696 l 415 811 q 454 849 415 849 q 493 811 493 849 l 493 711 m 207 842 q 188 858 188 842 q 190 867 188 863 q 178 914 185 883 l 178 997 l 174 1003 l 164 1003 l 164 1050 l 169 1056 l 207 1056 l 214 1050 l 214 1003 l 207 1003 l 200 997 l 200 914 l 204 875 q 210 876 207 875 q 224 863 224 876 q 207 842 224 842 m 118 842 q 101 864 93 842 l 67 914 l 67 997 l 63 1003 l 53 1003 l 53 1050 l 58 1056 l 96 1056 l 103 1050 l 103 1003 l 96 1003 l 89 997 l 89 914 l 114 875 q 121 876 118 876 q 135 863 135 876 q 118 842 135 842 m 518 38 q 508 -21 518 -6 q 454 -42 494 -42 l 329 -42 q 286 10 286 -42 l 286 128 q 336 179 286 179 q 349 179 340 179 q 363 179 358 179 q 403 215 403 179 l 403 400 q 321 456 403 456 l 183 456 q 147 411 147 456 l 147 215 q 151 188 147 196 q 208 179 154 179 q 239 128 239 179 l 239 4 q 192 -42 239 -42 l 82 -42 q 45 -23 60 -42 q 31 18 31 -4 l 31 739 q 147 838 31 838 q 246 792 217 838 l 499 393 q 518 317 518 363 l 518 38 m 318 771 q 306 782 318 782 q 294 771 294 782 q 306 760 294 760 q 318 771 318 760 m 217 860 q 206 872 217 872 q 192 860 192 872 q 206 847 192 847 q 217 860 217 847 m 129 860 q 117 871 129 871 q 106 860 106 871 q 117 849 106 849 q 129 860 129 849 m 128 756 q 106 747 117 756 q 94 728 94 739 l 94 585 q 106 540 94 549 q 156 532 118 532 l 247 532 q 269 551 269 532 q 258 585 269 564 l 204 689 q 128 756 169 756 m 483 78 q 446 114 483 114 l 369 114 q 332 78 332 114 q 369 43 332 43 l 446 43 q 483 78 483 43 m 194 78 q 157 114 194 114 l 114 114 q 76 78 76 114 q 114 43 76 43 l 157 43 q 194 78 194 43 z "},"b":{"ha":503,"x_min":33,"x_max":469,"o":"m 436 1003 l 426 1003 l 422 997 l 422 914 l 388 864 q 389 858 389 861 q 371 842 389 842 q 354 863 354 842 q 375 875 354 879 l 400 914 l 400 997 l 393 1003 l 386 1003 l 386 1050 l 393 1056 l 431 1056 l 436 1050 l 436 1003 m 325 1003 l 315 1003 l 311 997 q 300 867 318 913 q 301 861 301 865 q 285 842 301 842 q 267 863 267 842 q 286 875 267 879 q 289 997 289 914 l 282 1003 l 275 1003 l 275 1050 l 282 1056 l 319 1056 l 325 1050 l 325 1003 m 207 842 q 188 858 188 842 q 190 867 188 863 q 178 914 185 883 l 178 997 l 174 1003 l 164 1003 l 164 1050 l 169 1056 l 207 1056 l 214 1050 l 214 1003 l 207 1003 l 200 997 l 200 914 l 204 875 q 210 876 207 875 q 224 863 224 876 q 207 842 224 842 m 118 842 q 101 864 93 842 l 67 914 l 67 997 l 63 1003 l 53 1003 l 53 1050 l 58 1056 l 96 1056 l 103 1050 l 103 1003 l 96 1003 l 89 997 l 89 914 l 114 875 q 121 876 118 876 q 135 863 135 876 q 118 842 135 842 m 469 56 q 392 -42 469 -42 l 119 -42 q 33 60 33 -42 l 33 768 q 108 838 33 838 l 311 838 q 371 816 344 838 q 397 763 397 794 l 397 585 q 433 538 397 571 q 469 479 469 506 l 469 56 m 385 860 q 372 871 385 871 q 361 860 361 871 q 372 849 361 849 q 385 860 385 849 m 297 860 q 286 871 297 871 q 275 860 275 871 q 286 849 275 849 q 297 860 297 849 m 217 860 q 206 872 217 872 q 192 860 192 872 q 206 847 192 847 q 217 860 217 847 m 129 860 q 117 871 129 871 q 106 860 106 871 q 117 849 106 849 q 129 860 129 849 m 258 601 l 258 701 q 206 757 258 757 l 168 757 q 118 701 118 757 l 118 601 q 169 542 118 542 l 206 542 q 258 601 258 542 m 385 243 l 385 411 q 332 469 385 469 l 299 469 q 253 411 253 469 l 253 243 q 300 183 253 183 l 332 183 q 376 199 365 183 q 385 243 385 210 m 406 78 q 368 114 406 114 l 125 114 q 88 78 88 114 q 125 43 88 43 l 368 43 q 406 78 406 43 z "},"c":{"ha":508,"x_min":33,"x_max":468,"o":"m 436 1003 l 426 1003 l 422 997 l 422 914 l 388 864 q 389 858 389 861 q 371 842 389 842 q 354 863 354 842 q 375 875 354 879 l 400 914 l 400 997 l 393 1003 l 386 1003 l 386 1050 l 393 1056 l 431 1056 l 436 1050 l 436 1003 m 325 1003 l 315 1003 l 311 997 q 300 867 318 913 q 301 861 301 865 q 285 842 301 842 q 267 863 267 842 q 286 875 267 879 q 289 997 289 914 l 282 1003 l 275 1003 l 275 1050 l 282 1056 l 319 1056 l 325 1050 l 325 1003 m 269 1003 l 263 1003 l 256 997 l 256 875 q 264 863 264 872 q 256 847 264 850 q 242 843 247 843 q 229 858 229 843 q 233 875 229 868 l 233 997 l 229 1003 l 219 1003 l 219 1050 l 225 1056 l 263 1056 l 269 1050 l 269 1003 m 207 842 q 188 858 188 842 q 190 867 188 863 q 178 914 185 883 l 178 997 l 174 1003 l 164 1003 l 164 1050 l 169 1056 l 207 1056 l 214 1050 l 214 1003 l 207 1003 l 200 997 l 200 914 l 204 875 q 210 876 207 875 q 224 863 224 876 q 207 842 224 842 m 163 842 q 146 864 138 842 l 122 914 l 122 997 l 118 1003 l 108 1003 l 108 1050 l 114 1056 l 151 1056 l 158 1050 l 158 1003 l 151 1003 l 144 997 l 144 914 q 158 875 151 896 q 165 876 163 876 q 179 863 179 876 q 163 842 179 842 m 118 842 q 101 864 93 842 l 67 914 l 67 997 l 63 1003 l 53 1003 l 53 1050 l 58 1056 l 96 1056 l 103 1050 l 103 1003 l 96 1003 l 89 997 l 89 914 l 114 875 q 121 876 118 876 q 135 863 135 876 q 118 842 135 842 m 236 578 q 197 539 236 539 q 158 578 158 539 l 158 678 q 170 704 158 693 q 197 715 182 715 q 236 678 236 715 l 236 578 m 367 -39 l 131 -39 q 33 36 33 -39 l 33 767 q 53 818 33 796 q 103 840 74 840 l 303 840 q 392 799 392 840 q 360 761 392 761 l 147 761 q 127 751 136 761 q 118 729 118 740 l 118 417 q 121 378 118 386 q 153 361 128 361 l 407 361 q 467 278 467 361 l 467 190 q 468 132 467 171 q 468 74 468 93 q 447 -10 468 15 q 367 -39 425 -39 m 385 860 q 372 871 385 871 q 361 860 361 871 q 372 849 361 849 q 385 860 385 849 m 297 860 q 286 871 297 871 q 275 860 275 871 q 286 849 275 849 q 297 860 297 849 m 257 860 q 246 871 257 871 q 235 860 235 871 q 246 849 235 849 q 257 860 257 849 m 217 860 q 206 872 217 872 q 192 860 192 872 q 206 847 192 847 q 217 860 217 847 m 174 860 q 161 871 174 871 q 150 860 150 871 q 161 849 150 849 q 174 860 174 849 m 129 860 q 117 871 129 871 q 106 860 106 871 q 117 849 106 849 q 129 860 129 849 m 406 78 q 368 114 406 114 l 114 114 q 76 78 76 114 q 114 43 76 43 l 368 43 q 406 78 406 43 z "},"d":{"ha":526,"x_min":33,"x_max":500,"o":"m 436 1003 l 426 1003 l 422 997 l 422 914 l 388 864 q 389 858 389 861 q 371 842 389 842 q 354 863 354 842 q 375 875 354 879 l 400 914 l 400 997 l 393 1003 l 386 1003 l 386 1050 l 393 1056 l 431 1056 l 436 1050 l 436 1003 m 381 1003 l 371 1003 l 367 997 l 367 914 l 343 864 q 344 858 344 861 q 326 842 344 842 q 310 863 310 842 q 331 875 310 879 l 344 914 l 344 997 l 338 1003 l 331 1003 l 331 1050 l 338 1056 l 375 1056 l 381 1050 l 381 1003 m 325 1003 l 315 1003 l 311 997 q 300 867 318 913 q 301 861 301 865 q 285 842 301 842 q 267 863 267 842 q 286 875 267 879 q 289 997 289 914 l 282 1003 l 275 1003 l 275 1050 l 282 1056 l 319 1056 l 325 1050 l 325 1003 m 269 1003 l 263 1003 l 256 997 l 256 875 q 264 863 264 872 q 256 847 264 850 q 242 843 247 843 q 229 858 229 843 q 233 875 229 868 l 233 997 l 229 1003 l 219 1003 l 219 1050 l 225 1056 l 263 1056 l 269 1050 l 269 1003 m 207 842 q 188 858 188 842 q 190 867 188 863 q 178 914 185 883 l 178 997 l 174 1003 l 164 1003 l 164 1050 l 169 1056 l 207 1056 l 214 1050 l 214 1003 l 207 1003 l 200 997 l 200 914 l 204 875 q 210 876 207 875 q 224 863 224 876 q 207 842 224 842 m 163 842 q 146 864 138 842 l 122 914 l 122 997 l 118 1003 l 108 1003 l 108 1050 l 114 1056 l 151 1056 l 158 1050 l 158 1003 l 151 1003 l 144 997 l 144 914 q 158 875 151 896 q 165 876 163 876 q 179 863 179 876 q 163 842 179 842 m 118 842 q 101 864 93 842 l 67 914 l 67 997 l 63 1003 l 53 1003 l 53 1050 l 58 1056 l 96 1056 l 103 1050 l 103 1003 l 96 1003 l 89 997 l 89 914 l 114 875 q 121 876 118 876 q 135 863 135 876 q 118 842 135 842 m 368 -42 l 139 -42 q 33 58 33 -42 l 33 789 q 110 838 33 838 l 274 838 q 368 815 344 838 q 408 722 392 793 l 497 339 q 499 236 497 296 q 500 135 500 156 q 497 58 500 89 q 492 17 494 28 q 469 -19 485 -7 q 368 -42 442 -42 m 385 860 q 372 871 385 871 q 361 860 361 871 q 372 849 361 849 q 385 860 385 849 m 340 860 q 328 871 340 871 q 317 860 317 871 q 328 849 317 849 q 340 860 340 849 m 297 860 q 286 871 297 871 q 275 860 275 871 q 286 849 275 849 q 297 860 297 849 m 257 860 q 246 871 257 871 q 235 860 235 871 q 246 849 235 849 q 257 860 257 849 m 217 860 q 206 872 217 872 q 192 860 192 872 q 206 847 192 847 q 217 860 217 847 m 174 860 q 161 871 174 871 q 150 860 150 871 q 161 849 150 849 q 174 860 174 849 m 129 860 q 117 871 129 871 q 106 860 106 871 q 117 849 106 849 q 129 860 129 849 m 258 757 l 174 757 q 118 711 118 757 l 118 383 q 156 346 118 346 q 164 346 158 346 q 172 346 169 346 q 219 290 219 346 q 224 211 219 222 q 289 183 235 183 l 353 183 q 415 285 415 183 q 408 339 415 310 l 314 728 q 258 757 307 757 m 439 78 q 401 114 439 114 l 114 114 q 76 78 76 114 q 114 43 76 43 l 401 43 q 439 78 439 43 m 353 274 q 314 236 353 236 q 287 247 299 236 q 275 274 275 258 l 275 374 q 314 411 275 411 q 353 374 353 411 l 353 274 z "},"e":{"ha":419,"x_min":32,"x_max":403,"o":"m 403 1003 l 393 1003 l 389 997 l 389 914 l 354 864 q 356 858 356 861 q 338 842 356 842 q 321 863 321 842 q 342 875 321 879 l 367 914 l 367 997 l 360 1003 l 353 1003 l 353 1050 l 360 1056 l 397 1056 l 403 1050 l 403 1003 m 292 1003 l 282 1003 l 278 997 q 267 867 285 913 q 268 861 268 865 q 251 842 268 842 q 233 863 233 842 q 253 875 233 879 q 256 997 256 914 l 249 1003 l 242 1003 l 242 1050 l 249 1056 l 286 1056 l 292 1050 l 292 1003 m 236 1003 l 229 1003 l 222 997 l 222 875 q 231 863 231 872 q 222 847 231 850 q 208 843 214 843 q 196 858 196 843 q 200 875 196 868 l 200 997 l 196 1003 l 186 1003 l 186 1050 l 192 1056 l 229 1056 l 236 1050 l 236 1003 m 174 842 q 154 858 154 842 q 157 867 154 863 q 144 914 151 883 l 144 997 l 140 1003 l 131 1003 l 131 1050 l 136 1056 l 174 1056 l 181 1050 l 181 1003 l 174 1003 l 167 997 l 167 914 l 171 875 q 176 876 174 875 q 190 863 190 876 q 174 842 190 842 m 392 -4 q 351 -42 392 -42 l 115 -42 q 47 -14 65 -42 q 32 60 32 8 l 32 158 q 33 314 32 210 q 33 469 33 418 q 53 518 33 506 l 108 554 q 118 589 118 561 l 118 763 q 185 838 118 838 l 333 838 q 392 797 392 838 q 381 769 392 781 q 347 757 371 757 q 334 757 343 757 q 321 757 325 757 q 289 728 289 757 l 289 582 q 324 550 289 551 q 379 539 368 549 q 392 510 392 525 q 380 482 392 494 q 353 469 368 469 l 138 469 q 96 417 96 469 l 96 229 q 138 183 96 183 l 351 183 q 376 172 360 183 q 392 151 392 160 l 392 -4 m 224 267 q 185 229 224 229 q 158 240 169 229 q 146 267 146 251 l 146 367 q 185 406 146 406 q 224 367 224 406 l 224 267 m 351 860 q 339 871 351 871 q 328 860 328 871 q 339 849 328 849 q 351 860 351 849 m 264 860 q 253 871 264 871 q 242 860 242 871 q 253 849 242 849 q 264 860 264 849 m 224 860 q 213 871 224 871 q 201 860 201 871 q 213 849 201 849 q 224 860 224 849 m 183 860 q 172 872 183 872 q 158 860 158 872 q 172 847 158 847 q 183 860 183 847 m 350 78 q 313 114 350 114 l 114 114 q 76 78 76 114 q 114 43 76 43 l 313 43 q 350 78 350 43 z "},"f":{"ha":403,"x_min":33,"x_max":392,"o":"m 392 1003 l 382 1003 l 378 997 l 378 914 l 343 864 q 344 858 344 861 q 326 842 344 842 q 310 863 310 842 q 331 875 310 879 l 356 914 l 356 997 l 349 1003 l 342 1003 l 342 1050 l 349 1056 l 386 1056 l 392 1050 l 392 1003 m 336 1003 l 326 1003 l 322 997 l 322 914 l 299 864 q 300 858 300 861 q 282 842 300 842 q 265 863 265 842 q 286 875 265 879 l 300 914 l 300 997 l 293 1003 l 286 1003 l 286 1050 l 293 1056 l 331 1056 l 336 1050 l 336 1003 m 281 1003 l 271 1003 l 267 997 q 256 867 274 913 q 257 861 257 865 q 240 842 257 842 q 222 863 222 842 q 242 875 222 879 q 244 997 244 914 l 238 1003 l 231 1003 l 231 1050 l 238 1056 l 275 1056 l 281 1050 l 281 1003 m 225 1003 l 218 1003 l 211 997 l 211 875 q 219 863 219 872 q 211 847 219 850 q 197 843 203 843 q 185 858 185 843 q 189 875 185 868 l 189 997 l 185 1003 l 175 1003 l 175 1050 l 181 1056 l 218 1056 l 225 1050 l 225 1003 m 163 842 q 143 858 143 842 q 146 867 143 863 q 133 914 140 883 l 133 997 l 129 1003 l 119 1003 l 119 1050 l 125 1056 l 163 1056 l 169 1050 l 169 1003 l 163 1003 l 156 997 l 156 914 l 160 875 q 165 876 163 875 q 179 863 179 876 q 163 842 179 842 m 118 842 q 101 864 93 842 l 78 914 l 78 997 l 74 1003 l 64 1003 l 64 1050 l 69 1056 l 107 1056 l 114 1050 l 114 1003 l 107 1003 l 100 997 l 100 914 q 114 875 107 896 q 121 876 118 876 q 135 863 135 876 q 118 842 135 842 m 354 271 q 315 233 354 233 q 276 271 276 233 l 276 371 q 315 408 276 408 q 354 371 354 408 l 354 271 m 388 800 q 336 757 388 757 l 161 757 q 118 706 118 757 l 118 594 q 164 553 118 553 l 315 553 q 358 513 358 553 q 329 474 358 481 q 274 472 301 472 q 219 431 219 469 l 219 93 q 206 -24 219 -4 q 135 -43 192 -43 q 33 17 33 -43 l 33 749 q 117 838 33 838 l 336 838 q 388 800 388 838 m 340 860 q 328 871 340 871 q 317 860 317 871 q 328 849 317 849 q 340 860 340 849 m 296 860 q 283 871 296 871 q 272 860 272 871 q 283 849 272 849 q 296 860 296 849 m 253 860 q 242 871 253 871 q 231 860 231 871 q 242 849 231 849 q 253 860 253 849 m 213 860 q 201 871 213 871 q 190 860 190 871 q 201 849 190 849 q 213 860 213 849 m 172 860 q 161 872 172 872 q 147 860 147 872 q 161 847 147 847 q 172 860 172 847 m 129 860 q 117 871 129 871 q 106 860 106 871 q 117 849 106 849 q 129 860 129 849 m 172 78 q 135 114 172 114 l 114 114 q 76 78 76 114 q 114 43 76 43 l 135 43 q 172 78 172 43 z "},"g":{"ha":496,"x_min":33,"x_max":464,"o":"m 269 1003 l 263 1003 l 256 997 l 256 875 q 264 863 264 872 q 256 847 264 850 q 242 843 247 843 q 229 858 229 843 q 233 875 229 868 l 233 997 l 229 1003 l 219 1003 l 219 1050 l 225 1056 l 263 1056 l 269 1050 l 269 1003 m 207 842 q 188 858 188 842 q 190 867 188 863 q 178 914 185 883 l 178 997 l 174 1003 l 164 1003 l 164 1050 l 169 1056 l 207 1056 l 214 1050 l 214 1003 l 207 1003 l 200 997 l 200 914 l 204 875 q 210 876 207 875 q 224 863 224 876 q 207 842 224 842 m 118 842 q 101 864 93 842 l 67 914 l 67 997 l 63 1003 l 53 1003 l 53 1050 l 58 1056 l 96 1056 l 103 1050 l 103 1003 l 96 1003 l 89 997 l 89 914 l 114 875 q 121 876 118 876 q 135 863 135 876 q 118 842 135 842 m 464 56 q 438 -22 464 -1 q 353 -42 411 -42 l 113 -42 q 57 -17 81 -42 q 33 39 33 7 l 33 774 q 118 838 33 838 l 219 838 q 307 756 307 838 q 247 661 307 661 l 171 661 q 118 600 118 661 l 118 256 q 189 183 118 183 l 271 183 q 315 197 304 183 q 326 244 326 211 l 326 407 q 303 457 326 446 q 251 465 292 463 q 200 481 217 467 q 183 517 183 494 q 189 543 183 532 q 213 572 201 568 q 253 574 218 574 l 401 574 q 464 510 464 574 l 464 56 m 258 283 q 219 246 258 246 q 193 258 206 246 q 181 283 181 269 l 181 383 q 192 410 181 399 q 219 422 204 422 q 247 410 235 422 q 258 383 258 399 l 258 283 m 257 860 q 246 871 257 871 q 235 860 235 871 q 246 849 235 849 q 257 860 257 849 m 217 860 q 206 872 217 872 q 192 860 192 872 q 206 847 192 847 q 217 860 217 847 m 129 860 q 117 871 129 871 q 106 860 106 871 q 117 849 106 849 q 129 860 129 849 m 406 78 q 368 114 406 114 l 114 114 q 76 78 76 114 q 114 43 76 43 l 368 43 q 406 78 406 43 z "},"h":{"ha":481,"x_min":33,"x_max":444,"o":"m 207 842 q 188 858 188 842 q 190 867 188 863 q 178 914 185 883 l 178 997 l 174 1003 l 164 1003 l 164 1050 l 169 1056 l 207 1056 l 214 1050 l 214 1003 l 207 1003 l 200 997 l 200 914 l 204 875 q 210 876 207 875 q 224 863 224 876 q 207 842 224 842 m 163 842 q 146 864 138 842 l 122 914 l 122 997 l 118 1003 l 108 1003 l 108 1050 l 114 1056 l 151 1056 l 158 1050 l 158 1003 l 151 1003 l 144 997 l 144 914 q 158 875 151 896 q 165 876 163 876 q 179 863 179 876 q 163 842 179 842 m 118 842 q 101 864 93 842 l 67 914 l 67 997 l 63 1003 l 53 1003 l 53 1050 l 58 1056 l 96 1056 l 103 1050 l 103 1003 l 96 1003 l 89 997 l 89 914 l 114 875 q 121 876 118 876 q 135 863 135 876 q 118 842 135 842 m 444 14 q 401 -42 444 -31 q 322 -47 383 -47 q 260 -43 275 -47 q 226 14 226 -32 l 226 139 q 206 176 226 169 q 158 181 196 181 q 118 139 118 181 l 118 14 q 75 -42 118 -42 q 33 14 33 -42 l 33 799 q 72 838 33 838 l 207 838 q 240 799 240 838 l 240 569 q 264 526 240 535 q 318 524 272 524 q 360 569 360 524 l 360 799 q 400 838 360 838 q 444 799 444 838 l 444 14 m 217 860 q 206 872 217 872 q 192 860 192 872 q 206 847 192 847 q 217 860 217 847 m 174 860 q 161 871 174 871 q 150 860 150 871 q 161 849 150 849 q 174 860 174 849 m 129 860 q 117 871 129 871 q 106 860 106 871 q 117 849 106 849 q 129 860 129 849 m 406 78 q 368 114 406 114 l 314 114 q 276 78 276 114 q 314 43 276 43 l 368 43 q 406 78 406 43 z "},"i":{"ha":310,"x_min":22,"x_max":283,"o":"m 174 842 q 157 864 149 842 l 122 914 l 122 997 l 118 1003 l 108 1003 l 108 1050 l 114 1056 l 151 1056 l 158 1050 l 158 1003 l 151 1003 l 144 997 l 144 914 l 169 875 q 176 876 174 876 q 190 863 190 876 q 174 842 190 842 m 282 40 q 196 -42 282 -42 l 104 -42 q 32 0 49 -42 q 22 92 22 24 q 74 192 22 178 q 113 203 93 196 q 133 228 133 210 l 133 796 q 143 823 133 803 q 179 843 153 843 q 204 825 190 843 q 218 796 218 807 l 218 233 q 233 203 218 214 q 264 180 247 192 q 283 111 281 168 q 282 40 282 133 m 185 860 q 172 871 185 871 q 161 860 161 871 q 172 849 161 849 q 185 860 185 849 m 250 78 q 213 114 250 114 l 103 114 q 65 78 65 114 q 103 43 65 43 l 213 43 q 250 78 250 43 z "},"j":{"ha":486,"x_min":33,"x_max":469,"o":"m 469 1003 l 460 1003 l 456 997 l 456 914 l 421 864 q 422 858 422 861 q 404 842 422 842 q 388 863 388 842 q 408 875 388 879 l 433 914 l 433 997 l 426 1003 l 419 1003 l 419 1050 l 426 1056 l 464 1056 l 469 1050 l 469 1003 m 292 1003 l 285 1003 l 278 997 l 278 475 q 286 463 286 472 q 278 447 286 450 q 264 443 269 443 q 251 458 251 443 q 256 475 251 468 l 251 1003 l 242 1003 l 242 1050 l 247 1056 l 285 1056 l 292 1050 l 292 1003 m 442 40 q 417 -19 442 4 q 357 -42 393 -42 l 125 -42 q 62 -18 90 -42 q 33 40 33 6 l 33 353 q 46 386 33 371 q 75 401 58 401 q 118 353 118 401 l 118 203 q 140 179 118 179 l 303 179 q 341 195 325 179 q 357 233 357 211 l 357 807 q 369 836 357 824 q 399 849 382 849 q 442 796 442 849 l 442 40 m 307 288 q 268 250 307 250 q 229 288 229 250 l 229 388 q 268 425 229 425 q 307 388 307 425 l 307 288 m 418 860 q 406 871 418 871 q 394 860 394 871 q 406 849 394 849 q 418 860 418 849 m 279 460 q 268 471 279 471 q 257 460 257 471 q 268 449 257 449 q 279 460 279 449 m 383 78 q 346 114 383 114 l 114 114 q 76 78 76 114 q 114 43 76 43 l 346 43 q 383 78 383 43 z "},"k":{"ha":511,"x_min":8,"x_max":476,"o":"m 403 1003 l 393 1003 l 389 997 l 389 914 l 167 633 q 168 626 168 629 q 150 611 168 611 q 133 632 133 611 q 143 644 133 639 l 154 644 l 367 914 l 367 997 l 360 1003 l 353 1003 l 353 1050 l 360 1056 l 397 1056 l 403 1050 l 403 1003 m 118 842 q 101 864 93 842 l 78 914 l 78 997 l 74 1003 l 64 1003 l 64 1050 l 69 1056 l 107 1056 l 114 1050 l 114 1003 l 107 1003 l 100 997 l 100 914 q 114 875 107 896 q 121 876 118 876 q 135 863 135 876 q 118 842 135 842 m 74 842 q 57 864 49 842 l 22 914 l 22 997 l 18 1003 l 8 1003 l 8 1050 l 14 1056 l 51 1056 l 58 1050 l 58 1003 l 51 1003 l 44 997 l 44 914 l 69 875 q 76 876 74 876 q 90 863 90 876 q 74 842 90 842 m 476 6 q 431 -42 476 -42 q 392 6 392 -42 l 392 131 q 376 165 392 150 q 342 181 361 181 l 319 181 q 275 131 275 181 l 275 17 q 158 -42 275 -42 q 79 -26 113 -42 q 33 33 33 -6 l 33 797 q 76 838 33 838 q 118 797 118 838 l 118 619 q 149 578 118 578 q 265 685 179 578 q 374 792 350 792 q 407 746 407 792 q 396 722 407 733 q 375 700 385 710 q 296 594 296 601 q 317 575 296 575 l 401 575 q 457 542 435 575 q 476 478 476 514 l 476 6 m 129 860 q 117 871 129 871 q 106 860 106 871 q 117 849 106 849 q 129 860 129 849 m 85 860 q 72 871 85 871 q 61 860 61 871 q 72 849 61 849 q 85 860 85 849 m 163 629 q 151 640 163 640 q 140 629 140 640 q 151 618 140 618 q 163 629 163 618 m 250 78 q 213 114 250 114 l 114 114 q 76 78 76 114 q 114 43 76 43 l 213 43 q 250 78 250 43 z "},"l":{"ha":404,"x_min":8,"x_max":375,"o":"m 118 842 q 101 864 93 842 l 78 914 l 78 997 l 74 1003 l 64 1003 l 64 1050 l 69 1056 l 107 1056 l 114 1050 l 114 1003 l 107 1003 l 100 997 l 100 914 q 114 875 107 896 q 121 876 118 876 q 135 863 135 876 q 118 842 135 842 m 74 842 q 57 864 49 842 l 22 914 l 22 997 l 18 1003 l 8 1003 l 8 1050 l 14 1056 l 51 1056 l 58 1050 l 58 1003 l 51 1003 l 44 997 l 44 914 l 69 875 q 76 876 74 876 q 90 863 90 876 q 74 842 90 842 m 375 22 q 353 -32 375 -19 q 290 -42 336 -42 l 118 -42 q 57 -19 81 -42 q 33 40 33 3 l 33 806 q 47 828 33 818 q 75 838 61 838 q 103 828 89 838 q 118 806 118 819 l 118 217 q 153 179 118 179 l 319 179 q 375 124 375 179 l 375 22 m 240 278 q 201 239 240 239 q 174 251 186 239 q 163 278 163 263 l 163 378 q 201 415 163 415 q 240 378 240 415 l 240 278 m 129 860 q 117 871 129 871 q 106 860 106 871 q 117 849 106 849 q 129 860 129 849 m 85 860 q 72 871 85 871 q 61 860 61 871 q 72 849 61 849 q 85 860 85 849 m 328 78 q 290 114 328 114 l 114 114 q 76 78 76 114 q 114 43 76 43 l 290 43 q 328 78 328 43 z "},"m":{"ha":763,"x_min":19,"x_max":733,"o":"m 569 1003 l 560 1003 l 556 997 l 556 914 l 488 864 q 489 858 489 861 q 471 842 489 842 q 454 863 454 842 q 475 875 454 879 l 533 914 l 533 997 l 526 1003 l 519 1003 l 519 1050 l 526 1056 l 564 1056 l 569 1050 l 569 1003 m 514 1003 l 504 1003 l 500 997 l 500 914 l 443 864 q 444 858 444 861 q 426 842 444 842 q 410 863 410 842 q 431 875 410 879 l 478 914 l 478 997 l 471 1003 l 464 1003 l 464 1050 l 471 1056 l 508 1056 l 514 1050 l 514 1003 m 458 1003 l 449 1003 l 444 997 l 444 914 l 400 867 q 401 861 401 865 q 385 842 401 842 q 367 863 367 842 q 386 875 367 879 l 422 914 l 422 997 l 415 1003 l 408 1003 l 408 1050 l 415 1056 l 453 1056 l 458 1050 l 458 1003 m 403 1003 l 393 1003 l 389 997 l 389 914 l 354 864 q 356 858 356 861 q 338 842 356 842 q 321 863 321 842 q 342 875 321 879 l 367 914 l 367 997 l 360 1003 l 353 1003 l 353 1050 l 360 1056 l 397 1056 l 403 1050 l 403 1003 m 347 1003 l 338 1003 l 333 997 l 333 914 l 310 864 q 311 858 311 861 q 293 842 311 842 q 276 863 276 842 q 297 875 276 879 l 311 914 l 311 997 l 304 1003 l 297 1003 l 297 1050 l 304 1056 l 342 1056 l 347 1050 l 347 1003 m 292 1003 l 282 1003 l 278 997 q 267 867 285 913 q 268 861 268 865 q 251 842 268 842 q 233 863 233 842 q 253 875 233 879 q 256 997 256 914 l 249 1003 l 242 1003 l 242 1050 l 249 1056 l 286 1056 l 292 1050 l 292 1003 m 236 1003 l 229 1003 l 222 997 l 222 875 q 231 863 231 872 q 222 847 231 850 q 208 843 214 843 q 196 858 196 843 q 200 875 196 868 l 200 997 l 196 1003 l 186 1003 l 186 1050 l 192 1056 l 229 1056 l 236 1050 l 236 1003 m 174 842 q 154 858 154 842 q 157 867 154 863 q 144 914 151 883 l 144 997 l 140 1003 l 131 1003 l 131 1050 l 136 1056 l 174 1056 l 181 1050 l 181 1003 l 174 1003 l 167 997 l 167 914 l 171 875 q 176 876 174 875 q 190 863 190 876 q 174 842 190 842 m 129 842 q 113 864 104 842 l 89 914 l 89 997 l 85 1003 l 75 1003 l 75 1050 l 81 1056 l 118 1056 l 125 1050 l 125 1003 l 118 1003 l 111 997 l 111 914 q 125 875 118 896 q 132 876 129 876 q 146 863 146 876 q 129 842 146 842 m 85 842 q 68 864 60 842 l 33 914 l 33 997 l 29 1003 l 19 1003 l 19 1050 l 25 1056 l 63 1056 l 69 1050 l 69 1003 l 63 1003 l 56 997 l 56 914 l 81 875 q 88 876 85 876 q 101 863 101 876 q 85 842 101 842 m 733 18 q 686 -42 733 -42 l 526 -42 q 492 -1 492 -42 l 492 144 q 524 185 492 181 q 556 222 556 190 q 549 265 556 233 l 457 689 q 449 706 456 692 q 375 757 421 757 q 353 714 353 757 l 353 215 q 386 183 353 183 q 400 185 390 183 q 413 185 408 185 q 451 144 451 185 l 451 -1 q 415 -42 451 -42 l 269 -42 q 232 -26 238 -42 q 229 -1 229 -19 l 229 144 q 249 185 229 172 q 269 215 269 197 l 269 365 q 244 421 269 413 q 175 424 238 424 q 122 365 122 424 l 122 215 q 159 185 122 193 q 196 144 196 178 l 196 -1 q 189 -35 196 -28 q 154 -42 182 -42 l 78 -42 q 38 -1 38 -42 l 38 751 q 164 838 38 838 l 390 838 q 471 819 443 838 q 514 757 504 796 l 640 256 q 668 204 649 219 q 708 172 688 189 q 733 126 733 147 l 733 18 m 485 860 q 472 871 485 871 q 461 860 461 871 q 472 849 461 849 q 485 860 485 849 m 440 860 q 428 871 440 871 q 417 860 417 871 q 428 849 417 849 q 440 860 440 849 m 397 860 q 386 871 397 871 q 375 860 375 871 q 386 849 375 849 q 397 860 397 849 m 351 860 q 339 871 351 871 q 328 860 328 871 q 339 849 328 849 q 351 860 351 849 m 307 860 q 294 871 307 871 q 283 860 283 871 q 294 849 283 849 q 307 860 307 849 m 264 860 q 253 871 264 871 q 242 860 242 871 q 253 849 242 849 q 264 860 264 849 m 224 860 q 213 871 224 871 q 201 860 201 871 q 213 849 201 849 q 224 860 224 849 m 183 860 q 172 872 183 872 q 158 860 158 872 q 172 847 158 847 q 183 860 183 847 m 140 860 q 128 871 140 871 q 117 860 117 871 q 128 849 117 849 q 140 860 140 849 m 96 860 q 83 871 96 871 q 72 860 72 871 q 83 849 72 849 q 96 860 96 849 m 203 531 l 203 708 q 164 746 203 746 q 125 708 125 746 l 125 531 q 164 493 125 493 q 203 531 203 493 m 694 78 q 657 114 694 114 l 569 114 q 532 78 532 114 q 569 43 532 43 l 657 43 q 694 78 694 43 m 428 78 q 390 114 428 114 l 303 114 q 265 78 265 114 q 303 43 265 43 l 390 43 q 428 78 428 43 m 161 78 q 124 114 161 114 l 114 114 q 76 78 76 114 q 114 43 76 43 l 124 43 q 161 78 161 43 z "},"n":{"ha":557,"x_min":31,"x_max":547,"o":"m 547 1003 l 538 1003 l 533 997 l 533 914 l 499 864 q 500 858 500 861 q 482 842 500 842 q 465 863 465 842 q 486 875 465 879 l 511 914 l 511 997 l 504 1003 l 497 1003 l 497 1050 l 504 1056 l 542 1056 l 547 1050 l 547 1003 m 185 842 q 165 858 165 842 q 168 867 165 863 q 156 914 163 883 l 156 997 l 151 1003 l 142 1003 l 142 1050 l 147 1056 l 185 1056 l 192 1050 l 192 1003 l 185 1003 l 178 997 l 178 914 l 182 875 q 188 876 185 875 q 201 863 201 876 q 185 842 201 842 m 140 842 q 124 864 115 842 l 100 914 l 100 997 l 96 1003 l 86 1003 l 86 1050 l 92 1056 l 129 1056 l 136 1050 l 136 1003 l 129 1003 l 122 997 l 122 914 q 136 875 129 896 q 143 876 140 876 q 157 863 157 876 q 140 842 157 842 m 96 842 q 79 864 71 842 l 44 914 l 44 997 l 40 1003 l 31 1003 l 31 1050 l 36 1056 l 74 1056 l 81 1050 l 81 1003 l 74 1003 l 67 997 l 67 914 l 92 875 q 99 876 96 876 q 113 863 113 876 q 96 842 113 842 m 522 51 q 453 -43 522 -43 l 310 -43 q 262 -28 285 -43 q 235 11 239 -12 l 190 235 q 157 261 185 261 q 119 228 119 261 l 119 1 q 75 -54 119 -54 q 36 1 36 -54 l 36 772 q 106 836 36 836 l 186 836 q 258 772 253 836 l 306 236 q 381 188 310 188 q 429 211 418 188 q 438 269 438 228 l 438 786 q 481 836 438 836 q 522 786 522 836 l 522 51 m 496 860 q 483 871 496 871 q 472 860 472 871 q 483 849 472 849 q 496 860 496 849 m 194 860 q 183 872 194 872 q 169 860 169 872 q 183 847 169 847 q 194 860 194 847 m 151 860 q 139 871 151 871 q 128 860 128 871 q 139 849 128 849 q 151 860 151 849 m 107 860 q 94 871 107 871 q 83 860 83 871 q 94 849 83 849 q 107 860 107 849 m 494 78 q 457 114 494 114 l 303 114 q 265 78 265 114 q 303 43 265 43 l 457 43 q 494 78 494 43 z "},"o":{"ha":481,"x_min":33,"x_max":447,"o":"m 436 1003 l 426 1003 l 422 997 l 422 914 l 388 864 q 389 858 389 861 q 371 842 389 842 q 354 863 354 842 q 375 875 354 879 l 400 914 l 400 997 l 393 1003 l 386 1003 l 386 1050 l 393 1056 l 431 1056 l 436 1050 l 436 1003 m 381 1003 l 371 1003 l 367 997 l 367 914 l 343 864 q 344 858 344 861 q 326 842 344 842 q 310 863 310 842 q 331 875 310 879 l 344 914 l 344 997 l 338 1003 l 331 1003 l 331 1050 l 338 1056 l 375 1056 l 381 1050 l 381 1003 m 325 1003 l 315 1003 l 311 997 q 300 867 318 913 q 301 861 301 865 q 285 842 301 842 q 267 863 267 842 q 286 875 267 879 q 289 997 289 914 l 282 1003 l 275 1003 l 275 1050 l 282 1056 l 319 1056 l 325 1050 l 325 1003 m 118 842 q 101 864 93 842 l 67 914 l 67 997 l 63 1003 l 53 1003 l 53 1050 l 58 1056 l 96 1056 l 103 1050 l 103 1003 l 96 1003 l 89 997 l 89 914 l 114 875 q 121 876 118 876 q 135 863 135 876 q 118 842 135 842 m 447 56 q 358 -42 447 -42 l 142 -42 q 33 44 33 -42 l 33 744 q 126 838 33 838 l 375 838 q 429 810 411 838 q 447 744 447 782 l 447 56 m 385 860 q 372 871 385 871 q 361 860 361 871 q 372 849 361 849 q 385 860 385 849 m 340 860 q 328 871 340 871 q 317 860 317 871 q 328 849 317 849 q 340 860 340 849 m 297 860 q 286 871 297 871 q 275 860 275 871 q 286 849 275 849 q 297 860 297 849 m 129 860 q 117 871 129 871 q 106 860 106 871 q 117 849 106 849 q 129 860 129 849 m 363 257 l 363 682 q 294 757 363 757 l 174 757 q 118 682 118 757 l 118 257 q 174 179 118 179 l 294 179 q 349 197 336 179 q 363 257 363 215 m 394 78 q 357 114 394 114 l 125 114 q 88 78 88 114 q 125 43 88 43 l 357 43 q 394 78 394 43 m 306 349 q 272 308 306 308 l 211 308 q 183 349 183 308 l 183 428 q 211 465 183 465 l 272 465 q 306 428 306 465 l 306 349 z "},"p":{"ha":499,"x_min":33,"x_max":474,"o":"m 436 1003 l 426 1003 l 422 997 l 422 914 l 388 864 q 389 858 389 861 q 371 842 389 842 q 354 863 354 842 q 375 875 354 879 l 400 914 l 400 997 l 393 1003 l 386 1003 l 386 1050 l 393 1056 l 431 1056 l 436 1050 l 436 1003 m 381 1003 l 371 1003 l 367 997 l 367 914 l 343 864 q 344 858 344 861 q 326 842 344 842 q 310 863 310 842 q 331 875 310 879 l 344 914 l 344 997 l 338 1003 l 331 1003 l 331 1050 l 338 1056 l 375 1056 l 381 1050 l 381 1003 m 269 1003 l 263 1003 l 256 997 l 256 875 q 264 863 264 872 q 256 847 264 850 q 242 843 247 843 q 229 858 229 843 q 233 875 229 868 l 233 997 l 229 1003 l 219 1003 l 219 1050 l 225 1056 l 263 1056 l 269 1050 l 269 1003 m 207 842 q 188 858 188 842 q 190 867 188 863 q 178 914 185 883 l 178 997 l 174 1003 l 164 1003 l 164 1050 l 169 1056 l 207 1056 l 214 1050 l 214 1003 l 207 1003 l 200 997 l 200 914 l 204 875 q 210 876 207 875 q 224 863 224 876 q 207 842 224 842 m 163 842 q 146 864 138 842 l 122 914 l 122 997 l 118 1003 l 108 1003 l 108 1050 l 114 1056 l 151 1056 l 158 1050 l 158 1003 l 151 1003 l 144 997 l 144 914 q 158 875 151 896 q 165 876 163 876 q 179 863 179 876 q 163 842 179 842 m 474 510 q 425 454 474 454 l 261 454 q 219 418 219 454 l 219 32 q 142 -42 219 -42 q 33 0 33 -42 l 33 776 q 108 838 33 838 l 400 838 q 474 733 474 838 l 474 510 m 347 -6 q 308 -44 347 -44 q 281 -33 293 -44 q 269 -6 269 -21 l 269 94 q 308 132 269 132 q 347 94 347 132 l 347 -6 m 385 860 q 372 871 385 871 q 361 860 361 871 q 372 849 361 849 q 385 860 385 849 m 340 860 q 328 871 340 871 q 317 860 317 871 q 328 849 317 849 q 340 860 340 849 m 257 860 q 246 871 257 871 q 235 860 235 871 q 246 849 235 849 q 257 860 257 849 m 217 860 q 206 872 217 872 q 192 860 192 872 q 206 847 192 847 q 217 860 217 847 m 174 860 q 161 871 174 871 q 150 860 150 871 q 161 849 150 849 q 174 860 174 849 m 256 571 l 256 693 q 229 750 256 739 q 161 757 215 757 q 96 693 96 757 l 96 599 q 161 528 96 528 l 197 528 q 239 533 228 528 q 256 571 256 543 m 172 78 q 135 114 172 114 l 114 114 q 76 78 76 114 q 114 43 76 43 l 135 43 q 172 78 172 43 z "},"q":{"ha":525,"x_min":33,"x_max":526,"o":"m 436 1003 l 426 1003 l 422 997 l 422 914 l 388 864 q 389 858 389 861 q 371 842 389 842 q 354 863 354 842 q 375 875 354 879 l 400 914 l 400 997 l 393 1003 l 386 1003 l 386 1050 l 393 1056 l 431 1056 l 436 1050 l 436 1003 m 381 1003 l 371 1003 l 367 997 l 367 914 l 343 864 q 344 858 344 861 q 326 842 344 842 q 310 863 310 842 q 331 875 310 879 l 344 914 l 344 997 l 338 1003 l 331 1003 l 331 1050 l 338 1056 l 375 1056 l 381 1050 l 381 1003 m 325 1003 l 315 1003 l 311 997 q 300 867 318 913 q 301 861 301 865 q 285 842 301 842 q 267 863 267 842 q 286 875 267 879 q 289 997 289 914 l 282 1003 l 275 1003 l 275 1050 l 282 1056 l 319 1056 l 325 1050 l 325 1003 m 269 1003 l 263 1003 l 256 997 l 256 875 q 264 863 264 872 q 256 847 264 850 q 242 843 247 843 q 229 858 229 843 q 233 875 229 868 l 233 997 l 229 1003 l 219 1003 l 219 1050 l 225 1056 l 263 1056 l 269 1050 l 269 1003 m 163 842 q 146 864 138 842 l 122 914 l 122 997 l 118 1003 l 108 1003 l 108 1050 l 114 1056 l 151 1056 l 158 1050 l 158 1003 l 151 1003 l 144 997 l 144 914 q 158 875 151 896 q 165 876 163 876 q 179 863 179 876 q 163 842 179 842 m 118 842 q 101 864 93 842 l 67 914 l 67 997 l 63 1003 l 53 1003 l 53 1050 l 58 1056 l 96 1056 l 103 1050 l 103 1003 l 96 1003 l 89 997 l 89 914 l 114 875 q 121 876 118 876 q 135 863 135 876 q 118 842 135 842 m 526 10 q 496 -11 526 -11 l 442 -11 q 394 -26 424 -11 q 340 -42 365 -42 l 104 -42 q 53 -15 74 -42 q 33 44 33 13 l 33 776 q 45 824 33 811 q 92 838 57 838 l 353 838 q 415 811 390 838 q 440 747 440 785 l 440 215 q 471 179 440 179 q 483 179 475 179 q 496 181 492 181 q 526 143 526 181 l 526 10 m 385 860 q 372 871 385 871 q 361 860 361 871 q 372 849 361 849 q 385 860 385 849 m 340 860 q 328 871 340 871 q 317 860 317 871 q 328 849 317 849 q 340 860 340 849 m 297 860 q 286 871 297 871 q 275 860 275 871 q 286 849 275 849 q 297 860 297 849 m 257 860 q 246 871 257 871 q 235 860 235 871 q 246 849 235 849 q 257 860 257 849 m 174 860 q 161 871 174 871 q 150 860 150 871 q 161 849 150 849 q 174 860 174 849 m 129 860 q 117 871 129 871 q 106 860 106 871 q 117 849 106 849 q 129 860 129 849 m 371 315 l 371 699 q 357 754 371 743 q 297 765 343 765 l 251 765 q 200 690 200 765 l 200 229 q 247 183 200 183 l 272 183 q 303 213 299 183 q 303 261 303 210 q 329 279 303 279 q 366 285 361 279 q 371 315 371 292 m 494 78 q 457 114 494 114 l 114 114 q 76 78 76 114 q 114 43 76 43 l 457 43 q 494 78 494 43 m 336 581 q 297 543 336 543 q 258 581 258 543 l 258 681 q 270 707 258 696 q 297 718 282 718 q 336 681 336 718 l 336 581 z "},"r":{"ha":503,"x_min":19,"x_max":475,"o":"m 403 1003 l 393 1003 l 389 997 l 389 914 l 354 864 q 356 858 356 861 q 338 842 356 842 q 321 863 321 842 q 342 875 321 879 l 367 914 l 367 997 l 360 1003 l 353 1003 l 353 1050 l 360 1056 l 397 1056 l 403 1050 l 403 1003 m 292 1003 l 282 1003 l 278 997 q 267 867 285 913 q 268 861 268 865 q 251 842 268 842 q 233 863 233 842 q 253 875 233 879 q 256 997 256 914 l 249 1003 l 242 1003 l 242 1050 l 249 1056 l 286 1056 l 292 1050 l 292 1003 m 174 842 q 154 858 154 842 q 157 867 154 863 q 144 914 151 883 l 144 997 l 140 1003 l 131 1003 l 131 1050 l 136 1056 l 174 1056 l 181 1050 l 181 1003 l 174 1003 l 167 997 l 167 914 l 171 875 q 176 876 174 875 q 190 863 190 876 q 174 842 190 842 m 129 842 q 113 864 104 842 l 89 914 l 89 997 l 85 1003 l 75 1003 l 75 1050 l 81 1056 l 118 1056 l 125 1050 l 125 1003 l 118 1003 l 111 997 l 111 914 q 125 875 118 896 q 132 876 129 876 q 146 863 146 876 q 129 842 146 842 m 85 842 q 68 864 60 842 l 33 914 l 33 997 l 29 1003 l 19 1003 l 19 1050 l 25 1056 l 63 1056 l 69 1050 l 69 1003 l 63 1003 l 56 997 l 56 914 l 81 875 q 88 876 85 876 q 101 863 101 876 q 85 842 101 842 m 475 11 q 432 -42 475 -42 q 390 11 390 -42 l 390 450 q 315 488 390 488 q 242 450 242 488 l 242 11 q 129 -42 242 -42 q 33 11 33 -42 l 33 774 q 107 838 33 838 l 308 838 q 392 757 392 838 l 392 596 q 449 522 392 581 q 475 471 475 496 l 475 11 m 354 4 q 315 -33 354 -33 q 276 4 276 -33 l 276 104 q 315 142 276 142 q 354 104 354 142 l 354 4 m 351 860 q 339 871 351 871 q 328 860 328 871 q 339 849 328 849 q 351 860 351 849 m 264 860 q 253 871 264 871 q 242 860 242 871 q 253 849 242 849 q 264 860 264 849 m 183 860 q 172 872 183 872 q 158 860 158 872 q 172 847 158 847 q 183 860 183 847 m 140 860 q 128 871 140 871 q 117 860 117 871 q 128 849 117 849 q 140 860 140 849 m 96 860 q 83 871 96 871 q 72 860 72 871 q 83 849 72 849 q 96 860 96 849 m 204 608 l 204 711 q 153 757 204 757 l 136 757 q 85 711 85 757 l 85 608 q 132 558 85 558 l 153 558 q 204 608 204 558 m 206 78 q 168 114 206 114 l 114 114 q 76 78 76 114 q 114 43 76 43 l 168 43 q 206 78 206 43 z "},"s":{"ha":489,"x_min":22,"x_max":481,"o":"m 481 1003 l 471 1003 l 467 997 l 467 914 l 432 864 q 433 858 433 861 q 415 842 433 842 q 399 863 399 842 q 419 875 399 879 l 444 914 l 444 997 l 438 1003 l 431 1003 l 431 1050 l 438 1056 l 475 1056 l 481 1050 l 481 1003 m 450 700 q 411 661 450 661 q 384 673 396 661 q 372 700 372 685 l 372 800 q 411 838 372 838 q 450 800 450 838 l 450 700 m 196 842 q 176 858 176 842 q 179 867 176 863 q 167 914 174 883 l 167 997 l 163 1003 l 153 1003 l 153 1050 l 158 1056 l 196 1056 l 203 1050 l 203 1003 l 196 1003 l 189 997 l 189 914 l 193 875 q 199 876 196 875 q 213 863 213 876 q 196 842 213 842 m 151 842 q 135 864 126 842 l 111 914 l 111 997 l 107 1003 l 97 1003 l 97 1050 l 103 1056 l 140 1056 l 147 1050 l 147 1003 l 140 1003 l 133 997 l 133 914 q 147 875 140 896 q 154 876 151 876 q 168 863 168 876 q 151 842 168 842 m 107 842 q 90 864 82 842 l 56 914 l 56 997 l 51 1003 l 42 1003 l 42 1050 l 47 1056 l 85 1056 l 92 1050 l 92 1003 l 85 1003 l 78 997 l 78 914 l 103 875 q 110 876 107 876 q 124 863 124 876 q 107 842 124 842 m 461 65 q 446 -17 461 3 q 361 -42 425 -42 l 63 -42 q 22 -12 40 -42 l 22 143 q 63 181 22 178 q 143 188 103 185 q 185 247 185 199 l 185 403 q 163 479 185 460 q 113 493 147 493 q 106 493 110 493 q 100 493 101 493 q 54 504 67 493 q 33 568 33 519 l 33 758 q 110 838 33 838 l 197 838 q 247 796 247 838 q 236 769 247 782 q 169 757 225 757 q 119 715 128 757 q 118 640 118 710 q 134 585 118 599 q 192 572 150 572 l 374 572 q 461 494 461 572 l 461 65 m 429 860 q 417 871 429 871 q 406 860 406 871 q 417 849 406 849 q 429 860 429 849 m 206 860 q 194 872 206 872 q 181 860 181 872 q 194 847 181 847 q 206 860 206 847 m 163 860 q 150 871 163 871 q 139 860 139 871 q 150 849 139 849 q 163 860 163 849 m 118 860 q 106 871 118 871 q 94 860 94 871 q 106 849 94 849 q 118 860 118 849 m 394 78 q 357 114 394 114 l 114 114 q 76 78 76 114 q 114 43 76 43 l 357 43 q 394 78 394 43 z "},"t":{"ha":463,"x_min":13,"x_max":435,"o":"m 425 1003 l 415 1003 l 411 997 l 411 914 l 376 864 q 378 858 378 861 q 360 842 378 842 q 343 863 343 842 q 364 875 343 879 l 389 914 l 389 997 l 382 1003 l 375 1003 l 375 1050 l 382 1056 l 419 1056 l 425 1050 l 425 1003 m 369 1003 l 360 1003 l 356 997 l 356 914 l 332 864 q 333 858 333 861 q 315 842 333 842 q 299 863 299 842 q 319 875 299 879 l 333 914 l 333 997 l 326 1003 l 319 1003 l 319 1050 l 326 1056 l 364 1056 l 369 1050 l 369 1003 m 258 1003 l 251 1003 l 244 997 l 244 875 q 253 863 253 872 q 244 847 253 850 q 231 843 236 843 q 218 858 218 843 q 222 875 218 868 l 222 997 l 218 1003 l 208 1003 l 208 1050 l 214 1056 l 251 1056 l 258 1050 l 258 1003 m 196 842 q 176 858 176 842 q 179 867 176 863 q 167 914 174 883 l 167 997 l 163 1003 l 153 1003 l 153 1050 l 158 1056 l 196 1056 l 203 1050 l 203 1003 l 196 1003 l 189 997 l 189 914 l 193 875 q 199 876 196 875 q 213 863 213 876 q 196 842 213 842 m 107 842 q 90 864 82 842 l 56 914 l 56 997 l 51 1003 l 42 1003 l 42 1050 l 47 1056 l 85 1056 l 92 1050 l 92 1003 l 85 1003 l 78 997 l 78 914 l 103 875 q 110 876 107 876 q 124 863 124 876 q 107 842 124 842 m 403 454 q 364 417 403 417 q 325 454 325 417 l 325 554 q 337 581 325 569 q 364 592 349 592 q 403 554 403 592 l 403 454 m 435 743 q 422 690 435 714 q 379 661 406 661 l 317 661 q 272 618 272 661 l 272 11 q 231 -40 272 -40 q 188 11 188 -40 l 188 618 q 149 661 188 661 l 63 661 q 13 740 13 661 q 75 838 13 838 l 342 838 q 435 743 435 838 m 374 860 q 361 871 374 871 q 350 860 350 871 q 361 849 350 849 q 374 860 374 849 m 329 860 q 317 871 329 871 q 306 860 306 871 q 317 849 306 849 q 329 860 329 849 m 246 860 q 235 871 246 871 q 224 860 224 871 q 235 849 224 849 q 246 860 246 849 m 206 860 q 194 872 206 872 q 181 860 181 872 q 194 847 181 847 q 206 860 206 847 m 118 860 q 106 871 118 871 q 94 860 94 871 q 106 849 94 849 q 118 860 118 849 z "},"u":{"ha":486,"x_min":8,"x_max":469,"o":"m 469 1003 l 460 1003 l 456 997 q 444 867 463 913 q 446 861 446 865 q 429 842 446 842 q 411 863 411 842 q 431 875 411 879 q 433 997 433 914 l 426 1003 l 419 1003 l 419 1050 l 426 1056 l 464 1056 l 469 1050 l 469 1003 m 414 1003 l 407 1003 l 400 997 l 400 875 q 408 863 408 872 q 400 847 408 850 q 386 843 392 843 q 374 858 374 843 q 378 875 374 868 l 378 997 l 374 1003 l 364 1003 l 364 1050 l 369 1056 l 407 1056 l 414 1050 l 414 1003 m 118 842 q 101 864 93 842 l 78 914 l 78 997 l 74 1003 l 64 1003 l 64 1050 l 69 1056 l 107 1056 l 114 1050 l 114 1003 l 107 1003 l 100 997 l 100 914 q 114 875 107 896 q 121 876 118 876 q 135 863 135 876 q 118 842 135 842 m 74 842 q 57 864 49 842 l 22 914 l 22 997 l 18 1003 l 8 1003 l 8 1050 l 14 1056 l 51 1056 l 58 1050 l 58 1003 l 51 1003 l 44 997 l 44 914 l 69 875 q 76 876 74 876 q 90 863 90 876 q 74 842 90 842 m 449 47 q 428 -22 449 -1 q 358 -42 408 -42 l 125 -42 q 33 47 33 -42 l 33 789 q 75 847 33 847 q 104 835 90 847 q 118 807 118 822 l 118 222 q 171 179 118 179 l 319 179 q 358 196 349 179 q 364 240 364 207 l 364 789 q 408 844 364 844 q 449 807 449 844 l 449 47 m 331 267 q 292 229 331 229 q 265 240 276 229 q 253 267 253 251 l 253 367 q 292 406 253 406 q 331 367 331 406 l 331 267 m 442 860 q 431 871 442 871 q 419 860 419 871 q 431 849 419 849 q 442 860 442 849 m 401 860 q 390 871 401 871 q 379 860 379 871 q 390 849 379 849 q 401 860 401 849 m 129 860 q 117 871 129 871 q 106 860 106 871 q 117 849 106 849 q 129 860 129 849 m 85 860 q 72 871 85 871 q 61 860 61 871 q 72 849 61 849 q 85 860 85 849 m 406 78 q 368 114 406 114 l 114 114 q 76 78 76 114 q 114 43 76 43 l 368 43 q 406 78 406 43 z "},"v":{"ha":571,"x_min":8,"x_max":531,"o":"m 78 78 q 115 43 78 43 l 225 43 q 263 78 263 43 q 225 114 263 114 l 115 114 q 78 78 78 114 m 454 860 q 467 849 454 849 q 478 860 478 849 q 467 871 478 871 q 454 860 454 871 m 410 860 q 422 849 410 849 q 433 860 433 849 q 422 871 433 871 q 410 860 410 871 m 367 860 q 378 847 367 847 q 392 860 392 847 q 378 872 392 872 q 367 860 367 872 m 193 860 q 204 849 193 849 q 215 860 215 849 q 204 871 215 871 q 193 860 193 871 m 110 860 q 122 849 110 849 q 133 860 133 849 q 122 871 133 871 q 110 860 110 871 m 65 860 q 78 849 65 849 q 89 860 89 849 q 78 871 89 871 q 65 860 65 871 m 406 107 q 444 144 406 144 q 483 107 483 144 l 483 7 q 472 -19 483 -8 q 444 -31 460 -31 q 406 7 406 -31 l 406 107 m 8 778 q 24 819 8 801 q 64 838 40 838 l 200 838 q 233 821 218 838 q 249 786 249 804 l 249 461 q 213 422 249 422 l 156 422 q 136 392 136 422 l 136 215 q 175 172 136 172 q 260 219 233 172 q 269 239 268 233 l 338 564 q 346 606 343 590 q 315 644 346 640 q 283 683 283 649 l 283 786 q 303 822 283 807 q 344 838 324 838 l 464 838 q 522 778 522 838 l 522 703 q 497 656 522 674 l 456 622 q 429 574 435 597 l 306 39 q 294 15 304 31 q 169 -42 260 -42 l 114 -42 q 71 -21 89 -42 q 53 25 53 0 l 53 381 q 31 432 53 393 q 8 489 8 471 l 8 778 m 465 842 q 449 863 449 842 q 463 876 449 876 q 469 875 465 876 l 494 914 l 494 997 l 488 1003 l 481 1003 l 481 1050 l 488 1056 l 525 1056 l 531 1050 l 531 1003 l 521 1003 l 517 997 l 517 914 l 482 864 q 465 842 490 842 m 421 842 q 404 863 404 842 q 418 876 404 876 q 425 875 421 876 q 439 914 432 896 l 439 997 l 432 1003 l 425 1003 l 425 1050 l 432 1056 l 469 1056 l 475 1050 l 475 1003 l 465 1003 l 461 997 l 461 914 l 438 864 q 421 842 446 842 m 376 842 q 360 863 360 842 q 374 876 360 876 q 379 875 376 875 l 383 914 l 383 997 l 376 1003 l 369 1003 l 369 1050 l 376 1056 l 414 1056 l 419 1050 l 419 1003 l 410 1003 l 406 997 l 406 914 q 393 867 399 883 q 396 858 396 863 q 376 842 396 842 m 181 1050 l 188 1056 l 225 1056 l 231 1050 l 231 1003 l 221 1003 l 217 997 l 217 875 q 221 858 221 868 q 208 843 221 843 q 194 847 203 843 q 186 863 186 850 q 194 875 186 872 l 194 997 l 188 1003 l 181 1003 l 181 1050 m 69 1050 l 75 1056 l 113 1056 l 119 1050 l 119 1003 l 113 1003 l 106 997 l 106 914 l 119 875 q 140 863 140 879 q 124 842 140 842 q 106 858 106 842 q 107 864 106 861 l 83 914 l 83 997 l 79 1003 l 69 1003 l 69 1050 m 14 1050 l 19 1056 l 57 1056 l 64 1050 l 64 1003 l 57 1003 l 50 997 l 50 914 l 75 875 q 96 863 96 879 q 79 842 96 842 q 61 858 61 842 q 63 864 61 861 l 28 914 l 28 997 l 24 1003 l 14 1003 l 14 1050 z "},"w":{"ha":746,"x_min":29,"x_max":717,"o":"m 286 78 q 324 43 286 43 l 622 43 q 660 78 660 43 q 622 114 660 114 l 324 114 q 286 78 286 114 m 640 860 q 653 849 640 849 q 664 860 664 849 q 653 871 664 871 q 640 860 640 871 m 596 860 q 608 849 596 849 q 619 860 619 849 q 608 871 619 871 q 596 860 596 871 m 553 860 q 564 847 553 847 q 578 860 578 847 q 564 872 578 872 q 553 860 553 872 m 513 860 q 524 849 513 849 q 535 860 535 849 q 524 871 535 871 q 513 860 513 871 m 472 860 q 483 849 472 849 q 494 860 494 849 q 483 871 494 871 q 472 860 472 871 m 374 860 q 386 849 374 849 q 397 860 397 849 q 386 871 397 871 q 374 860 374 871 m 331 860 q 342 847 331 847 q 356 860 356 847 q 342 872 356 872 q 331 860 331 872 m 224 860 q 235 849 224 849 q 246 860 246 849 q 235 871 246 871 q 224 860 224 871 m 183 860 q 194 849 183 849 q 206 860 206 849 q 194 871 206 871 q 183 860 183 871 m 140 860 q 153 849 140 849 q 164 860 164 849 q 153 871 164 871 q 140 860 140 871 m 96 860 q 108 849 96 849 q 119 860 119 849 q 108 871 119 871 q 96 860 96 871 m 83 104 q 122 142 83 142 q 161 104 161 142 l 161 4 q 122 -33 161 -33 q 83 4 83 -33 l 83 104 m 29 778 q 89 838 29 838 l 236 838 q 272 797 272 838 l 272 683 q 240 644 272 649 q 207 606 207 639 q 214 564 207 592 l 264 367 q 361 300 281 300 q 388 316 378 300 q 399 349 399 332 l 399 614 q 365 646 399 646 q 351 646 361 646 q 338 644 343 644 q 300 683 300 644 l 300 797 q 336 838 300 838 l 483 838 q 517 827 511 838 q 522 797 522 817 l 522 683 q 503 645 522 658 q 483 614 483 632 l 483 242 q 533 183 483 183 q 601 188 589 183 q 629 242 629 197 l 629 614 q 592 644 629 636 q 556 683 556 651 l 556 797 q 597 838 556 838 l 661 838 q 699 817 683 838 q 714 768 714 796 l 714 44 q 588 -42 714 -42 l 361 -42 q 282 -25 311 -42 q 238 39 247 -4 l 122 574 q 69 643 115 608 q 29 703 29 674 l 29 778 m 651 842 q 635 863 635 842 q 649 876 635 876 q 656 875 651 876 l 681 914 l 681 997 l 674 1003 l 667 1003 l 667 1050 l 674 1056 l 711 1056 l 717 1050 l 717 1003 l 707 1003 l 703 997 l 703 914 l 668 864 q 651 842 676 842 m 607 842 q 590 863 590 842 q 604 876 590 876 q 611 875 607 876 q 625 914 618 896 l 625 997 l 618 1003 l 611 1003 l 611 1050 l 618 1056 l 656 1056 l 661 1050 l 661 1003 l 651 1003 l 647 997 l 647 914 l 624 864 q 607 842 632 842 m 563 842 q 546 863 546 842 q 560 876 546 876 q 565 875 563 875 l 569 914 l 569 997 l 563 1003 l 556 1003 l 556 1050 l 563 1056 l 600 1056 l 606 1050 l 606 1003 l 596 1003 l 592 997 l 592 914 q 579 867 585 883 q 582 858 582 863 q 563 842 582 842 m 500 1050 l 507 1056 l 544 1056 l 550 1050 l 550 1003 l 540 1003 l 536 997 l 536 875 q 540 858 540 868 q 528 843 540 843 q 514 847 522 843 q 506 863 506 850 q 514 875 506 872 l 514 997 l 507 1003 l 500 1003 l 500 1050 m 444 1050 l 450 1056 l 488 1056 l 494 1050 l 494 1003 l 488 1003 l 481 997 q 483 875 481 914 q 503 863 503 879 q 485 842 503 842 q 468 861 468 842 q 469 867 468 865 q 458 997 451 913 l 454 1003 l 444 1003 l 444 1050 m 385 842 q 368 863 368 842 q 382 876 368 876 q 389 875 385 876 q 403 914 396 896 l 403 997 l 396 1003 l 389 1003 l 389 1050 l 396 1056 l 433 1056 l 439 1050 l 439 1003 l 429 1003 l 425 997 l 425 914 l 401 864 q 385 842 410 842 m 340 842 q 324 863 324 842 q 338 876 324 876 q 343 875 340 875 l 347 914 l 347 997 l 340 1003 l 333 1003 l 333 1050 l 340 1056 l 378 1056 l 383 1050 l 383 1003 l 374 1003 l 369 997 l 369 914 q 357 867 363 883 q 360 858 360 863 q 340 842 360 842 m 211 1050 l 218 1056 l 256 1056 l 261 1050 l 261 1003 l 251 1003 l 247 997 l 247 875 q 251 858 251 868 q 239 843 251 843 q 225 847 233 843 q 217 863 217 850 q 225 875 217 872 l 225 997 l 218 1003 l 211 1003 l 211 1050 m 156 1050 l 161 1056 l 199 1056 l 206 1050 l 206 1003 l 199 1003 l 192 997 q 194 875 192 914 q 214 863 214 879 q 196 842 214 842 q 179 861 179 842 q 181 867 179 865 q 169 997 163 913 l 165 1003 l 156 1003 l 156 1050 m 100 1050 l 106 1056 l 143 1056 l 150 1050 l 150 1003 l 143 1003 l 136 997 l 136 914 l 150 875 q 171 863 171 879 q 154 842 171 842 q 136 858 136 842 q 138 864 136 861 l 114 914 l 114 997 l 110 1003 l 100 1003 l 100 1050 m 44 1050 l 50 1056 l 88 1056 l 94 1050 l 94 1003 l 88 1003 l 81 997 l 81 914 l 106 875 q 126 863 126 879 q 110 842 126 842 q 92 858 92 842 q 93 864 92 861 l 58 914 l 58 997 l 54 1003 l 44 1003 l 44 1050 z "},"x":{"ha":474,"x_min":1,"x_max":468,"o":"m 458 1003 l 449 1003 l 444 997 l 444 914 l 410 864 q 411 858 411 861 q 393 842 411 842 q 376 863 376 842 q 397 875 376 879 l 422 914 l 422 997 l 415 1003 l 408 1003 l 408 1050 l 415 1056 l 453 1056 l 458 1050 l 458 1003 m 118 842 q 101 864 93 842 l 78 914 l 78 997 l 74 1003 l 64 1003 l 64 1050 l 69 1056 l 107 1056 l 114 1050 l 114 1003 l 107 1003 l 100 997 l 100 914 q 114 875 107 896 q 121 876 118 876 q 135 863 135 876 q 118 842 135 842 m 74 842 q 57 864 49 842 l 22 914 l 22 997 l 18 1003 l 8 1003 l 8 1050 l 14 1056 l 51 1056 l 58 1050 l 58 1003 l 51 1003 l 44 997 l 44 914 l 69 875 q 76 876 74 876 q 90 863 90 876 q 74 842 90 842 m 468 0 q 424 -42 468 -42 l 372 -42 q 308 33 324 -42 l 236 374 q 221 400 231 400 q 203 365 214 400 l 90 0 q 39 -44 76 -44 q 1 -15 1 -44 q 17 28 1 -17 q 188 535 188 529 q 157 621 188 540 q 99 661 142 661 q 88 660 96 661 q 75 660 79 660 q 36 677 47 660 q 25 717 25 694 l 25 796 q 32 831 25 824 q 67 838 39 838 l 115 838 q 156 821 143 838 q 175 779 163 814 l 219 661 q 236 633 231 633 q 265 661 253 633 l 331 811 q 379 849 347 849 q 419 810 419 849 q 349 661 419 803 q 281 514 279 519 l 383 192 q 444 186 442 188 q 468 140 468 178 l 468 0 m 106 421 q 67 383 106 383 q 28 421 28 383 l 28 521 q 67 558 28 558 q 106 521 106 558 l 106 421 m 407 860 q 394 871 407 871 q 383 860 383 871 q 394 849 383 849 q 407 860 407 849 m 129 860 q 117 871 129 871 q 106 860 106 871 q 117 849 106 849 q 129 860 129 849 m 85 860 q 72 871 85 871 q 61 860 61 871 q 72 849 61 849 q 85 860 85 849 m 439 78 q 401 114 439 114 l 381 114 q 343 78 343 114 q 381 43 343 43 l 401 43 q 439 78 439 43 z "},"y":{"ha":521,"x_min":8,"x_max":503,"o":"m 503 1003 l 493 1003 l 489 997 l 489 914 l 454 864 q 456 858 456 861 q 438 842 456 842 q 421 863 421 842 q 442 875 421 879 l 467 914 l 467 997 l 460 1003 l 453 1003 l 453 1050 l 460 1056 l 497 1056 l 503 1050 l 503 1003 m 447 1003 l 438 1003 l 433 997 l 433 914 l 410 864 q 411 858 411 861 q 393 842 411 842 q 376 863 376 842 q 397 875 376 879 l 411 914 l 411 997 l 404 1003 l 397 1003 l 397 1050 l 404 1056 l 442 1056 l 447 1050 l 447 1003 m 392 1003 l 382 1003 l 378 997 q 367 867 385 913 q 368 861 368 865 q 351 842 368 842 q 333 863 333 842 q 353 875 333 879 q 356 997 356 914 l 349 1003 l 342 1003 l 342 1050 l 349 1056 l 386 1056 l 392 1050 l 392 1003 m 118 842 q 101 864 93 842 l 78 914 l 78 997 l 74 1003 l 64 1003 l 64 1050 l 69 1056 l 107 1056 l 114 1050 l 114 1003 l 107 1003 l 100 997 l 100 914 q 114 875 107 896 q 121 876 118 876 q 135 863 135 876 q 118 842 135 842 m 74 842 q 57 864 49 842 l 22 914 l 22 997 l 18 1003 l 8 1003 l 8 1050 l 14 1056 l 51 1056 l 58 1050 l 58 1003 l 51 1003 l 44 997 l 44 914 l 69 875 q 76 876 74 876 q 90 863 90 876 q 74 842 90 842 m 214 1003 l 207 1003 l 200 997 l 200 408 q 208 396 208 406 q 200 380 208 383 q 186 376 192 376 q 174 392 174 376 q 178 408 174 401 l 174 1003 l 164 1003 l 164 1050 l 169 1056 l 207 1056 l 214 1050 l 214 1003 m 485 272 q 382 181 485 181 q 371 161 371 181 l 371 0 q 329 -42 371 -42 q 286 0 286 -42 l 286 188 q 249 222 286 207 l 75 296 q 33 375 33 314 l 33 789 q 75 838 33 838 q 118 807 118 838 l 118 389 q 144 358 118 371 q 261 304 258 304 q 271 318 271 304 l 271 769 q 321 832 271 822 q 374 838 349 838 q 429 833 400 838 q 485 769 485 822 l 485 272 m 126 11 q 88 -28 126 -28 q 60 -16 72 -28 q 49 11 49 -4 l 49 111 q 88 149 49 149 q 126 111 126 149 l 126 11 m 451 860 q 439 871 451 871 q 428 860 428 871 q 439 849 428 849 q 451 860 451 849 m 407 860 q 394 871 407 871 q 383 860 383 871 q 394 849 383 849 q 407 860 407 849 m 364 860 q 353 871 364 871 q 342 860 342 871 q 353 849 342 849 q 364 860 364 849 m 129 860 q 117 871 129 871 q 106 860 106 871 q 117 849 106 849 q 129 860 129 849 m 85 860 q 72 871 85 871 q 61 860 61 871 q 72 849 61 849 q 85 860 85 849 m 201 393 q 190 404 201 404 q 179 393 179 404 q 190 382 179 382 q 201 393 201 382 z "},"z":{"ha":482,"x_min":19,"x_max":453,"o":"m 436 1003 l 426 1003 l 422 997 l 422 914 l 388 864 q 389 858 389 861 q 371 842 389 842 q 354 863 354 842 q 375 875 354 879 l 400 914 l 400 997 l 393 1003 l 386 1003 l 386 1050 l 393 1056 l 431 1056 l 436 1050 l 436 1003 m 325 1003 l 315 1003 l 311 997 q 300 867 318 913 q 301 861 301 865 q 285 842 301 842 q 267 863 267 842 q 286 875 267 879 q 289 997 289 914 l 282 1003 l 275 1003 l 275 1050 l 282 1056 l 319 1056 l 325 1050 l 325 1003 m 269 1003 l 263 1003 l 256 997 l 256 875 q 264 863 264 872 q 256 847 264 850 q 242 843 247 843 q 229 858 229 843 q 233 875 229 868 l 233 997 l 229 1003 l 219 1003 l 219 1050 l 225 1056 l 263 1056 l 269 1050 l 269 1003 m 163 842 q 146 864 138 842 l 122 914 l 122 997 l 118 1003 l 108 1003 l 108 1050 l 114 1056 l 151 1056 l 158 1050 l 158 1003 l 151 1003 l 144 997 l 144 914 q 158 875 151 896 q 165 876 163 876 q 179 863 179 876 q 163 842 179 842 m 118 842 q 101 864 93 842 l 67 914 l 67 997 l 63 1003 l 53 1003 l 53 1050 l 58 1056 l 96 1056 l 103 1050 l 103 1003 l 96 1003 l 89 997 l 89 914 l 114 875 q 121 876 118 876 q 135 863 135 876 q 118 842 135 842 m 124 533 q 85 496 124 496 q 58 507 69 496 q 46 533 46 518 l 46 633 q 85 672 46 672 q 124 633 124 672 l 124 533 m 453 78 q 396 -42 453 -42 l 56 -42 q 29 -24 39 -42 q 19 8 19 -10 q 29 43 19 25 q 47 74 47 72 q 324 735 324 731 q 282 757 324 757 l 103 757 q 38 797 38 757 q 103 838 38 838 l 378 838 q 444 794 438 838 l 207 207 q 225 185 207 185 l 381 185 q 430 176 417 185 q 448 135 443 167 q 453 78 453 104 m 385 860 q 372 871 385 871 q 361 860 361 871 q 372 849 361 849 q 385 860 385 849 m 297 860 q 286 871 297 871 q 275 860 275 871 q 286 849 275 849 q 297 860 297 849 m 257 860 q 246 871 257 871 q 235 860 235 871 q 246 849 235 849 q 257 860 257 849 m 174 860 q 161 871 174 871 q 150 860 150 871 q 161 849 150 849 q 174 860 174 849 m 129 860 q 117 871 129 871 q 106 860 106 871 q 117 849 106 849 q 129 860 129 849 m 417 78 q 379 114 417 114 l 158 114 q 121 78 121 114 q 158 43 121 43 l 379 43 q 417 78 417 43 z "},"{":{"ha":339,"x_min":58,"x_max":282,"o":"m 282 -7 q 256 -35 282 -35 l 131 -35 q 80 -16 101 -35 q 58 32 58 3 l 58 917 q 94 956 58 956 l 249 956 q 270 947 258 956 q 282 928 282 938 q 250 900 282 900 l 181 900 q 151 863 151 900 l 151 236 q 192 188 151 188 q 239 189 257 188 q 282 169 282 186 l 282 -7 z "},"|":{"ha":310,"x_min":22,"x_max":282,"o":"m 282 915 q 250 837 282 857 q 218 794 218 817 l 218 21 q 178 -26 197 -26 q 138 10 151 -26 q 133 21 136 14 l 133 800 q 113 825 133 818 q 74 836 93 832 q 26 889 38 846 q 22 965 22 910 q 104 1069 22 1069 l 196 1069 q 278 1024 264 1069 q 282 915 282 1008 z "},"}":{"ha":306,"x_min":33,"x_max":258,"o":"m 258 4 q 221 -35 258 -35 l 67 -35 q 33 -7 33 -35 l 33 171 q 65 188 33 188 l 135 188 q 164 224 164 188 l 164 850 q 113 901 164 901 q 90 900 106 901 q 68 899 75 899 q 33 928 33 899 q 60 956 33 956 l 185 956 q 235 936 213 956 q 258 889 258 917 l 258 4 z "},"~":{"ha":1964,"x_min":86,"x_max":1878,"o":"m 86 407 l 88 407 l 88 472 l 181 472 l 181 511 l 156 511 l 156 633 l 181 633 l 181 676 l 156 676 l 156 728 l 765 728 l 765 664 q 732 682 756 682 q 668 575 668 682 q 735 469 668 469 q 778 496 756 469 l 778 472 l 811 472 l 811 728 l 1331 728 l 1331 692 l 1378 692 l 1378 728 l 1878 728 l 1878 0 l 86 0 l 86 407 m 1303 472 l 1303 603 q 1238 678 1303 678 q 1194 644 1204 678 q 1156 678 1182 678 q 1118 644 1132 678 l 1118 676 l 1074 676 l 1074 511 l 1047 511 l 1047 472 l 1144 472 l 1144 511 l 1118 511 l 1118 596 q 1144 628 1118 628 q 1165 596 1165 628 l 1165 472 l 1236 472 l 1236 511 l 1210 511 l 1210 596 q 1236 626 1210 626 q 1257 596 1257 626 l 1257 472 l 1303 472 m 1369 371 l 1292 371 l 1292 108 l 1336 108 l 1336 278 l 1340 278 l 1353 108 l 1433 108 l 1433 371 l 1389 371 l 1389 201 l 1385 201 l 1369 371 m 667 371 l 667 108 l 776 108 l 792 138 l 792 224 l 781 243 l 781 247 l 792 267 l 792 343 l 776 371 l 667 371 m 1147 343 l 1147 138 l 1161 108 l 1254 108 l 1271 138 l 1271 343 l 1256 371 l 1161 371 l 1147 343 m 376 371 l 376 108 l 429 108 l 429 224 l 444 224 l 444 108 l 501 108 l 501 214 l 481 243 l 481 247 l 501 275 l 501 343 l 486 371 l 376 371 m 356 407 l 401 407 l 401 485 q 435 468 411 468 q 499 574 499 468 q 432 679 499 679 q 389 651 413 679 l 389 676 l 356 676 l 356 407 m 660 572 q 583 681 660 681 q 508 572 508 681 q 583 467 508 467 q 660 572 660 467 m 1644 290 l 1697 290 l 1697 343 l 1683 371 l 1592 371 l 1576 343 l 1576 251 l 1593 224 l 1644 211 l 1644 158 l 1631 158 l 1631 197 l 1576 197 l 1576 138 l 1592 108 l 1682 108 l 1697 138 l 1697 238 l 1679 267 l 1631 278 l 1631 324 l 1644 324 l 1644 290 m 356 108 l 356 204 l 319 371 l 263 371 l 231 204 l 231 108 l 282 108 l 282 158 l 300 158 l 300 108 l 356 108 m 644 108 l 644 204 l 611 371 l 554 371 l 522 204 l 522 108 l 575 108 l 575 158 l 592 158 l 592 108 l 644 108 m 235 407 l 264 407 q 340 506 340 415 l 340 676 l 294 676 l 294 550 q 267 514 294 514 q 240 550 240 514 l 240 676 l 196 676 l 196 558 q 260 469 196 469 q 294 481 279 469 q 256 449 294 449 l 235 449 l 235 407 m 942 221 l 978 221 l 978 267 l 942 267 l 942 315 l 978 315 l 978 371 l 889 371 l 889 108 l 978 108 l 978 167 l 942 167 l 942 221 m 1092 217 l 1125 217 l 1125 263 l 1092 263 l 1092 315 l 1125 315 l 1125 371 l 1038 371 l 1038 108 l 1092 108 l 1092 217 m 1478 315 l 1478 108 l 1532 108 l 1532 315 l 1561 315 l 1561 371 l 1449 371 l 1449 315 l 1478 315 m 951 676 l 931 676 l 931 644 q 885 681 915 681 q 825 621 825 681 q 856 571 825 583 q 824 525 824 558 q 886 467 825 467 q 934 485 917 467 q 951 540 951 503 l 931 540 q 896 514 926 514 q 868 533 868 514 q 896 558 868 558 l 910 558 l 910 583 l 896 583 q 868 607 868 583 q 896 629 868 629 q 931 601 919 629 l 951 601 l 951 676 m 1522 674 l 1500 674 l 1500 644 q 1458 681 1483 681 q 1389 572 1389 681 q 1460 468 1389 468 q 1522 549 1510 468 l 1500 549 q 1465 517 1496 517 q 1433 572 1433 517 q 1465 629 1433 629 q 1500 592 1497 629 l 1522 592 l 1522 674 m 210 167 l 179 167 l 179 371 l 126 371 l 126 108 l 210 108 l 210 167 m 868 108 l 868 371 l 814 371 l 814 108 l 868 108 m 1028 511 l 1008 511 l 1008 601 q 1028 629 1008 629 q 1044 621 1036 629 l 1060 667 q 1036 678 1049 676 q 993 644 1007 678 l 993 676 l 967 676 l 967 472 l 1028 472 l 1028 511 m 1310 676 l 1310 633 l 1331 633 l 1331 472 l 1378 472 l 1378 676 l 1310 676 m 397 607 q 426 628 406 628 q 456 575 456 628 q 425 515 456 515 q 397 538 406 515 l 397 607 m 614 572 q 583 517 614 517 q 554 572 554 517 q 583 629 554 629 q 614 572 614 629 m 768 540 q 740 521 760 521 q 711 574 711 521 q 742 633 711 633 q 768 611 760 633 l 768 540 m 88 511 l 88 633 l 114 633 l 114 511 l 88 511 m 1200 158 l 1200 324 l 1215 324 l 1215 158 l 1200 158 m 88 676 l 88 728 l 114 728 l 114 676 l 88 676 m 282 197 l 282 224 l 290 293 l 293 293 l 300 224 l 300 197 l 282 197 m 575 197 l 575 224 l 582 293 l 586 293 l 592 224 l 592 197 l 575 197 m 721 224 l 736 224 l 736 158 l 721 158 l 721 224 m 721 267 l 721 324 l 736 324 l 736 267 l 721 267 m 429 267 l 429 324 l 444 324 l 444 267 l 429 267 z "},"":{"ha":539,"x_min":56,"x_max":493,"o":"m 493 79 q 475 22 493 47 q 425 -7 456 -7 l 351 -7 q 313 -24 332 -7 q 285 -40 294 -40 q 256 -24 275 -40 q 219 -7 236 -7 l 119 -7 q 56 68 56 -7 l 56 758 q 74 815 56 790 q 125 839 93 839 l 219 839 l 243 886 q 268 903 251 903 q 292 886 283 903 l 317 839 l 353 839 q 381 800 381 839 q 347 758 381 758 l 175 758 q 140 717 140 758 l 140 233 q 182 181 140 181 l 438 181 q 493 79 493 181 m 450 78 q 413 114 450 114 l 136 114 q 99 78 99 114 q 136 43 99 43 l 413 43 q 450 78 450 43 z "},"":{"ha":219,"x_min":53,"x_max":131,"o":"m 131 817 q 92 779 131 779 q 65 790 76 779 q 53 817 53 801 l 53 917 q 92 956 53 956 q 131 917 131 956 l 131 817 z "},"":{"ha":219,"x_min":53,"x_max":131,"o":"m 131 817 q 92 779 131 779 q 65 790 76 779 q 53 817 53 801 l 53 917 q 92 956 53 956 q 131 917 131 956 l 131 817 z "},"":{"ha":1389,"x_min":0,"x_max":0,"o":""},"":{"ha":283,"x_min":38,"x_max":226,"o":"m 226 817 q 188 779 226 779 q 160 790 172 779 q 149 817 149 801 l 149 917 q 160 944 149 932 q 188 956 172 956 q 215 944 203 956 q 226 917 226 932 l 226 817 m 115 817 q 76 779 115 779 q 49 790 61 779 q 38 817 38 801 l 38 917 q 49 944 38 932 q 76 956 61 956 q 103 944 92 956 q 115 917 115 932 l 115 817 z "},"":{"ha":283,"x_min":38,"x_max":226,"o":"m 226 817 q 188 779 226 779 q 160 790 172 779 q 149 817 149 801 l 149 917 q 160 944 149 932 q 188 956 172 956 q 215 944 203 956 q 226 917 226 932 l 226 817 m 115 817 q 76 779 115 779 q 49 790 61 779 q 38 817 38 801 l 38 917 q 49 944 38 932 q 76 956 61 956 q 103 944 92 956 q 115 917 115 932 l 115 817 z "},"":{"ha":1389,"x_min":0,"x_max":0,"o":""},"":{"ha":1389,"x_min":0,"x_max":0,"o":""},"":{"ha":1389,"x_min":0,"x_max":0,"o":""},"":{"ha":660,"x_min":118,"x_max":549,"o":"m 492 519 q 458 557 492 557 l 211 557 q 183 519 183 557 l 183 440 q 211 400 183 400 l 458 400 q 492 440 492 400 l 492 519 m 549 349 q 535 289 549 307 q 481 271 522 271 l 174 271 q 118 349 118 271 l 118 668 q 174 743 118 743 l 481 743 q 549 668 549 743 l 549 349 z "},"":{"ha":2060,"x_min":136,"x_max":1928,"o":"m 231 61 q 215 29 231 44 q 183 14 200 14 q 150 28 164 14 q 136 61 136 42 q 151 94 136 79 q 183 110 165 110 q 217 95 203 110 q 231 61 231 81 m 1079 61 q 1064 29 1079 44 q 1032 14 1049 14 q 999 28 1013 14 q 985 61 985 42 q 999 94 985 79 q 1032 110 1014 110 q 1065 95 1051 110 q 1079 61 1079 81 m 1928 61 q 1913 29 1928 44 q 1881 14 1897 14 q 1847 28 1861 14 q 1833 61 1833 42 q 1848 94 1833 79 q 1881 110 1863 110 q 1914 95 1900 110 q 1928 61 1928 81 z "},"":{"ha":978,"x_min":22,"x_max":969,"o":"m 481 1003 l 471 1003 l 467 997 l 467 914 l 432 864 q 433 858 433 861 q 415 842 433 842 q 399 863 399 842 q 419 875 399 879 l 444 914 l 444 997 l 438 1003 l 431 1003 l 431 1050 l 438 1056 l 475 1056 l 481 1050 l 481 1003 m 450 700 q 411 661 450 661 q 384 673 396 661 q 372 700 372 685 l 372 800 q 411 838 372 838 q 450 800 450 838 l 450 700 m 196 842 q 176 858 176 842 q 179 867 176 863 q 167 914 174 883 l 167 997 l 163 1003 l 153 1003 l 153 1050 l 158 1056 l 196 1056 l 203 1050 l 203 1003 l 196 1003 l 189 997 l 189 914 l 193 875 q 199 876 196 875 q 213 863 213 876 q 196 842 213 842 m 151 842 q 135 864 126 842 l 111 914 l 111 997 l 107 1003 l 97 1003 l 97 1050 l 103 1056 l 140 1056 l 147 1050 l 147 1003 l 140 1003 l 133 997 l 133 914 q 147 875 140 896 q 154 876 151 876 q 168 863 168 876 q 151 842 168 842 m 107 842 q 90 864 82 842 l 56 914 l 56 997 l 51 1003 l 42 1003 l 42 1050 l 47 1056 l 85 1056 l 92 1050 l 92 1003 l 85 1003 l 78 997 l 78 914 l 103 875 q 110 876 107 876 q 124 863 124 876 q 107 842 124 842 m 461 65 q 446 -17 461 3 q 361 -42 425 -42 l 63 -42 q 22 -12 40 -42 l 22 143 q 63 181 22 178 q 143 188 103 185 q 185 247 185 199 l 185 403 q 163 479 185 460 q 113 493 147 493 q 106 493 110 493 q 100 493 101 493 q 54 504 67 493 q 33 568 33 519 l 33 758 q 110 838 33 838 l 197 838 q 247 796 247 838 q 236 769 247 782 q 169 757 225 757 q 119 715 128 757 q 118 640 118 710 q 134 585 118 599 q 192 572 150 572 l 374 572 q 461 494 461 572 l 461 65 m 429 860 q 417 871 429 871 q 406 860 406 871 q 417 849 406 849 q 429 860 429 849 m 206 860 q 194 872 206 872 q 181 860 181 872 q 194 847 181 847 q 206 860 206 847 m 163 860 q 150 871 163 871 q 139 860 139 871 q 150 849 139 849 q 163 860 163 849 m 118 860 q 106 871 118 871 q 94 860 94 871 q 106 849 94 849 q 118 860 118 849 m 394 78 q 357 114 394 114 l 114 114 q 76 78 76 114 q 114 43 76 43 l 357 43 q 394 78 394 43 m 969 1003 l 960 1003 l 956 997 l 956 914 l 921 864 q 922 858 922 861 q 904 842 922 842 q 888 863 888 842 q 908 875 888 879 l 933 914 l 933 997 l 926 1003 l 919 1003 l 919 1050 l 926 1056 l 964 1056 l 969 1050 l 969 1003 m 939 700 q 900 661 939 661 q 873 673 885 661 q 861 700 861 685 l 861 800 q 900 838 861 838 q 939 800 939 838 l 939 700 m 685 842 q 665 858 665 842 q 668 867 665 863 q 656 914 663 883 l 656 997 l 651 1003 l 642 1003 l 642 1050 l 647 1056 l 685 1056 l 692 1050 l 692 1003 l 685 1003 l 678 997 l 678 914 l 682 875 q 688 876 685 875 q 701 863 701 876 q 685 842 701 842 m 640 842 q 624 864 615 842 l 600 914 l 600 997 l 596 1003 l 586 1003 l 586 1050 l 592 1056 l 629 1056 l 636 1050 l 636 1003 l 629 1003 l 622 997 l 622 914 q 636 875 629 896 q 643 876 640 876 q 657 863 657 876 q 640 842 657 842 m 596 842 q 579 864 571 842 l 544 914 l 544 997 l 540 1003 l 531 1003 l 531 1050 l 536 1056 l 574 1056 l 581 1050 l 581 1003 l 574 1003 l 567 997 l 567 914 l 592 875 q 599 876 596 876 q 613 863 613 876 q 596 842 613 842 m 950 65 q 935 -17 950 3 q 850 -42 914 -42 l 551 -42 q 511 -12 529 -42 l 511 143 q 551 181 511 178 q 632 188 592 185 q 674 247 674 199 l 674 403 q 651 479 674 460 q 601 493 636 493 q 594 493 599 493 q 589 493 590 493 q 543 504 556 493 q 522 568 522 519 l 522 758 q 599 838 522 838 l 686 838 q 736 796 736 838 q 725 769 736 782 q 658 757 714 757 q 608 715 617 757 q 607 640 607 710 q 623 585 607 599 q 681 572 639 572 l 863 572 q 950 494 950 572 l 950 65 m 918 860 q 906 871 918 871 q 894 860 894 871 q 906 849 894 849 q 918 860 918 849 m 694 860 q 683 872 694 872 q 669 860 669 872 q 683 847 669 847 q 694 860 694 847 m 651 860 q 639 871 651 871 q 628 860 628 871 q 639 849 628 849 q 651 860 651 849 m 607 860 q 594 871 607 871 q 583 860 583 871 q 594 849 583 849 q 607 860 607 849 m 883 78 q 846 114 883 114 l 603 114 q 565 78 565 114 q 603 43 565 43 l 846 43 q 883 78 883 43 z "},"":{"ha":229,"x_min":56,"x_max":189,"o":"m 56 557 q 69 600 56 574 q 82 642 82 626 l 82 743 q 122 792 82 792 q 163 744 163 792 l 163 642 q 176 595 163 621 q 189 557 189 569 l 189 85 q 122 19 189 19 q 56 85 56 19 l 56 557 m 71 907 q 86 940 71 925 q 119 954 101 954 q 153 940 139 954 q 167 907 167 925 q 152 874 167 889 q 119 858 138 858 q 86 874 101 858 q 71 907 71 889 z "},"":{"ha":229,"x_min":56,"x_max":189,"o":"m 56 557 q 69 600 56 574 q 82 642 82 626 l 82 743 q 122 792 82 792 q 163 744 163 792 l 163 642 q 176 595 163 621 q 189 557 189 569 l 189 85 q 122 19 189 19 q 56 85 56 19 l 56 557 m 71 907 q 86 940 71 925 q 119 954 101 954 q 153 940 139 954 q 167 907 167 925 q 152 874 167 889 q 119 858 138 858 q 86 874 101 858 q 71 907 71 889 z "},"":{"ha":882,"x_min":57,"x_max":829,"o":"m 57 385 q 88 535 57 464 q 170 658 118 606 q 293 740 222 710 q 443 771 364 771 q 593 740 522 771 q 716 658 664 710 q 799 535 768 606 q 829 385 829 464 q 799 235 829 306 q 716 112 768 164 q 593 29 664 60 q 443 -1 522 -1 q 293 29 364 -1 q 170 112 222 60 q 88 235 118 164 q 57 385 57 306 m 103 383 q 130 250 103 313 q 203 142 157 188 q 311 69 249 96 q 444 42 374 42 q 578 69 515 42 q 687 142 640 96 q 760 250 733 188 q 788 383 788 313 q 760 517 788 454 q 687 626 733 579 q 578 701 640 674 q 444 728 515 728 q 311 701 374 728 q 203 626 249 674 q 130 517 157 579 q 103 383 103 454 m 525 481 q 438 531 489 531 q 360 490 389 531 q 331 379 331 450 q 362 271 331 313 q 439 229 393 229 q 485 241 463 229 q 525 272 508 253 l 594 225 q 438 139 542 139 q 360 157 396 139 q 299 208 325 175 q 259 284 274 240 q 244 379 244 328 q 258 475 244 431 q 296 552 271 519 q 357 603 321 585 q 438 621 393 621 q 597 528 546 621 l 525 481 z "},"":{"ha":750,"x_min":65,"x_max":693,"o":"m 375 728 q 270 707 317 728 q 191 653 224 686 q 141 576 158 619 q 124 490 124 533 q 141 403 124 446 q 191 326 158 360 q 270 272 224 293 q 375 251 317 251 q 478 269 429 251 q 564 320 528 288 q 622 397 600 353 q 643 490 643 440 q 623 576 643 533 q 567 653 603 619 q 483 707 532 686 q 375 728 433 728 m 376 197 q 251 222 308 197 q 153 286 194 246 q 88 379 111 326 q 65 490 65 432 q 88 603 65 550 q 153 697 111 657 q 251 761 194 738 q 376 785 308 785 q 503 762 444 785 q 603 699 561 739 q 669 606 646 660 q 693 490 693 553 q 669 379 693 432 q 602 286 644 326 q 501 222 560 246 q 376 197 443 197 m 342 581 l 342 508 l 394 508 q 428 543 428 508 q 394 581 428 581 l 342 581 m 375 443 l 342 443 l 342 326 l 279 326 l 279 644 l 393 644 q 465 618 438 644 q 492 543 492 592 q 479 491 492 511 q 439 453 467 471 l 496 326 l 429 326 l 375 443 z "},"":{"ha":319,"x_min":57,"x_max":274,"o":"m 132 419 l 274 353 l 274 269 l 57 376 l 57 458 l 274 571 l 274 485 l 132 419 z "},"":{"ha":779,"x_min":60,"x_max":700,"o":"m 240 672 l 240 363 l 158 363 l 158 672 l 60 672 l 60 747 l 336 747 l 336 672 l 240 672 m 622 575 l 539 361 l 447 583 l 447 364 l 371 364 l 371 749 l 464 749 l 538 550 l 610 749 l 700 749 l 700 364 l 622 364 l 622 575 z "},"":{"ha":319,"x_min":57,"x_max":274,"o":"m 199 422 l 57 488 l 57 571 l 274 464 l 274 382 l 57 269 l 57 356 l 199 422 z "},"":{"ha":519,"x_min":57,"x_max":479,"o":"m 132 419 l 274 353 l 274 269 l 57 376 l 57 458 l 274 571 l 274 485 l 132 419 m 338 419 l 479 353 l 479 269 l 263 376 l 263 458 l 479 571 l 479 485 l 338 419 z "},"":{"ha":536,"x_min":72,"x_max":494,"o":"m 419 422 l 278 488 l 278 571 l 494 464 l 494 382 l 278 269 l 278 356 l 419 422 m 214 422 l 72 488 l 72 571 l 289 464 l 289 382 l 72 269 l 72 356 l 214 422 z "},"":{"ha":375,"x_min":32,"x_max":342,"o":"m 186 1206 l 118 1115 l 32 1115 l 144 1249 l 226 1249 l 342 1115 l 254 1115 l 186 1206 z "},"":{"ha":435,"x_min":49,"x_max":385,"o":"m 385 1183 q 283 1117 360 1117 q 249 1123 264 1117 q 221 1137 235 1129 q 193 1151 207 1144 q 164 1157 179 1157 q 131 1147 147 1157 q 97 1110 114 1136 l 49 1151 q 95 1207 69 1190 q 153 1224 121 1224 q 194 1218 178 1224 q 223 1205 210 1213 q 249 1192 236 1197 q 279 1186 261 1186 q 342 1233 319 1186 l 385 1183 z "},"":{"ha":467,"x_min":75,"x_max":392,"o":"m 138 1131 q 92 1149 110 1131 q 75 1194 75 1168 q 92 1240 75 1222 q 138 1258 110 1258 q 183 1240 164 1258 q 201 1194 201 1222 q 183 1149 201 1168 q 138 1131 164 1131 m 329 1131 q 285 1149 304 1131 q 267 1194 267 1168 q 285 1240 267 1222 q 329 1258 304 1258 q 374 1240 357 1258 q 392 1194 392 1222 q 374 1149 392 1168 q 329 1131 357 1131 z "},"":{"ha":215,"x_min":72,"x_max":243,"o":"m 125 1103 l 72 1103 l 149 1238 l 243 1238 l 125 1103 z "},"":{"ha":251,"x_min":78,"x_max":213,"o":"m 143 10 l 143 -40 q 213 -103 213 -40 q 192 -160 213 -143 q 126 -176 171 -176 q 98 -174 111 -176 q 78 -168 85 -171 l 92 -121 q 125 -126 103 -126 q 164 -107 164 -126 q 158 -92 164 -96 q 135 -87 151 -87 l 118 -87 q 110 -88 115 -87 q 99 -90 106 -89 l 99 10 l 143 10 z "},"":{"ha":318,"x_min":75,"x_max":243,"o":"m 160 1267 q 122 1250 139 1267 q 106 1210 106 1233 q 122 1169 106 1185 q 160 1153 138 1153 q 200 1169 183 1153 q 217 1210 217 1185 q 199 1250 217 1233 q 160 1267 182 1267 m 158 1124 q 99 1147 122 1124 q 75 1207 75 1171 q 99 1270 75 1244 q 158 1296 122 1296 q 219 1269 194 1296 q 243 1207 243 1243 q 219 1147 243 1171 q 158 1124 194 1124 z "},"":{"ha":310,"x_min":22,"x_max":283,"o":"m 174 842 q 157 864 149 842 l 122 914 l 122 997 l 118 1003 l 108 1003 l 108 1050 l 114 1056 l 151 1056 l 158 1050 l 158 1003 l 151 1003 l 144 997 l 144 914 l 169 875 q 176 876 174 876 q 190 863 190 876 q 174 842 190 842 m 282 40 q 196 -42 282 -42 l 104 -42 q 32 0 49 -42 q 22 92 22 24 q 74 192 22 178 q 113 203 93 196 q 133 228 133 210 l 133 796 q 143 823 133 803 q 179 843 153 843 q 204 825 190 843 q 218 796 218 807 l 218 233 q 233 203 218 214 q 264 180 247 192 q 283 111 281 168 q 282 40 282 133 m 185 860 q 172 871 185 871 q 161 860 161 871 q 172 849 161 849 q 185 860 185 849 m 250 78 q 213 114 250 114 l 103 114 q 65 78 65 114 q 103 43 65 43 l 213 43 q 250 78 250 43 z "},"":{"ha":521,"x_min":8,"x_max":503,"o":"m 503 1003 l 493 1003 l 489 997 l 489 914 l 454 864 q 456 858 456 861 q 438 842 456 842 q 421 863 421 842 q 442 875 421 879 l 467 914 l 467 997 l 460 1003 l 453 1003 l 453 1050 l 460 1056 l 497 1056 l 503 1050 l 503 1003 m 447 1003 l 438 1003 l 433 997 l 433 914 l 410 864 q 411 858 411 861 q 393 842 411 842 q 376 863 376 842 q 397 875 376 879 l 411 914 l 411 997 l 404 1003 l 397 1003 l 397 1050 l 404 1056 l 442 1056 l 447 1050 l 447 1003 m 392 1003 l 382 1003 l 378 997 q 367 867 385 913 q 368 861 368 865 q 351 842 368 842 q 333 863 333 842 q 353 875 333 879 q 356 997 356 914 l 349 1003 l 342 1003 l 342 1050 l 349 1056 l 386 1056 l 392 1050 l 392 1003 m 118 842 q 101 864 93 842 l 78 914 l 78 997 l 74 1003 l 64 1003 l 64 1050 l 69 1056 l 107 1056 l 114 1050 l 114 1003 l 107 1003 l 100 997 l 100 914 q 114 875 107 896 q 121 876 118 876 q 135 863 135 876 q 118 842 135 842 m 74 842 q 57 864 49 842 l 22 914 l 22 997 l 18 1003 l 8 1003 l 8 1050 l 14 1056 l 51 1056 l 58 1050 l 58 1003 l 51 1003 l 44 997 l 44 914 l 69 875 q 76 876 74 876 q 90 863 90 876 q 74 842 90 842 m 214 1003 l 207 1003 l 200 997 l 200 408 q 208 396 208 406 q 200 380 208 383 q 186 376 192 376 q 174 392 174 376 q 178 408 174 401 l 174 1003 l 164 1003 l 164 1050 l 169 1056 l 207 1056 l 214 1050 l 214 1003 m 485 272 q 382 181 485 181 q 371 161 371 181 l 371 0 q 329 -42 371 -42 q 286 0 286 -42 l 286 188 q 249 222 286 207 l 75 296 q 33 375 33 314 l 33 789 q 75 838 33 838 q 118 807 118 838 l 118 389 q 144 358 118 371 q 261 304 258 304 q 271 318 271 304 l 271 769 q 321 832 271 822 q 374 838 349 838 q 429 833 400 838 q 485 769 485 822 l 485 272 m 126 11 q 88 -28 126 -28 q 60 -16 72 -28 q 49 11 49 -4 l 49 111 q 88 149 49 149 q 126 111 126 149 l 126 11 m 451 860 q 439 871 451 871 q 428 860 428 871 q 439 849 428 849 q 451 860 451 849 m 407 860 q 394 871 407 871 q 383 860 383 871 q 394 849 383 849 q 407 860 407 849 m 364 860 q 353 871 364 871 q 342 860 342 871 q 353 849 342 849 q 364 860 364 849 m 129 860 q 117 871 129 871 q 106 860 106 871 q 117 849 106 849 q 129 860 129 849 m 85 860 q 72 871 85 871 q 61 860 61 871 q 72 849 61 849 q 85 860 85 849 m 201 393 q 190 404 201 404 q 179 393 179 404 q 190 382 179 382 q 201 393 201 382 m 164 1131 q 119 1149 136 1131 q 101 1194 101 1168 q 119 1240 101 1222 q 164 1258 136 1258 q 209 1240 190 1258 q 228 1194 228 1222 q 209 1149 228 1168 q 164 1131 190 1131 m 356 1131 q 312 1149 331 1131 q 293 1194 293 1168 q 312 1240 293 1222 q 356 1258 331 1258 q 401 1240 383 1258 q 418 1194 418 1222 q 401 1149 418 1168 q 356 1131 383 1131 z "},"":{"ha":556,"x_min":29,"x_max":517,"o":"m 353 78 q 390 43 353 43 l 433 43 q 471 78 471 43 q 433 114 471 114 l 390 114 q 353 78 353 114 m 64 78 q 101 43 64 43 l 178 43 q 215 78 215 43 q 178 114 215 114 l 101 114 q 64 78 64 114 m 419 756 q 343 689 378 756 l 289 585 q 278 551 278 564 q 300 532 278 532 l 392 532 q 441 540 429 532 q 453 585 453 549 l 453 728 q 442 747 453 739 q 419 756 431 756 m 418 860 q 431 849 418 849 q 442 860 442 849 q 431 871 442 871 q 418 860 418 871 m 331 860 q 342 847 331 847 q 356 860 356 847 q 342 872 356 872 q 331 860 331 872 m 229 771 q 242 760 229 760 q 253 771 253 760 q 242 782 253 782 q 229 771 229 782 m 29 317 q 49 393 29 363 l 301 792 q 400 838 331 838 q 517 739 517 838 l 517 18 q 502 -23 517 -4 q 465 -42 488 -42 l 356 -42 q 308 4 308 -42 l 308 128 q 339 179 308 179 q 397 188 393 179 q 400 215 400 196 l 400 411 q 364 456 400 456 l 226 456 q 144 400 144 456 l 144 215 q 185 179 144 179 q 198 179 189 179 q 211 179 207 179 q 261 128 261 179 l 261 10 q 218 -42 261 -42 l 93 -42 q 39 -21 53 -42 q 29 38 29 -6 l 29 317 m 429 842 q 413 863 413 842 q 426 876 413 876 q 433 875 429 876 l 458 914 l 458 997 l 451 1003 l 444 1003 l 444 1050 l 451 1056 l 489 1056 l 494 1050 l 494 1003 l 485 1003 l 481 997 l 481 914 l 446 864 q 429 842 454 842 m 340 842 q 324 863 324 842 q 338 876 324 876 q 343 875 340 875 l 347 914 l 347 997 l 340 1003 l 333 1003 l 333 1050 l 340 1056 l 378 1056 l 383 1050 l 383 1003 l 374 1003 l 369 997 l 369 914 q 357 867 363 883 q 360 858 360 863 q 340 842 360 842 m 54 811 q 93 849 54 849 q 132 811 132 849 l 132 711 q 120 684 132 696 q 93 672 108 672 q 54 711 54 672 l 54 811 m 111 1050 l 117 1056 l 154 1056 l 161 1050 l 161 1003 l 154 1003 l 147 997 l 147 914 l 239 786 q 260 774 260 790 q 243 753 260 753 q 225 769 225 753 q 226 775 225 772 l 125 914 l 125 997 l 121 1003 l 111 1003 l 111 1050 m 271 1235 l 365 1235 l 442 1100 l 389 1100 l 271 1235 z "},"":{"ha":556,"x_min":29,"x_max":517,"o":"m 353 78 q 390 43 353 43 l 433 43 q 471 78 471 43 q 433 114 471 114 l 390 114 q 353 78 353 114 m 64 78 q 101 43 64 43 l 178 43 q 215 78 215 43 q 178 114 215 114 l 101 114 q 64 78 64 114 m 419 756 q 343 689 378 756 l 289 585 q 278 551 278 564 q 300 532 278 532 l 392 532 q 441 540 429 532 q 453 585 453 549 l 453 728 q 442 747 453 739 q 419 756 431 756 m 418 860 q 431 849 418 849 q 442 860 442 849 q 431 871 442 871 q 418 860 418 871 m 331 860 q 342 847 331 847 q 356 860 356 847 q 342 872 356 872 q 331 860 331 872 m 229 771 q 242 760 229 760 q 253 771 253 760 q 242 782 253 782 q 229 771 229 782 m 29 317 q 49 393 29 363 l 301 792 q 400 838 331 838 q 517 739 517 838 l 517 18 q 502 -23 517 -4 q 465 -42 488 -42 l 356 -42 q 308 4 308 -42 l 308 128 q 339 179 308 179 q 397 188 393 179 q 400 215 400 196 l 400 411 q 364 456 400 456 l 226 456 q 144 400 144 456 l 144 215 q 185 179 144 179 q 198 179 189 179 q 211 179 207 179 q 261 128 261 179 l 261 10 q 218 -42 261 -42 l 93 -42 q 39 -21 53 -42 q 29 38 29 -6 l 29 317 m 429 842 q 413 863 413 842 q 426 876 413 876 q 433 875 429 876 l 458 914 l 458 997 l 451 1003 l 444 1003 l 444 1050 l 451 1056 l 489 1056 l 494 1050 l 494 1003 l 485 1003 l 481 997 l 481 914 l 446 864 q 429 842 454 842 m 340 842 q 324 863 324 842 q 338 876 324 876 q 343 875 340 875 l 347 914 l 347 997 l 340 1003 l 333 1003 l 333 1050 l 340 1056 l 378 1056 l 383 1050 l 383 1003 l 374 1003 l 369 997 l 369 914 q 357 867 363 883 q 360 858 360 863 q 340 842 360 842 m 54 811 q 93 849 54 849 q 132 811 132 849 l 132 711 q 120 684 132 696 q 93 672 108 672 q 54 711 54 672 l 54 811 m 111 1050 l 117 1056 l 154 1056 l 161 1050 l 161 1003 l 154 1003 l 147 997 l 147 914 l 239 786 q 260 774 260 790 q 243 753 260 753 q 225 769 225 753 q 226 775 225 772 l 125 914 l 125 997 l 121 1003 l 111 1003 l 111 1050 m 386 1103 l 333 1103 l 410 1238 l 504 1238 l 386 1103 z "},"":{"ha":556,"x_min":29,"x_max":532,"o":"m 353 78 q 390 43 353 43 l 433 43 q 471 78 471 43 q 433 114 471 114 l 390 114 q 353 78 353 114 m 64 78 q 101 43 64 43 l 178 43 q 215 78 215 43 q 178 114 215 114 l 101 114 q 64 78 64 114 m 419 756 q 343 689 378 756 l 289 585 q 278 551 278 564 q 300 532 278 532 l 392 532 q 441 540 429 532 q 453 585 453 549 l 453 728 q 442 747 453 739 q 419 756 431 756 m 418 860 q 431 849 418 849 q 442 860 442 849 q 431 871 442 871 q 418 860 418 871 m 331 860 q 342 847 331 847 q 356 860 356 847 q 342 872 356 872 q 331 860 331 872 m 229 771 q 242 760 229 760 q 253 771 253 760 q 242 782 253 782 q 229 771 229 782 m 29 317 q 49 393 29 363 l 301 792 q 400 838 331 838 q 517 739 517 838 l 517 18 q 502 -23 517 -4 q 465 -42 488 -42 l 356 -42 q 308 4 308 -42 l 308 128 q 339 179 308 179 q 397 188 393 179 q 400 215 400 196 l 400 411 q 364 456 400 456 l 226 456 q 144 400 144 456 l 144 215 q 185 179 144 179 q 198 179 189 179 q 211 179 207 179 q 261 128 261 179 l 261 10 q 218 -42 261 -42 l 93 -42 q 39 -21 53 -42 q 29 38 29 -6 l 29 317 m 429 842 q 413 863 413 842 q 426 876 413 876 q 433 875 429 876 l 458 914 l 458 997 l 451 1003 l 444 1003 l 444 1050 l 451 1056 l 489 1056 l 494 1050 l 494 1003 l 485 1003 l 481 997 l 481 914 l 446 864 q 429 842 454 842 m 340 842 q 324 863 324 842 q 338 876 324 876 q 343 875 340 875 l 347 914 l 347 997 l 340 1003 l 333 1003 l 333 1050 l 340 1056 l 378 1056 l 383 1050 l 383 1003 l 374 1003 l 369 997 l 369 914 q 357 867 363 883 q 360 858 360 863 q 340 842 360 842 m 54 811 q 93 849 54 849 q 132 811 132 849 l 132 711 q 120 684 132 696 q 93 672 108 672 q 54 711 54 672 l 54 811 m 111 1050 l 117 1056 l 154 1056 l 161 1050 l 161 1003 l 154 1003 l 147 997 l 147 914 l 239 786 q 260 774 260 790 q 243 753 260 753 q 225 769 225 753 q 226 775 225 772 l 125 914 l 125 997 l 121 1003 l 111 1003 l 111 1050 m 376 1206 l 308 1115 l 222 1115 l 335 1249 l 417 1249 l 532 1115 l 444 1115 l 376 1206 z "},"":{"ha":556,"x_min":29,"x_max":521,"o":"m 353 78 q 390 43 353 43 l 433 43 q 471 78 471 43 q 433 114 471 114 l 390 114 q 353 78 353 114 m 64 78 q 101 43 64 43 l 178 43 q 215 78 215 43 q 178 114 215 114 l 101 114 q 64 78 64 114 m 419 756 q 343 689 378 756 l 289 585 q 278 551 278 564 q 300 532 278 532 l 392 532 q 441 540 429 532 q 453 585 453 549 l 453 728 q 442 747 453 739 q 419 756 431 756 m 418 860 q 431 849 418 849 q 442 860 442 849 q 431 871 442 871 q 418 860 418 871 m 331 860 q 342 847 331 847 q 356 860 356 847 q 342 872 356 872 q 331 860 331 872 m 229 771 q 242 760 229 760 q 253 771 253 760 q 242 782 253 782 q 229 771 229 782 m 29 317 q 49 393 29 363 l 301 792 q 400 838 331 838 q 517 739 517 838 l 517 18 q 502 -23 517 -4 q 465 -42 488 -42 l 356 -42 q 308 4 308 -42 l 308 128 q 339 179 308 179 q 397 188 393 179 q 400 215 400 196 l 400 411 q 364 456 400 456 l 226 456 q 144 400 144 456 l 144 215 q 185 179 144 179 q 198 179 189 179 q 211 179 207 179 q 261 128 261 179 l 261 10 q 218 -42 261 -42 l 93 -42 q 39 -21 53 -42 q 29 38 29 -6 l 29 317 m 429 842 q 413 863 413 842 q 426 876 413 876 q 433 875 429 876 l 458 914 l 458 997 l 451 1003 l 444 1003 l 444 1050 l 451 1056 l 489 1056 l 494 1050 l 494 1003 l 485 1003 l 481 997 l 481 914 l 446 864 q 429 842 454 842 m 340 842 q 324 863 324 842 q 338 876 324 876 q 343 875 340 875 l 347 914 l 347 997 l 340 1003 l 333 1003 l 333 1050 l 340 1056 l 378 1056 l 383 1050 l 383 1003 l 374 1003 l 369 997 l 369 914 q 357 867 363 883 q 360 858 360 863 q 340 842 360 842 m 54 811 q 93 849 54 849 q 132 811 132 849 l 132 711 q 120 684 132 696 q 93 672 108 672 q 54 711 54 672 l 54 811 m 111 1050 l 117 1056 l 154 1056 l 161 1050 l 161 1003 l 154 1003 l 147 997 l 147 914 l 239 786 q 260 774 260 790 q 243 753 260 753 q 225 769 225 753 q 226 775 225 772 l 125 914 l 125 997 l 121 1003 l 111 1003 l 111 1050 m 521 1183 q 419 1117 496 1117 q 385 1123 400 1117 q 357 1137 371 1129 q 329 1151 343 1144 q 300 1157 315 1157 q 267 1147 283 1157 q 233 1110 250 1136 l 185 1151 q 231 1207 206 1190 q 289 1224 257 1224 q 330 1218 314 1224 q 359 1205 346 1213 q 385 1192 372 1197 q 415 1186 397 1186 q 478 1233 456 1186 l 521 1183 z "},"":{"ha":556,"x_min":29,"x_max":524,"o":"m 353 78 q 390 43 353 43 l 433 43 q 471 78 471 43 q 433 114 471 114 l 390 114 q 353 78 353 114 m 64 78 q 101 43 64 43 l 178 43 q 215 78 215 43 q 178 114 215 114 l 101 114 q 64 78 64 114 m 419 756 q 343 689 378 756 l 289 585 q 278 551 278 564 q 300 532 278 532 l 392 532 q 441 540 429 532 q 453 585 453 549 l 453 728 q 442 747 453 739 q 419 756 431 756 m 418 860 q 431 849 418 849 q 442 860 442 849 q 431 871 442 871 q 418 860 418 871 m 331 860 q 342 847 331 847 q 356 860 356 847 q 342 872 356 872 q 331 860 331 872 m 229 771 q 242 760 229 760 q 253 771 253 760 q 242 782 253 782 q 229 771 229 782 m 29 317 q 49 393 29 363 l 301 792 q 400 838 331 838 q 517 739 517 838 l 517 18 q 502 -23 517 -4 q 465 -42 488 -42 l 356 -42 q 308 4 308 -42 l 308 128 q 339 179 308 179 q 397 188 393 179 q 400 215 400 196 l 400 411 q 364 456 400 456 l 226 456 q 144 400 144 456 l 144 215 q 185 179 144 179 q 198 179 189 179 q 211 179 207 179 q 261 128 261 179 l 261 10 q 218 -42 261 -42 l 93 -42 q 39 -21 53 -42 q 29 38 29 -6 l 29 317 m 429 842 q 413 863 413 842 q 426 876 413 876 q 433 875 429 876 l 458 914 l 458 997 l 451 1003 l 444 1003 l 444 1050 l 451 1056 l 489 1056 l 494 1050 l 494 1003 l 485 1003 l 481 997 l 481 914 l 446 864 q 429 842 454 842 m 340 842 q 324 863 324 842 q 338 876 324 876 q 343 875 340 875 l 347 914 l 347 997 l 340 1003 l 333 1003 l 333 1050 l 340 1056 l 378 1056 l 383 1050 l 383 1003 l 374 1003 l 369 997 l 369 914 q 357 867 363 883 q 360 858 360 863 q 340 842 360 842 m 54 811 q 93 849 54 849 q 132 811 132 849 l 132 711 q 120 684 132 696 q 93 672 108 672 q 54 711 54 672 l 54 811 m 111 1050 l 117 1056 l 154 1056 l 161 1050 l 161 1003 l 154 1003 l 147 997 l 147 914 l 239 786 q 260 774 260 790 q 243 753 260 753 q 225 769 225 753 q 226 775 225 772 l 125 914 l 125 997 l 121 1003 l 111 1003 l 111 1050 m 269 1131 q 224 1149 242 1131 q 207 1194 207 1168 q 224 1240 207 1222 q 269 1258 242 1258 q 315 1240 296 1258 q 333 1194 333 1222 q 315 1149 333 1168 q 269 1131 296 1131 m 461 1131 q 417 1149 436 1131 q 399 1194 399 1168 q 417 1240 399 1222 q 461 1258 436 1258 q 506 1240 489 1258 q 524 1194 524 1222 q 506 1149 524 1168 q 461 1131 489 1131 z "},"":{"ha":556,"x_min":29,"x_max":517,"o":"m 353 78 q 390 43 353 43 l 433 43 q 471 78 471 43 q 433 114 471 114 l 390 114 q 353 78 353 114 m 64 78 q 101 43 64 43 l 178 43 q 215 78 215 43 q 178 114 215 114 l 101 114 q 64 78 64 114 m 419 756 q 343 689 378 756 l 289 585 q 278 551 278 564 q 300 532 278 532 l 392 532 q 441 540 429 532 q 453 585 453 549 l 453 728 q 442 747 453 739 q 419 756 431 756 m 418 860 q 431 849 418 849 q 442 860 442 849 q 431 871 442 871 q 418 860 418 871 m 331 860 q 342 847 331 847 q 356 860 356 847 q 342 872 356 872 q 331 860 331 872 m 229 771 q 242 760 229 760 q 253 771 253 760 q 242 782 253 782 q 229 771 229 782 m 29 317 q 49 393 29 363 l 301 792 q 400 838 331 838 q 517 739 517 838 l 517 18 q 502 -23 517 -4 q 465 -42 488 -42 l 356 -42 q 308 4 308 -42 l 308 128 q 339 179 308 179 q 397 188 393 179 q 400 215 400 196 l 400 411 q 364 456 400 456 l 226 456 q 144 400 144 456 l 144 215 q 185 179 144 179 q 198 179 189 179 q 211 179 207 179 q 261 128 261 179 l 261 10 q 218 -42 261 -42 l 93 -42 q 39 -21 53 -42 q 29 38 29 -6 l 29 317 m 429 842 q 413 863 413 842 q 426 876 413 876 q 433 875 429 876 l 458 914 l 458 997 l 451 1003 l 444 1003 l 444 1050 l 451 1056 l 489 1056 l 494 1050 l 494 1003 l 485 1003 l 481 997 l 481 914 l 446 864 q 429 842 454 842 m 340 842 q 324 863 324 842 q 338 876 324 876 q 343 875 340 875 l 347 914 l 347 997 l 340 1003 l 333 1003 l 333 1050 l 340 1056 l 378 1056 l 383 1050 l 383 1003 l 374 1003 l 369 997 l 369 914 q 357 867 363 883 q 360 858 360 863 q 340 842 360 842 m 54 811 q 93 849 54 849 q 132 811 132 849 l 132 711 q 120 684 132 696 q 93 672 108 672 q 54 711 54 672 l 54 811 m 111 1050 l 117 1056 l 154 1056 l 161 1050 l 161 1003 l 154 1003 l 147 997 l 147 914 l 239 786 q 260 774 260 790 q 243 753 260 753 q 225 769 225 753 q 226 775 225 772 l 125 914 l 125 997 l 121 1003 l 111 1003 l 111 1050 m 410 1267 q 372 1250 389 1267 q 356 1210 356 1233 q 372 1169 356 1185 q 410 1153 388 1153 q 450 1169 433 1153 q 467 1210 467 1185 q 449 1250 467 1233 q 410 1267 432 1267 m 408 1124 q 349 1147 372 1124 q 325 1207 325 1171 q 349 1270 325 1244 q 408 1296 372 1296 q 469 1269 444 1296 q 493 1207 493 1243 q 469 1147 493 1171 q 408 1124 444 1124 z "},"":{"ha":508,"x_min":33,"x_max":468,"o":"m 436 1003 l 426 1003 l 422 997 l 422 914 l 388 864 q 389 858 389 861 q 371 842 389 842 q 354 863 354 842 q 375 875 354 879 l 400 914 l 400 997 l 393 1003 l 386 1003 l 386 1050 l 393 1056 l 431 1056 l 436 1050 l 436 1003 m 325 1003 l 315 1003 l 311 997 q 300 867 318 913 q 301 861 301 865 q 285 842 301 842 q 267 863 267 842 q 286 875 267 879 q 289 997 289 914 l 282 1003 l 275 1003 l 275 1050 l 282 1056 l 319 1056 l 325 1050 l 325 1003 m 269 1003 l 263 1003 l 256 997 l 256 875 q 264 863 264 872 q 256 847 264 850 q 242 843 247 843 q 229 858 229 843 q 233 875 229 868 l 233 997 l 229 1003 l 219 1003 l 219 1050 l 225 1056 l 263 1056 l 269 1050 l 269 1003 m 207 842 q 188 858 188 842 q 190 867 188 863 q 178 914 185 883 l 178 997 l 174 1003 l 164 1003 l 164 1050 l 169 1056 l 207 1056 l 214 1050 l 214 1003 l 207 1003 l 200 997 l 200 914 l 204 875 q 210 876 207 875 q 224 863 224 876 q 207 842 224 842 m 163 842 q 146 864 138 842 l 122 914 l 122 997 l 118 1003 l 108 1003 l 108 1050 l 114 1056 l 151 1056 l 158 1050 l 158 1003 l 151 1003 l 144 997 l 144 914 q 158 875 151 896 q 165 876 163 876 q 179 863 179 876 q 163 842 179 842 m 118 842 q 101 864 93 842 l 67 914 l 67 997 l 63 1003 l 53 1003 l 53 1050 l 58 1056 l 96 1056 l 103 1050 l 103 1003 l 96 1003 l 89 997 l 89 914 l 114 875 q 121 876 118 876 q 135 863 135 876 q 118 842 135 842 m 236 578 q 197 539 236 539 q 158 578 158 539 l 158 678 q 170 704 158 693 q 197 715 182 715 q 236 678 236 715 l 236 578 m 367 -39 l 131 -39 q 33 36 33 -39 l 33 767 q 53 818 33 796 q 103 840 74 840 l 303 840 q 392 799 392 840 q 360 761 392 761 l 147 761 q 127 751 136 761 q 118 729 118 740 l 118 417 q 121 378 118 386 q 153 361 128 361 l 407 361 q 467 278 467 361 l 467 190 q 468 132 467 171 q 468 74 468 93 q 447 -10 468 15 q 367 -39 425 -39 m 385 860 q 372 871 385 871 q 361 860 361 871 q 372 849 361 849 q 385 860 385 849 m 297 860 q 286 871 297 871 q 275 860 275 871 q 286 849 275 849 q 297 860 297 849 m 257 860 q 246 871 257 871 q 235 860 235 871 q 246 849 235 849 q 257 860 257 849 m 217 860 q 206 872 217 872 q 192 860 192 872 q 206 847 192 847 q 217 860 217 847 m 174 860 q 161 871 174 871 q 150 860 150 871 q 161 849 150 849 q 174 860 174 849 m 129 860 q 117 871 129 871 q 106 860 106 871 q 117 849 106 849 q 129 860 129 849 m 406 78 q 368 114 406 114 l 114 114 q 76 78 76 114 q 114 43 76 43 l 368 43 q 406 78 406 43 m 251 10 l 251 -40 q 321 -103 321 -40 q 300 -160 321 -143 q 235 -176 279 -176 q 206 -174 219 -176 q 186 -168 193 -171 l 200 -121 q 233 -126 211 -126 q 272 -107 272 -126 q 266 -92 272 -96 q 243 -87 260 -87 l 226 -87 q 219 -88 224 -87 q 207 -90 214 -89 l 207 10 l 251 10 z "},"":{"ha":419,"x_min":32,"x_max":403,"o":"m 403 1003 l 393 1003 l 389 997 l 389 914 l 354 864 q 356 858 356 861 q 338 842 356 842 q 321 863 321 842 q 342 875 321 879 l 367 914 l 367 997 l 360 1003 l 353 1003 l 353 1050 l 360 1056 l 397 1056 l 403 1050 l 403 1003 m 292 1003 l 282 1003 l 278 997 q 267 867 285 913 q 268 861 268 865 q 251 842 268 842 q 233 863 233 842 q 253 875 233 879 q 256 997 256 914 l 249 1003 l 242 1003 l 242 1050 l 249 1056 l 286 1056 l 292 1050 l 292 1003 m 236 1003 l 229 1003 l 222 997 l 222 875 q 231 863 231 872 q 222 847 231 850 q 208 843 214 843 q 196 858 196 843 q 200 875 196 868 l 200 997 l 196 1003 l 186 1003 l 186 1050 l 192 1056 l 229 1056 l 236 1050 l 236 1003 m 174 842 q 154 858 154 842 q 157 867 154 863 q 144 914 151 883 l 144 997 l 140 1003 l 131 1003 l 131 1050 l 136 1056 l 174 1056 l 181 1050 l 181 1003 l 174 1003 l 167 997 l 167 914 l 171 875 q 176 876 174 875 q 190 863 190 876 q 174 842 190 842 m 392 -4 q 351 -42 392 -42 l 115 -42 q 47 -14 65 -42 q 32 60 32 8 l 32 158 q 33 314 32 210 q 33 469 33 418 q 53 518 33 506 l 108 554 q 118 589 118 561 l 118 763 q 185 838 118 838 l 333 838 q 392 797 392 838 q 381 769 392 781 q 347 757 371 757 q 334 757 343 757 q 321 757 325 757 q 289 728 289 757 l 289 582 q 324 550 289 551 q 379 539 368 549 q 392 510 392 525 q 380 482 392 494 q 353 469 368 469 l 138 469 q 96 417 96 469 l 96 229 q 138 183 96 183 l 351 183 q 376 172 360 183 q 392 151 392 160 l 392 -4 m 224 267 q 185 229 224 229 q 158 240 169 229 q 146 267 146 251 l 146 367 q 185 406 146 406 q 224 367 224 406 l 224 267 m 351 860 q 339 871 351 871 q 328 860 328 871 q 339 849 328 849 q 351 860 351 849 m 264 860 q 253 871 264 871 q 242 860 242 871 q 253 849 242 849 q 264 860 264 849 m 224 860 q 213 871 224 871 q 201 860 201 871 q 213 849 201 849 q 224 860 224 849 m 183 860 q 172 872 183 872 q 158 860 158 872 q 172 847 158 847 q 183 860 183 847 m 350 78 q 313 114 350 114 l 114 114 q 76 78 76 114 q 114 43 76 43 l 313 43 q 350 78 350 43 m 124 1235 l 218 1235 l 294 1100 l 242 1100 l 124 1235 z "},"":{"ha":419,"x_min":32,"x_max":403,"o":"m 403 1003 l 393 1003 l 389 997 l 389 914 l 354 864 q 356 858 356 861 q 338 842 356 842 q 321 863 321 842 q 342 875 321 879 l 367 914 l 367 997 l 360 1003 l 353 1003 l 353 1050 l 360 1056 l 397 1056 l 403 1050 l 403 1003 m 292 1003 l 282 1003 l 278 997 q 267 867 285 913 q 268 861 268 865 q 251 842 268 842 q 233 863 233 842 q 253 875 233 879 q 256 997 256 914 l 249 1003 l 242 1003 l 242 1050 l 249 1056 l 286 1056 l 292 1050 l 292 1003 m 236 1003 l 229 1003 l 222 997 l 222 875 q 231 863 231 872 q 222 847 231 850 q 208 843 214 843 q 196 858 196 843 q 200 875 196 868 l 200 997 l 196 1003 l 186 1003 l 186 1050 l 192 1056 l 229 1056 l 236 1050 l 236 1003 m 174 842 q 154 858 154 842 q 157 867 154 863 q 144 914 151 883 l 144 997 l 140 1003 l 131 1003 l 131 1050 l 136 1056 l 174 1056 l 181 1050 l 181 1003 l 174 1003 l 167 997 l 167 914 l 171 875 q 176 876 174 875 q 190 863 190 876 q 174 842 190 842 m 392 -4 q 351 -42 392 -42 l 115 -42 q 47 -14 65 -42 q 32 60 32 8 l 32 158 q 33 314 32 210 q 33 469 33 418 q 53 518 33 506 l 108 554 q 118 589 118 561 l 118 763 q 185 838 118 838 l 333 838 q 392 797 392 838 q 381 769 392 781 q 347 757 371 757 q 334 757 343 757 q 321 757 325 757 q 289 728 289 757 l 289 582 q 324 550 289 551 q 379 539 368 549 q 392 510 392 525 q 380 482 392 494 q 353 469 368 469 l 138 469 q 96 417 96 469 l 96 229 q 138 183 96 183 l 351 183 q 376 172 360 183 q 392 151 392 160 l 392 -4 m 224 267 q 185 229 224 229 q 158 240 169 229 q 146 267 146 251 l 146 367 q 185 406 146 406 q 224 367 224 406 l 224 267 m 351 860 q 339 871 351 871 q 328 860 328 871 q 339 849 328 849 q 351 860 351 849 m 264 860 q 253 871 264 871 q 242 860 242 871 q 253 849 242 849 q 264 860 264 849 m 224 860 q 213 871 224 871 q 201 860 201 871 q 213 849 201 849 q 224 860 224 849 m 183 860 q 172 872 183 872 q 158 860 158 872 q 172 847 158 847 q 183 860 183 847 m 350 78 q 313 114 350 114 l 114 114 q 76 78 76 114 q 114 43 76 43 l 313 43 q 350 78 350 43 m 251 1103 l 199 1103 l 275 1238 l 369 1238 l 251 1103 z "},"":{"ha":419,"x_min":32,"x_max":414,"o":"m 403 1003 l 393 1003 l 389 997 l 389 914 l 354 864 q 356 858 356 861 q 338 842 356 842 q 321 863 321 842 q 342 875 321 879 l 367 914 l 367 997 l 360 1003 l 353 1003 l 353 1050 l 360 1056 l 397 1056 l 403 1050 l 403 1003 m 292 1003 l 282 1003 l 278 997 q 267 867 285 913 q 268 861 268 865 q 251 842 268 842 q 233 863 233 842 q 253 875 233 879 q 256 997 256 914 l 249 1003 l 242 1003 l 242 1050 l 249 1056 l 286 1056 l 292 1050 l 292 1003 m 236 1003 l 229 1003 l 222 997 l 222 875 q 231 863 231 872 q 222 847 231 850 q 208 843 214 843 q 196 858 196 843 q 200 875 196 868 l 200 997 l 196 1003 l 186 1003 l 186 1050 l 192 1056 l 229 1056 l 236 1050 l 236 1003 m 174 842 q 154 858 154 842 q 157 867 154 863 q 144 914 151 883 l 144 997 l 140 1003 l 131 1003 l 131 1050 l 136 1056 l 174 1056 l 181 1050 l 181 1003 l 174 1003 l 167 997 l 167 914 l 171 875 q 176 876 174 875 q 190 863 190 876 q 174 842 190 842 m 392 -4 q 351 -42 392 -42 l 115 -42 q 47 -14 65 -42 q 32 60 32 8 l 32 158 q 33 314 32 210 q 33 469 33 418 q 53 518 33 506 l 108 554 q 118 589 118 561 l 118 763 q 185 838 118 838 l 333 838 q 392 797 392 838 q 381 769 392 781 q 347 757 371 757 q 334 757 343 757 q 321 757 325 757 q 289 728 289 757 l 289 582 q 324 550 289 551 q 379 539 368 549 q 392 510 392 525 q 380 482 392 494 q 353 469 368 469 l 138 469 q 96 417 96 469 l 96 229 q 138 183 96 183 l 351 183 q 376 172 360 183 q 392 151 392 160 l 392 -4 m 224 267 q 185 229 224 229 q 158 240 169 229 q 146 267 146 251 l 146 367 q 185 406 146 406 q 224 367 224 406 l 224 267 m 351 860 q 339 871 351 871 q 328 860 328 871 q 339 849 328 849 q 351 860 351 849 m 264 860 q 253 871 264 871 q 242 860 242 871 q 253 849 242 849 q 264 860 264 849 m 224 860 q 213 871 224 871 q 201 860 201 871 q 213 849 201 849 q 224 860 224 849 m 183 860 q 172 872 183 872 q 158 860 158 872 q 172 847 158 847 q 183 860 183 847 m 350 78 q 313 114 350 114 l 114 114 q 76 78 76 114 q 114 43 76 43 l 313 43 q 350 78 350 43 m 258 1206 l 190 1115 l 104 1115 l 217 1249 l 299 1249 l 414 1115 l 326 1115 l 258 1206 z "},"":{"ha":419,"x_min":32,"x_max":422,"o":"m 403 1003 l 393 1003 l 389 997 l 389 914 l 354 864 q 356 858 356 861 q 338 842 356 842 q 321 863 321 842 q 342 875 321 879 l 367 914 l 367 997 l 360 1003 l 353 1003 l 353 1050 l 360 1056 l 397 1056 l 403 1050 l 403 1003 m 292 1003 l 282 1003 l 278 997 q 267 867 285 913 q 268 861 268 865 q 251 842 268 842 q 233 863 233 842 q 253 875 233 879 q 256 997 256 914 l 249 1003 l 242 1003 l 242 1050 l 249 1056 l 286 1056 l 292 1050 l 292 1003 m 236 1003 l 229 1003 l 222 997 l 222 875 q 231 863 231 872 q 222 847 231 850 q 208 843 214 843 q 196 858 196 843 q 200 875 196 868 l 200 997 l 196 1003 l 186 1003 l 186 1050 l 192 1056 l 229 1056 l 236 1050 l 236 1003 m 174 842 q 154 858 154 842 q 157 867 154 863 q 144 914 151 883 l 144 997 l 140 1003 l 131 1003 l 131 1050 l 136 1056 l 174 1056 l 181 1050 l 181 1003 l 174 1003 l 167 997 l 167 914 l 171 875 q 176 876 174 875 q 190 863 190 876 q 174 842 190 842 m 392 -4 q 351 -42 392 -42 l 115 -42 q 47 -14 65 -42 q 32 60 32 8 l 32 158 q 33 314 32 210 q 33 469 33 418 q 53 518 33 506 l 108 554 q 118 589 118 561 l 118 763 q 185 838 118 838 l 333 838 q 392 797 392 838 q 381 769 392 781 q 347 757 371 757 q 334 757 343 757 q 321 757 325 757 q 289 728 289 757 l 289 582 q 324 550 289 551 q 379 539 368 549 q 392 510 392 525 q 380 482 392 494 q 353 469 368 469 l 138 469 q 96 417 96 469 l 96 229 q 138 183 96 183 l 351 183 q 376 172 360 183 q 392 151 392 160 l 392 -4 m 224 267 q 185 229 224 229 q 158 240 169 229 q 146 267 146 251 l 146 367 q 185 406 146 406 q 224 367 224 406 l 224 267 m 351 860 q 339 871 351 871 q 328 860 328 871 q 339 849 328 849 q 351 860 351 849 m 264 860 q 253 871 264 871 q 242 860 242 871 q 253 849 242 849 q 264 860 264 849 m 224 860 q 213 871 224 871 q 201 860 201 871 q 213 849 201 849 q 224 860 224 849 m 183 860 q 172 872 183 872 q 158 860 158 872 q 172 847 158 847 q 183 860 183 847 m 350 78 q 313 114 350 114 l 114 114 q 76 78 76 114 q 114 43 76 43 l 313 43 q 350 78 350 43 m 168 1131 q 123 1149 140 1131 q 106 1194 106 1168 q 123 1240 106 1222 q 168 1258 140 1258 q 213 1240 194 1258 q 232 1194 232 1222 q 213 1149 232 1168 q 168 1131 194 1131 m 360 1131 q 316 1149 335 1131 q 297 1194 297 1168 q 316 1240 297 1222 q 360 1258 335 1258 q 405 1240 388 1258 q 422 1194 422 1222 q 405 1149 422 1168 q 360 1131 388 1131 z "},"":{"ha":310,"x_min":-6,"x_max":283,"o":"m 174 842 q 157 864 149 842 l 122 914 l 122 997 l 118 1003 l 108 1003 l 108 1050 l 114 1056 l 151 1056 l 158 1050 l 158 1003 l 151 1003 l 144 997 l 144 914 l 169 875 q 176 876 174 876 q 190 863 190 876 q 174 842 190 842 m 282 40 q 196 -42 282 -42 l 104 -42 q 32 0 49 -42 q 22 92 22 24 q 74 192 22 178 q 113 203 93 196 q 133 228 133 210 l 133 796 q 143 823 133 803 q 179 843 153 843 q 204 825 190 843 q 218 796 218 807 l 218 233 q 233 203 218 214 q 264 180 247 192 q 283 111 281 168 q 282 40 282 133 m 185 860 q 172 871 185 871 q 161 860 161 871 q 172 849 161 849 q 185 860 185 849 m 250 78 q 213 114 250 114 l 103 114 q 65 78 65 114 q 103 43 65 43 l 213 43 q 250 78 250 43 m -6 1235 l 89 1235 l 165 1100 l 113 1100 l -6 1235 z "},"":{"ha":310,"x_min":22,"x_max":283,"o":"m 174 842 q 157 864 149 842 l 122 914 l 122 997 l 118 1003 l 108 1003 l 108 1050 l 114 1056 l 151 1056 l 158 1050 l 158 1003 l 151 1003 l 144 997 l 144 914 l 169 875 q 176 876 174 876 q 190 863 190 876 q 174 842 190 842 m 282 40 q 196 -42 282 -42 l 104 -42 q 32 0 49 -42 q 22 92 22 24 q 74 192 22 178 q 113 203 93 196 q 133 228 133 210 l 133 796 q 143 823 133 803 q 179 843 153 843 q 204 825 190 843 q 218 796 218 807 l 218 233 q 233 203 218 214 q 264 180 247 192 q 283 111 281 168 q 282 40 282 133 m 185 860 q 172 871 185 871 q 161 860 161 871 q 172 849 161 849 q 185 860 185 849 m 250 78 q 213 114 250 114 l 103 114 q 65 78 65 114 q 103 43 65 43 l 213 43 q 250 78 250 43 m 156 1103 l 103 1103 l 179 1238 l 274 1238 l 156 1103 z "},"":{"ha":310,"x_min":1,"x_max":311,"o":"m 174 842 q 157 864 149 842 l 122 914 l 122 997 l 118 1003 l 108 1003 l 108 1050 l 114 1056 l 151 1056 l 158 1050 l 158 1003 l 151 1003 l 144 997 l 144 914 l 169 875 q 176 876 174 876 q 190 863 190 876 q 174 842 190 842 m 282 40 q 196 -42 282 -42 l 104 -42 q 32 0 49 -42 q 22 92 22 24 q 74 192 22 178 q 113 203 93 196 q 133 228 133 210 l 133 796 q 143 823 133 803 q 179 843 153 843 q 204 825 190 843 q 218 796 218 807 l 218 233 q 233 203 218 214 q 264 180 247 192 q 283 111 281 168 q 282 40 282 133 m 185 860 q 172 871 185 871 q 161 860 161 871 q 172 849 161 849 q 185 860 185 849 m 250 78 q 213 114 250 114 l 103 114 q 65 78 65 114 q 103 43 65 43 l 213 43 q 250 78 250 43 m 156 1206 l 88 1115 l 1 1115 l 114 1249 l 196 1249 l 311 1115 l 224 1115 l 156 1206 z "},"":{"ha":310,"x_min":-1,"x_max":315,"o":"m 174 842 q 157 864 149 842 l 122 914 l 122 997 l 118 1003 l 108 1003 l 108 1050 l 114 1056 l 151 1056 l 158 1050 l 158 1003 l 151 1003 l 144 997 l 144 914 l 169 875 q 176 876 174 876 q 190 863 190 876 q 174 842 190 842 m 282 40 q 196 -42 282 -42 l 104 -42 q 32 0 49 -42 q 22 92 22 24 q 74 192 22 178 q 113 203 93 196 q 133 228 133 210 l 133 796 q 143 823 133 803 q 179 843 153 843 q 204 825 190 843 q 218 796 218 807 l 218 233 q 233 203 218 214 q 264 180 247 192 q 283 111 281 168 q 282 40 282 133 m 185 860 q 172 871 185 871 q 161 860 161 871 q 172 849 161 849 q 185 860 185 849 m 250 78 q 213 114 250 114 l 103 114 q 65 78 65 114 q 103 43 65 43 l 213 43 q 250 78 250 43 m 61 1131 q 16 1149 33 1131 q -1 1194 -1 1168 q 16 1240 -1 1222 q 61 1258 33 1258 q 106 1240 88 1258 q 125 1194 125 1222 q 106 1149 125 1168 q 61 1131 88 1131 m 253 1131 q 209 1149 228 1131 q 190 1194 190 1168 q 209 1240 190 1222 q 253 1258 228 1258 q 298 1240 281 1258 q 315 1194 315 1222 q 298 1149 315 1168 q 253 1131 281 1131 z "},"":{"ha":557,"x_min":31,"x_max":547,"o":"m 547 1003 l 538 1003 l 533 997 l 533 914 l 499 864 q 500 858 500 861 q 482 842 500 842 q 465 863 465 842 q 486 875 465 879 l 511 914 l 511 997 l 504 1003 l 497 1003 l 497 1050 l 504 1056 l 542 1056 l 547 1050 l 547 1003 m 185 842 q 165 858 165 842 q 168 867 165 863 q 156 914 163 883 l 156 997 l 151 1003 l 142 1003 l 142 1050 l 147 1056 l 185 1056 l 192 1050 l 192 1003 l 185 1003 l 178 997 l 178 914 l 182 875 q 188 876 185 875 q 201 863 201 876 q 185 842 201 842 m 140 842 q 124 864 115 842 l 100 914 l 100 997 l 96 1003 l 86 1003 l 86 1050 l 92 1056 l 129 1056 l 136 1050 l 136 1003 l 129 1003 l 122 997 l 122 914 q 136 875 129 896 q 143 876 140 876 q 157 863 157 876 q 140 842 157 842 m 96 842 q 79 864 71 842 l 44 914 l 44 997 l 40 1003 l 31 1003 l 31 1050 l 36 1056 l 74 1056 l 81 1050 l 81 1003 l 74 1003 l 67 997 l 67 914 l 92 875 q 99 876 96 876 q 113 863 113 876 q 96 842 113 842 m 522 51 q 453 -43 522 -43 l 310 -43 q 262 -28 285 -43 q 235 11 239 -12 l 190 235 q 157 261 185 261 q 119 228 119 261 l 119 1 q 75 -54 119 -54 q 36 1 36 -54 l 36 772 q 106 836 36 836 l 186 836 q 258 772 253 836 l 306 236 q 381 188 310 188 q 429 211 418 188 q 438 269 438 228 l 438 786 q 481 836 438 836 q 522 786 522 836 l 522 51 m 496 860 q 483 871 496 871 q 472 860 472 871 q 483 849 472 849 q 496 860 496 849 m 194 860 q 183 872 194 872 q 169 860 169 872 q 183 847 169 847 q 194 860 194 847 m 151 860 q 139 871 151 871 q 128 860 128 871 q 139 849 128 849 q 151 860 151 849 m 107 860 q 94 871 107 871 q 83 860 83 871 q 94 849 83 849 q 107 860 107 849 m 494 78 q 457 114 494 114 l 303 114 q 265 78 265 114 q 303 43 265 43 l 457 43 q 494 78 494 43 m 446 1183 q 344 1117 421 1117 q 310 1123 325 1117 q 282 1137 296 1129 q 254 1151 268 1144 q 225 1157 240 1157 q 192 1147 208 1157 q 158 1110 175 1136 l 110 1151 q 156 1207 131 1190 q 214 1224 182 1224 q 255 1218 239 1224 q 284 1205 271 1213 q 310 1192 297 1197 q 340 1186 322 1186 q 403 1233 381 1186 l 446 1183 z "},"":{"ha":481,"x_min":33,"x_max":447,"o":"m 436 1003 l 426 1003 l 422 997 l 422 914 l 388 864 q 389 858 389 861 q 371 842 389 842 q 354 863 354 842 q 375 875 354 879 l 400 914 l 400 997 l 393 1003 l 386 1003 l 386 1050 l 393 1056 l 431 1056 l 436 1050 l 436 1003 m 381 1003 l 371 1003 l 367 997 l 367 914 l 343 864 q 344 858 344 861 q 326 842 344 842 q 310 863 310 842 q 331 875 310 879 l 344 914 l 344 997 l 338 1003 l 331 1003 l 331 1050 l 338 1056 l 375 1056 l 381 1050 l 381 1003 m 325 1003 l 315 1003 l 311 997 q 300 867 318 913 q 301 861 301 865 q 285 842 301 842 q 267 863 267 842 q 286 875 267 879 q 289 997 289 914 l 282 1003 l 275 1003 l 275 1050 l 282 1056 l 319 1056 l 325 1050 l 325 1003 m 118 842 q 101 864 93 842 l 67 914 l 67 997 l 63 1003 l 53 1003 l 53 1050 l 58 1056 l 96 1056 l 103 1050 l 103 1003 l 96 1003 l 89 997 l 89 914 l 114 875 q 121 876 118 876 q 135 863 135 876 q 118 842 135 842 m 447 56 q 358 -42 447 -42 l 142 -42 q 33 44 33 -42 l 33 744 q 126 838 33 838 l 375 838 q 429 810 411 838 q 447 744 447 782 l 447 56 m 385 860 q 372 871 385 871 q 361 860 361 871 q 372 849 361 849 q 385 860 385 849 m 340 860 q 328 871 340 871 q 317 860 317 871 q 328 849 317 849 q 340 860 340 849 m 297 860 q 286 871 297 871 q 275 860 275 871 q 286 849 275 849 q 297 860 297 849 m 129 860 q 117 871 129 871 q 106 860 106 871 q 117 849 106 849 q 129 860 129 849 m 363 257 l 363 682 q 294 757 363 757 l 174 757 q 118 682 118 757 l 118 257 q 174 179 118 179 l 294 179 q 349 197 336 179 q 363 257 363 215 m 394 78 q 357 114 394 114 l 125 114 q 88 78 88 114 q 125 43 88 43 l 357 43 q 394 78 394 43 m 306 349 q 272 308 306 308 l 211 308 q 183 349 183 308 l 183 428 q 211 465 183 465 l 272 465 q 306 428 306 465 l 306 349 m 117 1235 l 211 1235 l 288 1100 l 235 1100 l 117 1235 z "},"":{"ha":481,"x_min":33,"x_max":447,"o":"m 436 1003 l 426 1003 l 422 997 l 422 914 l 388 864 q 389 858 389 861 q 371 842 389 842 q 354 863 354 842 q 375 875 354 879 l 400 914 l 400 997 l 393 1003 l 386 1003 l 386 1050 l 393 1056 l 431 1056 l 436 1050 l 436 1003 m 381 1003 l 371 1003 l 367 997 l 367 914 l 343 864 q 344 858 344 861 q 326 842 344 842 q 310 863 310 842 q 331 875 310 879 l 344 914 l 344 997 l 338 1003 l 331 1003 l 331 1050 l 338 1056 l 375 1056 l 381 1050 l 381 1003 m 325 1003 l 315 1003 l 311 997 q 300 867 318 913 q 301 861 301 865 q 285 842 301 842 q 267 863 267 842 q 286 875 267 879 q 289 997 289 914 l 282 1003 l 275 1003 l 275 1050 l 282 1056 l 319 1056 l 325 1050 l 325 1003 m 118 842 q 101 864 93 842 l 67 914 l 67 997 l 63 1003 l 53 1003 l 53 1050 l 58 1056 l 96 1056 l 103 1050 l 103 1003 l 96 1003 l 89 997 l 89 914 l 114 875 q 121 876 118 876 q 135 863 135 876 q 118 842 135 842 m 447 56 q 358 -42 447 -42 l 142 -42 q 33 44 33 -42 l 33 744 q 126 838 33 838 l 375 838 q 429 810 411 838 q 447 744 447 782 l 447 56 m 385 860 q 372 871 385 871 q 361 860 361 871 q 372 849 361 849 q 385 860 385 849 m 340 860 q 328 871 340 871 q 317 860 317 871 q 328 849 317 849 q 340 860 340 849 m 297 860 q 286 871 297 871 q 275 860 275 871 q 286 849 275 849 q 297 860 297 849 m 129 860 q 117 871 129 871 q 106 860 106 871 q 117 849 106 849 q 129 860 129 849 m 363 257 l 363 682 q 294 757 363 757 l 174 757 q 118 682 118 757 l 118 257 q 174 179 118 179 l 294 179 q 349 197 336 179 q 363 257 363 215 m 394 78 q 357 114 394 114 l 125 114 q 88 78 88 114 q 125 43 88 43 l 357 43 q 394 78 394 43 m 306 349 q 272 308 306 308 l 211 308 q 183 349 183 308 l 183 428 q 211 465 183 465 l 272 465 q 306 428 306 465 l 306 349 m 207 1103 l 154 1103 l 231 1238 l 325 1238 l 207 1103 z "}}}
